<svg width="47" height="41" viewBox="0 0 47 41" fill="none" xmlns="http://www.w3.org/2000/svg">
<path d="M23.503 0C10.5247 0 0.0060916 8.52031 0.0060916 19.0357C0.0060916 23.392 1.83261 27.3821 4.86152 30.5944C3.49392 34.2002 0.648586 37.2569 0.602694 37.2935C-0.00308692 37.9342 -0.1683 38.8676 0.180483 39.673C0.529266 40.4784 1.3278 41 2.20893 41C7.85371 41 12.3053 38.648 14.9762 36.7627C17.6288 37.5955 20.4925 38.0714 23.503 38.0714C36.4814 38.0714 47 29.5511 47 19.0357C47 8.52031 36.4814 0 23.503 0ZM23.503 33.6786C21.0524 33.6786 18.6293 33.3033 16.3071 32.5712L14.2236 31.9123L12.4338 33.1752C11.1213 34.0996 9.32227 35.1337 7.15614 35.8292C7.82617 34.7219 8.47785 33.4772 8.98266 32.1502L9.95558 29.5786L8.06481 27.5835C6.40351 25.8172 4.41177 22.8978 4.41177 19.0357C4.41177 10.9638 12.9753 4.39286 23.503 4.39286C34.0308 4.39286 42.5943 10.9638 42.5943 19.0357C42.5943 27.1076 34.0308 33.6786 23.503 33.6786Z" fill="#4990C2"/>
</svg>
