<svg width="367" height="448" viewBox="0 0 367 448" fill="none" xmlns="http://www.w3.org/2000/svg">
<path d="M315.49 206C330.718 187.398 340.111 164.712 342.49 140.79C349.87 64.49 290 0 215.42 0H16C11.7565 0 7.68687 1.68571 4.68629 4.68629C1.68571 7.68687 0 11.7565 0 16V64C0 68.2435 1.68571 72.3131 4.68629 75.3137C7.68687 78.3143 11.7565 80 16 80H47.87V368H16C11.7565 368 7.68687 369.686 4.68629 372.686C1.68571 375.687 0 379.757 0 384V432C0 436.243 1.68571 440.313 4.68629 443.314C7.68687 446.314 11.7565 448 16 448H225.32C296.12 448 359.46 396.25 366.32 325.6C371.06 277.15 349.93 233.54 315.49 206ZM127.66 80H215.42C228.15 80 240.359 85.0571 249.361 94.0589C258.363 103.061 263.42 115.27 263.42 128C263.42 140.73 258.363 152.939 249.361 161.941C240.359 170.943 228.15 176 215.42 176H127.66V80ZM215.42 368H127.66V256H215.42C230.272 256 244.516 261.9 255.018 272.402C265.52 282.904 271.42 297.148 271.42 312C271.42 326.852 265.52 341.096 255.018 351.598C244.516 362.1 230.272 368 215.42 368Z" fill="url(#paint0_linear)"/>
<defs>
<linearGradient id="paint0_linear" x1="18.5" y1="6.75069e-06" x2="285" y2="413.5" gradientUnits="userSpaceOnUse">
<stop stop-color="#F87989"/>
<stop offset="1" stop-color="#4E8FC0"/>
</linearGradient>
</defs>
</svg>
