<svg width="24" height="25" viewBox="0 0 24 25" fill="none" xmlns="http://www.w3.org/2000/svg">
<path d="M21.4286 0.6875H2.57143C1.15125 0.6875 0 1.82076 0 3.21875V21.7812C0 23.1792 1.15125 24.3125 2.57143 24.3125H21.4286C22.8488 24.3125 24 23.1792 24 21.7812V3.21875C24 1.82076 22.8488 0.6875 21.4286 0.6875ZM21.4286 21.7812H2.57143V3.21875H21.4286V21.7812ZM19.5073 9.03409L10.2614 18.0624C10.0094 18.3085 9.60236 18.3069 9.35234 18.0588L4.48907 13.2328C4.23905 12.9847 4.24066 12.584 4.49277 12.3378L5.70986 11.1494C5.96191 10.9033 6.36895 10.9049 6.61896 11.1531L9.82211 14.3317L17.3945 6.93753C17.6466 6.69141 18.0536 6.693 18.3036 6.94111L19.5109 8.13913C19.7609 8.3873 19.7593 8.78797 19.5073 9.03409Z" fill="url(#paint0_linear)"/>
<defs>
<linearGradient id="paint0_linear" x1="-4.16791e-07" y1="1" x2="24" y2="24" gradientUnits="userSpaceOnUse">
<stop stop-color="#FF7987"/>
<stop offset="1" stop-color="#3F92C6"/>
</linearGradient>
</defs>
</svg>
