<svg width="71" height="103" viewBox="0 0 71 103" fill="none" xmlns="http://www.w3.org/2000/svg">
<g clip-path="url(#clip0)">
<path d="M48.9577 51.5L69.1423 31.3687C71.6192 28.8983 71.6192 24.893 69.1423 22.4206L64.6564 17.9465C62.1795 15.4762 58.1635 15.4762 55.6846 17.9465L35.5 38.0778L15.3154 17.9465C12.8385 15.4762 8.82256 15.4762 6.34361 17.9465L1.8577 22.4206C-0.619233 24.891 -0.619233 28.8963 1.8577 31.3687L22.0423 51.5L1.8577 71.6313C-0.619233 74.1017 -0.619233 78.107 1.8577 80.5794L6.34361 85.0535C8.82054 87.5238 12.8385 87.5238 15.3154 85.0535L35.5 64.9222L55.6846 85.0535C58.1615 87.5238 62.1795 87.5238 64.6564 85.0535L69.1423 80.5794C71.6192 78.109 71.6192 74.1037 69.1423 71.6313L48.9577 51.5Z" fill="url(#paint0_linear)"/>
</g>
<defs>
<linearGradient id="paint0_linear" x1="2.52131" y1="18.8096" x2="68.5076" y2="84.1637" gradientUnits="userSpaceOnUse">
<stop stop-color="#FF7987"/>
<stop offset="1" stop-color="#3F92C6"/>
</linearGradient>
<clipPath id="clip0">
<rect width="71" height="103" fill="white"/>
</clipPath>
</defs>
</svg>
