<svg width="400" height="322" viewBox="0 0 400 322" fill="none" xmlns="http://www.w3.org/2000/svg">
<path d="M200.3 178L64.3 314C54.9 323.4 39.7 323.4 30.4 314L7.8 291.4C-1.6 282 -1.6 266.8 7.8 257.5L104.2 161.1L7.8 64.6999C-1.6 55.2999 -1.6 40.1 7.8 30.8L30.3 7.99995C39.7 -1.40005 54.9 -1.40005 64.2 7.99995L200.2 144C209.7 153.4 209.7 168.6 200.3 178V178ZM392.3 144L256.3 7.99995C246.9 -1.40005 231.7 -1.40005 222.4 7.99995L199.8 30.5999C190.4 39.9999 190.4 55.2 199.8 64.5L296.2 160.9L199.8 257.3C190.4 266.7 190.4 281.9 199.8 291.2L222.4 313.8C231.8 323.2 247 323.2 256.3 313.8L392.3 177.8C401.7 168.6 401.7 153.4 392.3 144Z" fill="url(#paint0_linear)"/>
<defs>
<linearGradient id="paint0_linear" x1="14" y1="28" x2="322" y2="261.5" gradientUnits="userSpaceOnUse">
<stop stop-color="#FF7987"/>
<stop offset="1" stop-color="#3F92C6"/>
<stop offset="1" stop-opacity="0"/>
</linearGradient>
</defs>
</svg>
