<svg width="34" height="31" viewBox="0 0 34 31" fill="none" xmlns="http://www.w3.org/2000/svg">
<g clip-path="url(#clip0)">
<path d="M23.7469 20.8842L25.6358 18.9467C25.9309 18.644 26.4444 18.8559 26.4444 19.2918V28.0954C26.4444 29.6999 25.1753 31.0016 23.6111 31.0016H2.83333C1.2691 31.0016 0 29.6999 0 28.0954V6.78286C0 5.17837 1.2691 3.87661 2.83333 3.87661H18.9774C19.3965 3.87661 19.609 4.39731 19.3139 4.7061L17.425 6.6436C17.3365 6.73442 17.2184 6.78286 17.0885 6.78286H2.83333V28.0954H23.6111V21.2233C23.6111 21.0961 23.6583 20.975 23.7469 20.8842ZM32.9906 8.66587L17.4899 24.5655L12.1538 25.1709C10.6073 25.3465 9.29097 24.0084 9.46215 22.41L10.0524 16.9366L25.5531 1.03696C26.9049 -0.349561 29.0889 -0.349561 30.4347 1.03696L32.9847 3.65259C34.3365 5.03911 34.3365 7.2854 32.9906 8.66587ZM27.1587 10.5368L23.7292 7.01899L12.7618 18.2747L12.3309 22.2284L16.1854 21.7864L27.1587 10.5368ZM30.9837 5.71118L28.4337 3.09556C28.1917 2.84731 27.7962 2.84731 27.5601 3.09556L25.7361 4.96645L29.1656 8.48423L30.9896 6.61333C31.2257 6.35903 31.2257 5.95942 30.9837 5.71118Z" fill="url(#paint0_linear)"/>
</g>
<defs>
<linearGradient id="paint0_linear" x1="-4.50641e-08" y1="3.92591" x2="25.3115" y2="28.9497" gradientUnits="userSpaceOnUse">
<stop stop-color="#FE7987"/>
<stop offset="1" stop-color="#3F92C6"/>
</linearGradient>
<clipPath id="clip0">
<rect width="34" height="31" fill="white"/>
</clipPath>
</defs>
</svg>
