<svg width="576" height="384" viewBox="0 0 576 384" fill="none" xmlns="http://www.w3.org/2000/svg">
<path d="M572.52 177.4C518.29 71.59 410.93 0 288 0C165.07 0 57.6799 71.64 3.47994 177.41C1.19236 181.935 0.000488281 186.935 0.000488281 192.005C0.000488281 197.075 1.19236 202.075 3.47994 206.6C57.7099 312.41 165.07 384 288 384C410.93 384 518.32 312.36 572.52 206.59C574.808 202.065 575.999 197.065 575.999 191.995C575.999 186.925 574.808 181.925 572.52 177.4V177.4ZM288 336C259.519 336 231.678 327.555 207.998 311.732C184.317 295.909 165.86 273.419 154.961 247.106C144.062 220.794 141.211 191.84 146.767 163.907C152.323 135.974 166.038 110.315 186.177 90.1766C206.315 70.0379 231.974 56.3232 259.907 50.7669C287.84 45.2107 316.794 48.0623 343.106 58.9613C369.419 69.8604 391.909 88.3172 407.732 111.998C423.554 135.679 432 163.519 432 192C432.009 210.913 428.291 229.642 421.057 247.117C413.824 264.592 403.217 280.47 389.844 293.844C376.47 307.217 360.592 317.824 343.117 325.057C325.642 332.291 306.913 336.009 288 336V336ZM288 96C279.431 96.1198 270.918 97.3946 262.69 99.79C269.472 109.007 272.727 120.349 271.864 131.759C271 143.17 266.076 153.893 257.985 161.985C249.893 170.077 239.17 175 227.759 175.864C216.349 176.727 205.007 173.472 195.79 166.69C190.542 186.026 191.489 206.521 198.499 225.29C205.509 244.059 218.228 260.158 234.866 271.32C251.504 282.481 271.224 288.145 291.25 287.512C311.275 286.879 330.598 279.983 346.499 267.793C362.399 255.603 374.077 238.734 379.888 219.56C385.699 200.386 385.351 179.872 378.893 160.906C372.435 141.94 360.191 125.476 343.886 113.833C327.581 102.19 308.035 95.9528 288 96V96Z" fill="url(#paint0_linear)"/>
<defs>
<linearGradient id="paint0_linear" x1="58" y1="68.5" x2="520.5" y2="319.5" gradientUnits="userSpaceOnUse">
<stop stop-color="#FC7987"/>
<stop offset="1" stop-color="#3F92C6"/>
</linearGradient>
</defs>
</svg>
