<svg width="320" height="448" viewBox="0 0 320 448" fill="none" xmlns="http://www.w3.org/2000/svg">
<path d="M320 16V48C320 52.2435 318.314 56.3131 315.314 59.3137C312.313 62.3143 308.243 64 304 64H241.24L161.24 384H208C212.243 384 216.313 385.686 219.314 388.686C222.314 391.687 224 395.757 224 400V432C224 436.243 222.314 440.313 219.314 443.314C216.313 446.314 212.243 448 208 448H16C11.7565 448 7.68687 446.314 4.68629 443.314C1.68571 440.313 0 436.243 0 432V400C0 395.757 1.68571 391.687 4.68629 388.686C7.68687 385.686 11.7565 384 16 384H78.76L158.76 64H112C107.757 64 103.687 62.3143 100.686 59.3137C97.6857 56.3131 96 52.2435 96 48V16C96 11.7565 97.6857 7.68687 100.686 4.68629C103.687 1.68571 107.757 0 112 0H304C308.243 0 312.313 1.68571 315.314 4.68629C318.314 7.68687 320 11.7565 320 16Z" fill="url(#paint0_linear)"/>
<defs>
<linearGradient id="paint0_linear" x1="92" y1="-4.24071e-07" x2="225.5" y2="427" gradientUnits="userSpaceOnUse">
<stop stop-color="#F57A8A"/>
<stop offset="1" stop-color="#528EBE"/>
</linearGradient>
</defs>
</svg>
