<svg width="19" height="31" viewBox="0 0 19 31" fill="none" xmlns="http://www.w3.org/2000/svg">
<path d="M17.8778 23.0812L17.8776 23.0813L11.7048 29.8625C11.7048 29.8626 11.7047 29.8626 11.7047 29.8627C11.5378 30.0458 11.262 30.0458 11.0952 29.8627C11.0952 29.8626 11.0951 29.8626 11.0951 29.8626L4.92167 23.0812L4.92161 23.0812C4.79042 22.9371 4.76719 22.7517 4.84114 22.5783C4.91414 22.407 5.05169 22.3125 5.22643 22.3125H9.02494H10.0249V21.3125V4.84375V3.84375H9.02494H4.16372L1.37501 1H12.3499C12.5663 1 12.7749 1.18435 12.7749 1.45312V21.3125V22.3125H13.7749H17.5729C17.7458 22.3125 17.8847 22.4069 17.9585 22.5788C18.0324 22.7512 18.0103 22.9356 17.8778 23.0812Z" stroke="url(#paint0_linear)" stroke-width="2"/>
<defs>
<linearGradient id="paint0_linear" x1="-4.53034e-05" y1="1.45232e-07" x2="16.5836" y2="29.6907" gradientUnits="userSpaceOnUse">
<stop stop-color="#FF7987"/>
<stop offset="1" stop-color="#3F92C6"/>
</linearGradient>
</defs>
</svg>
