<svg width="47" height="43" viewBox="0 0 47 43" fill="none" xmlns="http://www.w3.org/2000/svg">
<path d="M42.0797 3.9026C36.7738 -0.55873 28.5764 0.111387 23.5 5.27955C18.4236 0.111387 10.2262 -0.56791 4.92032 3.9026C-1.9828 9.71334 -0.973036 19.1868 3.94728 24.2081L20.0485 40.6122C20.9664 41.5485 22.1965 42.0717 23.5 42.0717C24.8127 42.0717 26.0336 41.5577 26.9516 40.6213L43.0527 24.2172C47.9639 19.196 48.992 9.72252 42.0797 3.9026ZM39.9133 21.1145L23.8121 37.5186C23.5918 37.7389 23.4082 37.7389 23.1879 37.5186L7.08673 21.1145C3.73614 17.6997 3.05685 11.2372 7.75685 7.28072C11.3277 4.27896 16.8356 4.72877 20.2871 8.24459L23.5 11.5217L26.7129 8.24459C30.1828 4.71041 35.6906 4.27896 39.2432 7.27154C43.934 11.228 43.2363 17.7272 39.9133 21.1145Z" fill="#FC7987"/>
</svg>
