<svg width="26" height="30" viewBox="0 0 26 30" fill="none" xmlns="http://www.w3.org/2000/svg">
<path fill-rule="evenodd" clip-rule="evenodd" d="M0.928571 5.62501C0.682299 5.62501 0.446113 5.52623 0.271972 5.35042C0.0978314 5.1746 0 4.93615 0 4.68751V2.81251C0 2.56387 0.0978314 2.32541 0.271972 2.14959C0.446113 1.97378 0.682299 1.87501 0.928571 1.87501H7.89286L8.43839 0.779307C8.552 0.544741 8.72876 0.34723 8.94841 0.209403C9.16807 0.0715755 9.42174 -0.000993469 9.68036 1.02731e-05H16.3138C16.573 -0.000177419 16.8272 0.0726631 17.0476 0.210337C17.268 0.348012 17.446 0.545057 17.5616 0.779307L18.1071 1.87501H25.0714C25.3177 1.87501 25.5539 1.97378 25.728 2.14959C25.9022 2.32541 26 2.56387 26 2.81251V4.68751C26 4.93615 25.9022 5.1746 25.728 5.35042C25.5539 5.52623 25.3177 5.62501 25.0714 5.62501H0.928571ZM24.1429 7.50001L22.9125 27.3632C22.8682 28.0773 22.5561 28.7474 22.0396 29.2373C21.5232 29.7271 20.8412 29.9999 20.1326 30H5.86741C5.15879 29.9999 4.47685 29.7271 3.96039 29.2373C3.44393 28.7474 3.13179 28.0773 3.0875 27.3632L1.85714 7.50001H24.1429ZM19.8874 11.5H6.11257L7.01072 26H18.9893L19.8874 11.5Z" fill="white"/>
</svg>
