<svg width="26" height="30" viewBox="0 0 26 30" fill="none" xmlns="http://www.w3.org/2000/svg">
<path fill-rule="evenodd" clip-rule="evenodd" d="M0.928571 5.62477C0.682299 5.62477 0.446113 5.52599 0.271972 5.35018C0.0978314 5.17436 0 4.93591 0 4.68727V2.81227C0 2.56363 0.0978314 2.32517 0.271972 2.14935C0.446113 1.97354 0.682299 1.87477 0.928571 1.87477H7.89286L8.43839 0.779063C8.552 0.544497 8.72876 0.346986 8.94841 0.209159C9.16807 0.0713314 9.42174 -0.00123761 9.68036 -0.000233868H16.3138C16.573 -0.00042156 16.8272 0.072419 17.0476 0.210093C17.268 0.347768 17.446 0.544813 17.5616 0.779063L18.1071 1.87477H25.0714C25.3177 1.87477 25.5539 1.97354 25.728 2.14935C25.9022 2.32517 26 2.56363 26 2.81227V4.68727C26 4.93591 25.9022 5.17436 25.728 5.35018C25.5539 5.52599 25.3177 5.62477 25.0714 5.62477H0.928571ZM24.1429 7.49977L22.9125 27.363C22.8682 28.0771 22.5561 28.7472 22.0396 29.2371C21.5232 29.7269 20.8412 29.9997 20.1326 29.9998H5.86741C5.15879 29.9997 4.47685 29.7269 3.96039 29.2371C3.44393 28.7472 3.13179 28.0771 3.0875 27.363L1.85714 7.49977H24.1429ZM19.8874 11.4998H6.11257L7.01072 25.9998H18.9893L19.8874 11.4998Z" fill="#FFF2D1"/>
</svg>
