<svg width="607" height="645" viewBox="0 0 607 645" fill="none" xmlns="http://www.w3.org/2000/svg">
<path d="M86.5283 173.09C69.4147 173.09 52.6855 168.014 38.456 158.505C24.2265 148.995 13.1359 135.479 6.58674 119.665C0.0375732 103.851 -1.67605 86.4493 1.66257 69.6612C5.00119 52.8732 13.2421 37.4523 25.3431 25.3487C37.4442 13.2452 52.862 5.00248 69.6467 1.66305C86.4315 -1.67638 103.829 0.0374307 119.64 6.58774C135.451 13.138 148.965 24.2307 158.473 38.4628C167.981 52.695 173.056 69.4276 173.056 86.5446C173.03 109.49 163.905 131.488 147.684 147.713C131.463 163.937 109.469 173.064 86.5283 173.09V173.09ZM86.5283 3.25769C70.0588 3.25761 53.9592 8.14226 40.2653 17.294C26.5714 26.4457 15.8983 39.4534 9.59569 54.6721C3.29305 69.8909 1.64397 86.6372 4.85699 102.793C8.07 118.95 16.0008 133.79 27.6465 145.438C39.2922 157.086 54.1297 165.018 70.2827 168.232C86.4357 171.446 103.179 169.796 118.395 163.492C133.61 157.189 146.615 146.513 155.765 132.817C164.915 119.12 169.799 103.017 169.799 86.5446C169.774 64.4633 160.993 43.2935 145.382 27.6796C129.771 12.0657 108.605 3.2828 86.5283 3.25769V3.25769Z" fill="#FF7987"/>
<path d="M81.7082 607.012C103.931 607.012 121.947 588.993 121.947 566.766C121.947 544.539 103.931 526.52 81.7082 526.52C59.4851 526.52 41.4697 544.539 41.4697 566.766C41.4697 588.993 59.4851 607.012 81.7082 607.012Z" fill="#FF7987"/>
<path d="M59.3558 581.683L59.314 580.178C62.1114 580.101 64.5777 579.925 66.4309 578.571C66.9563 578.165 67.3881 577.651 67.6971 577.063C68.006 576.476 68.1848 575.828 68.2213 575.166C68.2538 574.761 68.1926 574.353 68.0423 573.976C67.8919 573.598 67.6566 573.261 67.3545 572.989C66.6544 572.564 65.8526 572.337 65.0339 572.329C64.2152 572.322 63.4097 572.536 62.7021 572.948L61.4579 573.518L63.8437 556.079L65.3336 556.283L63.3041 571.118C64.1349 570.81 65.0296 570.714 65.9066 570.84C66.7836 570.967 67.615 571.31 68.3251 571.84C68.8028 572.258 69.1777 572.78 69.4204 573.366C69.663 573.952 69.7669 574.586 69.7239 575.218C69.68 576.109 69.4419 576.979 69.0263 577.768C68.6106 578.557 68.0275 579.246 67.3178 579.786C64.9367 581.526 61.8423 581.613 59.3558 581.683Z" fill="#333477"/>
<path d="M80.7992 557.563H72.7007V559.067H80.7992V557.563Z" fill="#333477"/>
<path d="M55.2366 557.563H47.1382V559.067H55.2366V557.563Z" fill="#333477"/>
<path d="M75.652 540.775C65.9437 547.438 51.0336 543.764 46.6336 532.506C45.5597 529.767 45.0806 526.83 45.2282 523.891C45.3757 520.952 46.1465 518.078 47.4895 515.46C49.0979 512.718 51.2877 510.363 53.9048 508.559C56.5219 506.755 59.5026 505.547 62.6369 505.019C70.9617 503.293 79.569 505.611 87.1785 508.976C87.4529 509.12 87.7646 509.175 88.0715 509.135C88.3784 509.096 88.6658 508.963 88.8949 508.755C96.1632 502.959 106.724 505.475 114.176 509.527C122.236 514.054 129.052 520.503 134.018 528.301C139.082 536.033 142.247 544.853 143.253 554.042C144.174 563.972 142.553 573.973 138.542 583.103C134.531 592.233 128.263 600.191 120.327 606.229C118.885 607.309 120.295 609.769 121.757 608.676C129.77 602.754 136.202 594.95 140.484 585.952C144.767 576.955 146.769 567.041 146.312 557.086C145.856 547.132 142.956 537.443 137.869 528.875C132.781 520.307 125.663 513.124 117.142 507.96C108.202 502.582 95.7438 499.693 86.8919 506.752L88.6082 506.53C80.9972 503.164 72.6583 500.787 64.2708 501.891C57.1462 502.829 50.1463 506.246 46.0613 512.332C44.267 515.125 43.0899 518.269 42.6088 521.554C42.1278 524.839 42.3539 528.189 43.2719 531.379C44.1673 534.533 45.7829 537.435 47.9914 539.858C50.1999 542.28 52.9409 544.156 55.9982 545.338C59.4238 546.706 63.1288 547.228 66.799 546.86C70.4692 546.491 73.9964 545.243 77.0817 543.221C78.5754 542.196 77.1603 539.739 75.652 540.774V540.775Z" fill="#FFF2D1"/>
<path d="M84.5224 139.289C106.459 139.289 124.242 121.503 124.242 99.5618C124.242 77.621 106.459 59.8345 84.5224 59.8345C62.5858 59.8345 44.8027 77.621 44.8027 99.5618C44.8027 121.503 62.5858 139.289 84.5224 139.289Z" fill="#FF7987"/>
<path d="M75.1458 116.239C72.5711 116.167 69.3668 116.078 66.8982 114.274C66.1631 113.715 65.5591 113.002 65.1285 112.185C64.698 111.368 64.4514 110.466 64.4058 109.544C64.3612 108.888 64.4688 108.231 64.7201 107.624C64.9715 107.017 65.3598 106.476 65.8547 106.044C66.5903 105.495 67.4516 105.139 68.36 105.008C69.2685 104.877 70.1953 104.976 71.0558 105.295L68.9536 89.9294L70.4968 89.7179L72.9681 107.782L71.6795 107.191C70.9466 106.764 70.1121 106.542 69.2639 106.55C68.4158 106.557 67.5854 106.794 66.8602 107.234C66.5472 107.515 66.3034 107.865 66.1477 108.256C65.992 108.648 65.9286 109.069 65.9625 109.489C66.0002 110.176 66.1854 110.846 66.5054 111.455C66.8255 112.063 67.2727 112.596 67.8169 113.016C69.738 114.42 72.2923 114.601 75.1891 114.682L75.1458 116.239Z" fill="#FFF2D1"/>
<path d="M61.3223 91.2543H52.9331V92.8122H61.3223V91.2543Z" fill="#FFF2D1"/>
<path d="M87.8038 91.2543H79.4146V92.8122H87.8038V91.2543Z" fill="#FFF2D1"/>
<path d="M88.2066 70.1955C83.3807 76.5078 75.7198 80.7422 67.623 79.7396C63.8661 79.3536 60.3274 77.7892 57.5133 75.27C54.6992 72.7508 52.7539 69.4059 51.9554 65.7139C51.2587 62.0755 51.4467 58.3228 52.5035 54.7723C53.5603 51.2217 55.4548 47.9773 58.0276 45.3123C63.4851 39.5711 71.2957 36.4827 79.0268 35.4237C86.3372 34.5635 93.7468 35.257 100.771 37.4588C107.795 39.6606 114.274 43.321 119.786 48.2005C125.347 52.9847 129.786 58.9356 132.787 65.6301C135.677 72.275 137.054 79.4798 136.817 86.7227C136.625 93.9262 134.974 101.016 131.965 107.563C128.955 114.111 124.649 119.979 119.307 124.815C117.964 125.99 116.558 127.091 115.095 128.114C113.862 128.98 112.693 126.955 113.916 126.096C119.359 122.12 123.944 117.085 127.394 111.293C130.845 105.502 133.09 99.0726 133.997 92.3918C135.012 85.697 134.559 78.8613 132.669 72.359C130.78 65.8567 127.498 59.8436 123.052 54.7367C118.563 49.6176 113.1 45.4445 106.98 42.4611C100.861 39.4778 94.2082 37.7441 87.4113 37.3613C73.7439 36.7652 56.6644 42.8682 54.1068 58.0852C52.9605 64.9057 55.5094 72.0749 61.7583 75.4896C65.0668 77.1544 68.7952 77.7989 72.4705 77.3413C76.1458 76.8837 79.6025 75.3447 82.4021 72.9193C83.8099 71.7678 85.0805 70.458 86.1891 69.016C87.0902 67.8373 89.1205 69.0001 88.2066 70.1955Z" fill="#FFF2D1"/>
<path d="M86.5283 401.388C69.4147 401.389 52.6855 396.313 38.456 386.803C24.2265 377.294 13.1359 363.777 6.58674 347.963C0.0375732 332.149 -1.67605 314.748 1.66257 297.96C5.00119 281.172 13.2421 265.751 25.3431 253.647C37.4442 241.544 52.862 233.301 69.6467 229.962C86.4315 226.622 103.829 228.336 119.64 234.886C135.451 241.437 148.965 252.529 158.473 266.761C167.981 280.994 173.056 297.726 173.056 314.843C173.03 337.788 163.905 359.786 147.684 376.011C131.463 392.236 109.469 401.362 86.5283 401.388V401.388ZM86.5283 231.556C70.0588 231.556 53.9592 236.441 40.2653 245.593C26.5714 254.744 15.8983 267.752 9.59569 282.971C3.29305 298.19 1.64397 314.936 4.85699 331.092C8.07 347.248 16.0008 362.089 27.6465 373.737C39.2922 385.385 54.1297 393.317 70.2827 396.531C86.4357 399.744 103.179 398.095 118.395 391.791C133.61 385.487 146.615 374.812 155.765 361.115C164.915 347.419 169.799 331.316 169.799 314.843C169.774 292.762 160.993 271.592 145.382 255.978C129.771 240.364 108.605 231.581 86.5283 231.556V231.556Z" fill="#4091C5"/>
<path d="M86.5284 645C69.4147 645 52.6854 639.924 38.4559 630.415C24.2264 620.905 13.1358 607.388 6.58669 591.574C0.0375452 575.76 -1.67607 558.359 1.66262 541.571C5.0013 524.783 13.2423 509.362 25.3435 497.259C37.4447 485.155 52.8625 476.912 69.6473 473.573C86.4321 470.234 103.83 471.948 119.641 478.498C135.452 485.049 148.966 496.141 158.474 510.373C167.981 524.606 173.056 541.338 173.056 558.455C173.03 581.4 163.905 603.398 147.684 619.623C131.462 635.848 109.469 644.974 86.5284 645ZM86.5284 475.168C70.0589 475.168 53.9594 480.052 40.2655 489.204C26.5716 498.356 15.8985 511.363 9.59584 526.582C3.29318 541.801 1.64399 558.547 4.85694 574.703C8.06989 590.859 16.0007 605.7 27.6463 617.348C39.2919 628.996 54.1293 636.928 70.2822 640.142C86.4352 643.356 103.178 641.706 118.394 635.403C133.61 629.099 146.615 618.424 155.765 604.727C164.915 591.031 169.799 574.928 169.799 558.456C169.774 536.374 160.993 515.204 145.382 499.59C129.771 483.976 108.606 475.193 86.5284 475.168Z" fill="#FF7987"/>
<path d="M80.6365 364.215C103.331 364.215 121.729 345.814 121.729 323.114C121.729 300.415 103.331 282.014 80.6365 282.014C57.9417 282.014 39.5439 300.415 39.5439 323.114C39.5439 345.814 57.9417 364.215 80.6365 364.215Z" fill="#4091C5"/>
<path d="M66.9646 340.368C64.3009 340.294 60.9859 340.201 58.4319 338.335C57.6714 337.757 57.0466 337.019 56.6012 336.174C56.1558 335.328 55.9005 334.396 55.8535 333.441C55.8073 332.763 55.9185 332.083 56.1786 331.455C56.4386 330.827 56.8403 330.267 57.3524 329.82C58.1134 329.252 59.0045 328.884 59.9444 328.748C60.8843 328.613 61.843 328.715 62.7333 329.045L60.5585 313.149L62.155 312.93L64.7118 331.619L63.3786 331.007C62.6203 330.565 61.757 330.336 60.8795 330.344C60.002 330.352 59.1429 330.596 58.3927 331.051C58.0689 331.343 57.8166 331.705 57.6556 332.109C57.4945 332.514 57.429 332.95 57.4639 333.385C57.503 334.095 57.6945 334.789 58.0256 335.418C58.3567 336.048 58.8195 336.599 59.3825 337.034C61.37 338.486 64.0125 338.673 67.0095 338.757L66.9646 340.368Z" fill="#333477"/>
<path d="M52.6606 314.52H43.9814V316.132H52.6606V314.52Z" fill="#333477"/>
<path d="M80.0575 314.52H71.3784V316.132H80.0575V314.52Z" fill="#333477"/>
<path d="M82.7081 365.498L111.131 354.463C115.778 352.659 120.452 350.91 125.075 349.043C127.056 348.353 128.88 347.278 130.443 345.879C131.803 344.438 132.731 342.643 133.119 340.7C133.892 336.42 134.14 332.062 133.856 327.723C133.801 323.07 133.419 318.427 132.71 313.829C131.469 305.187 128.554 296.87 124.129 289.345C116.158 276.264 102.425 266.423 86.6277 267.208C79.2047 267.466 72.1006 270.289 66.5251 275.198C65.9583 275.875 65.3224 276.492 64.6276 277.037C64.1447 277.218 63.6192 277.254 63.1164 277.139C62.4533 277.096 61.7896 277.063 61.1254 277.041C58.8209 276.944 56.5123 277.04 54.2239 277.33C50.0538 277.781 46.1014 279.423 42.8387 282.059C41.4112 283.195 40.2215 284.6 39.3374 286.196C38.4534 287.792 37.8923 289.546 37.6863 291.359C37.5765 293.041 37.8547 294.727 38.4993 296.285C39.1439 297.843 40.1378 299.232 41.4042 300.345C44.7952 303.203 49.6333 302.199 53.7008 301.983L68.602 301.194L76.1518 300.793C77.7064 300.711 77.7018 303.129 76.1518 303.211L56.085 304.275C52.8364 304.588 49.5727 304.721 46.3094 304.671C43.8296 304.558 41.4618 303.606 39.595 301.969C37.8902 300.403 36.6203 298.421 35.9091 296.218C35.1979 294.014 35.0697 291.664 35.537 289.396C36.1558 286.959 37.2792 284.678 38.8346 282.702C40.39 280.726 42.3427 279.098 44.5665 277.924C50.4372 274.612 57.4486 274.295 64.0176 274.784L63.163 275.139C70.5937 267.162 81.9758 263.794 92.6612 264.972C103.943 266.217 113.978 272.512 121.188 281.12C129.226 290.718 133.606 302.686 135.309 314.992C136.196 321.636 136.487 328.346 136.181 335.042C136.194 337.996 135.689 340.928 134.689 343.707C133.548 346.411 131.485 348.623 128.867 349.949C125.866 351.398 122.78 352.666 119.627 353.746L109.156 357.811L88.5865 365.796L83.3507 367.829C81.8997 368.392 81.2712 366.055 82.7081 365.497V365.498Z" fill="#FFF2D1"/>
<path d="M114.909 270.847C114.909 268.376 115.641 265.961 117.013 263.907C118.386 261.853 120.336 260.252 122.618 259.306C124.9 258.361 127.411 258.114 129.834 258.596C132.257 259.077 134.482 260.267 136.228 262.014C137.975 263.761 139.164 265.987 139.646 268.41C140.128 270.833 139.881 273.345 138.936 275.627C137.99 277.91 136.39 279.861 134.336 281.233C132.282 282.606 129.868 283.338 127.398 283.338C124.086 283.335 120.912 282.017 118.571 279.676C116.229 277.334 114.912 274.159 114.909 270.847V270.847ZM117.326 270.847C117.326 272.839 117.917 274.787 119.023 276.444C120.13 278.1 121.703 279.391 123.543 280.154C125.384 280.916 127.409 281.116 129.362 280.727C131.316 280.338 133.111 279.379 134.519 277.97C135.928 276.561 136.887 274.766 137.276 272.812C137.664 270.858 137.465 268.833 136.703 266.992C135.94 265.151 134.649 263.578 132.993 262.471C131.337 261.364 129.39 260.773 127.398 260.773C124.727 260.776 122.167 261.838 120.279 263.727C118.391 265.616 117.329 268.176 117.326 270.847Z" fill="#FFF2D1"/>
<path d="M593.375 122.872H309C305.448 122.872 302.041 121.46 299.529 118.948C297.017 116.435 295.606 113.028 295.606 109.474C295.606 105.921 297.017 102.514 299.529 100.001C302.041 97.4888 305.448 96.0774 309 96.0774H593.375C595.134 96.0774 596.876 96.4239 598.501 97.0972C600.126 97.7704 601.602 98.7573 602.846 100.001C604.09 101.245 605.077 102.722 605.75 104.348C606.423 105.973 606.769 107.715 606.769 109.474C606.769 111.234 606.423 112.976 605.75 114.601C605.077 116.227 604.09 117.704 602.846 118.948C601.602 120.192 600.126 121.178 598.501 121.852C596.876 122.525 595.134 122.872 593.375 122.872V122.872Z" fill="#FF7987"/>
<path d="M501.674 77.0122H309C305.448 77.0122 302.041 75.6007 299.529 73.0883C297.017 70.5758 295.606 67.1682 295.606 63.6151C295.606 60.062 297.017 56.6544 299.529 54.1419C302.041 51.6295 305.448 50.218 309 50.218H501.674C503.433 50.218 505.175 50.5646 506.8 51.2378C508.425 51.9111 509.902 52.8979 511.146 54.1419C512.39 55.386 513.376 56.8629 514.049 58.4883C514.722 60.1137 515.069 61.8558 515.069 63.6151C515.069 65.3744 514.722 67.1165 514.049 68.742C513.376 70.3674 512.39 71.8442 511.146 73.0883C509.902 74.3323 508.425 75.3191 506.8 75.9924C505.175 76.6656 503.433 77.0122 501.674 77.0122V77.0122Z" fill="#FF7987"/>
<path d="M593.375 351.17H309C305.448 351.17 302.041 349.758 299.529 347.246C297.017 344.733 295.606 341.326 295.606 337.773C295.606 334.22 297.017 330.812 299.529 328.3C302.041 325.787 305.448 324.376 309 324.376H593.375C596.927 324.376 600.334 325.787 602.846 328.3C605.358 330.812 606.769 334.22 606.769 337.773C606.769 341.326 605.358 344.733 602.846 347.246C600.334 349.758 596.927 351.17 593.375 351.17Z" fill="#4091C5"/>
<path d="M501.675 305.311H309.001C305.451 305.307 302.048 303.894 299.539 301.382C297.03 298.87 295.621 295.465 295.621 291.914C295.621 288.363 297.03 284.958 299.539 282.446C302.048 279.934 305.451 278.521 309.001 278.517H501.675C505.227 278.517 508.634 279.928 511.146 282.441C513.658 284.953 515.069 288.361 515.069 291.914C515.069 295.467 513.658 298.875 511.146 301.387C508.634 303.9 505.227 305.311 501.675 305.311V305.311Z" fill="#4091C5"/>
<path d="M593.375 594.782H309C305.448 594.782 302.041 593.371 299.529 590.858C297.017 588.346 295.606 584.938 295.606 581.385C295.606 577.832 297.017 574.424 299.529 571.912C302.041 569.399 305.448 567.988 309 567.988H593.375C596.927 567.988 600.334 569.399 602.846 571.912C605.358 574.424 606.769 577.832 606.769 581.385C606.769 584.938 605.358 588.346 602.846 590.858C600.334 593.371 596.927 594.782 593.375 594.782Z" fill="#FF7987"/>
<path d="M501.674 548.922H309C305.448 548.922 302.041 547.511 299.529 544.998C297.017 542.486 295.606 539.078 295.606 535.525C295.606 531.972 297.017 528.565 299.529 526.052C302.041 523.54 305.448 522.128 309 522.128H501.674C505.227 522.128 508.634 523.54 511.146 526.052C513.658 528.565 515.069 531.972 515.069 535.525C515.069 539.078 513.658 542.486 511.146 544.998C508.634 547.511 505.227 548.922 501.674 548.922Z" fill="#FF7987"/>
</svg>
