<svg width="455" height="358" viewBox="0 0 455 358" fill="none" xmlns="http://www.w3.org/2000/svg">
<path d="M304.515 132.935L181.671 10.0913C168.216 -3.36376 146.397 -3.36376 132.942 10.0913L10.0913 132.935C-3.36376 146.39 -3.36376 168.209 10.0913 181.664L132.935 304.515C146.39 317.97 168.209 317.97 181.664 304.515L304.515 181.671C317.97 168.209 317.97 146.39 304.515 132.935ZM67.4156 174.157C58.1108 174.157 50.5617 166.608 50.5617 157.303C50.5617 147.991 58.1108 140.449 67.4156 140.449C76.7203 140.449 84.2695 147.991 84.2695 157.303C84.2695 166.608 76.7203 174.157 67.4156 174.157ZM157.303 264.044C147.998 264.044 140.449 256.495 140.449 247.19C140.449 237.879 147.998 230.337 157.303 230.337C166.608 230.337 174.157 237.879 174.157 247.19C174.157 256.495 166.608 264.044 157.303 264.044ZM157.303 174.157C147.998 174.157 140.449 166.608 140.449 157.303C140.449 147.991 147.998 140.449 157.303 140.449C166.608 140.449 174.157 147.991 174.157 157.303C174.157 166.608 166.608 174.157 157.303 174.157ZM157.303 84.2695C147.998 84.2695 140.449 76.7203 140.449 67.4156C140.449 58.1038 147.998 50.5617 157.303 50.5617C166.608 50.5617 174.157 58.1038 174.157 67.4156C174.157 76.7203 166.608 84.2695 157.303 84.2695ZM247.19 174.157C237.886 174.157 230.337 166.608 230.337 157.303C230.337 147.991 237.886 140.449 247.19 140.449C256.495 140.449 264.044 147.991 264.044 157.303C264.044 166.608 256.495 174.157 247.19 174.157Z" fill="#4091C5"/>
<path d="M420.379 133.281H336.994C345.906 154.061 341.994 179.068 325.056 196.006L229.368 291.694V324.292C229.368 342.909 244.459 358 263.076 358H420.379C438.996 358 454.087 342.909 454.087 324.292V166.989C454.087 148.373 438.996 133.281 420.379 133.281ZM341.727 262.495C332.423 262.495 324.874 254.945 324.874 245.641C324.874 236.329 332.423 228.787 341.727 228.787C351.032 228.787 358.581 236.329 358.581 245.641C358.581 254.945 351.032 262.495 341.727 262.495Z" fill="#FF7987"/>
</svg>
