<svg width="624" height="320" viewBox="0 0 624 320" fill="none" xmlns="http://www.w3.org/2000/svg">
<path d="M475.021 114.867H403.372C401.804 114.871 400.255 114.519 398.843 113.836C397.432 113.154 396.195 112.159 395.227 110.927V110.927C394.241 109.684 393.552 108.232 393.214 106.683C392.875 105.134 392.894 103.529 393.271 101.989C399.875 74.3851 399.875 45.6178 393.271 18.0143C392.894 16.4742 392.875 14.8686 393.214 13.3198C393.553 11.771 394.241 10.3198 395.227 9.07652C396.195 7.8448 397.432 6.84973 398.843 6.16702C400.255 5.48431 401.804 5.13195 403.372 5.13677H475.021C477.495 5.14386 479.886 6.02706 481.768 7.62905C483.651 9.23104 484.902 11.4478 485.3 13.8845C490.015 44.4492 490.015 75.5541 485.3 106.119C484.902 108.556 483.651 110.772 481.768 112.374C479.886 113.976 477.495 114.86 475.021 114.867V114.867Z" fill="#E6E6E6"/>
<path d="M403.373 10.5169C402.62 10.5143 401.876 10.6833 401.198 11.0109C400.52 11.3386 399.925 11.8162 399.46 12.4075C398.981 13.0133 398.647 13.7202 398.483 14.4744C398.319 15.2286 398.329 16.0102 398.513 16.7597C405.315 45.188 405.315 74.8149 398.514 103.243C398.33 103.993 398.319 104.774 398.483 105.528C398.647 106.282 398.981 106.989 399.46 107.595L399.46 107.595C399.926 108.187 400.52 108.664 401.198 108.992C401.876 109.32 402.62 109.489 403.373 109.486H475.022C476.21 109.487 477.359 109.066 478.266 108.3C479.172 107.533 479.777 106.471 479.972 105.301C484.603 75.2783 484.603 44.7247 479.972 14.7018C479.777 13.5322 479.172 12.4697 478.266 11.7033C477.359 10.9369 476.21 10.5165 475.022 10.5169L403.373 10.5169Z" fill="white"/>
<path d="M459.387 36.3872H421.789C420.359 36.3857 418.989 35.8184 417.978 34.8097C416.968 33.8011 416.399 32.4336 416.398 31.0072V28.9047C416.399 27.4783 416.968 26.1108 417.978 25.1022C418.989 24.0935 420.359 23.5262 421.789 23.5247H459.387C460.816 23.5262 462.187 24.0935 463.197 25.1022C464.208 26.1108 464.776 27.4783 464.778 28.9047V31.0072C464.776 32.4336 464.208 33.8012 463.197 34.8098C462.187 35.8184 460.816 36.3857 459.387 36.3872Z" fill="#E6E6E6"/>
<path d="M459.387 62.9534H421.789C420.359 62.9518 418.989 62.3845 417.978 61.3759C416.968 60.3672 416.399 58.9997 416.398 57.5733V55.4709C416.399 54.0445 416.968 52.6769 417.978 51.6683C418.989 50.6597 420.359 50.0924 421.789 50.0908H459.387C460.816 50.0924 462.187 50.6597 463.197 51.6683C464.208 52.6769 464.776 54.0445 464.778 55.4709V57.5733C464.776 58.9997 464.208 60.3672 463.197 61.3759C462.187 62.3845 460.816 62.9518 459.387 62.9534Z" fill="#E6E6E6"/>
<path d="M459.387 89.5188H421.789C420.359 89.5172 418.989 88.9499 417.978 87.9413C416.968 86.9327 416.399 85.5651 416.398 84.1387V82.0363C416.399 80.6099 416.968 79.2423 417.978 78.2337C418.989 77.2251 420.359 76.6578 421.789 76.6562H459.387C460.816 76.6578 462.187 77.2251 463.197 78.2337C464.208 79.2423 464.776 80.6099 464.778 82.0363V84.1387C464.776 85.5651 464.208 86.9327 463.197 87.9413C462.187 88.9499 460.816 89.5172 459.387 89.5188V89.5188Z" fill="#E6E6E6"/>
<path d="M609.8 183.016H538.151C536.582 183.021 535.033 182.669 533.622 181.986C532.21 181.303 530.973 180.308 530.005 179.076V179.076C529.019 177.833 528.331 176.382 527.992 174.833C527.653 173.284 527.673 171.678 528.049 170.138C534.653 142.535 534.653 113.767 528.049 86.164C527.673 84.6238 527.653 83.0183 527.992 81.4695C528.331 79.9207 529.019 78.4694 530.005 77.2262C530.973 75.9945 532.21 74.9994 533.622 74.3167C535.033 73.634 536.582 73.2816 538.151 73.2864H609.8C612.274 73.2935 614.664 74.1767 616.547 75.7787C618.429 77.3807 619.68 79.5975 620.078 82.0342C624.793 112.599 624.793 143.704 620.078 174.268C619.68 176.705 618.429 178.922 616.547 180.524C614.664 182.126 612.274 183.009 609.8 183.016Z" fill="#E6E6E6"/>
<path d="M538.15 78.6665C537.396 78.664 536.652 78.833 535.974 79.1606C535.296 79.4882 534.702 79.9658 534.237 80.5572C533.758 81.163 533.424 81.8699 533.26 82.6241C533.096 83.3782 533.106 84.1598 533.29 84.9094C540.091 113.338 540.092 142.965 533.291 171.393C533.106 172.142 533.096 172.924 533.26 173.678C533.424 174.432 533.758 175.139 534.237 175.744L534.237 175.745C534.702 176.336 535.297 176.814 535.974 177.142C536.652 177.469 537.396 177.638 538.15 177.636H609.799C610.987 177.636 612.136 177.216 613.043 176.449C613.949 175.683 614.554 174.62 614.748 173.451C619.38 143.428 619.38 112.874 614.748 82.8515C614.554 81.6819 613.949 80.6193 613.043 79.8529C612.136 79.0865 610.987 78.6661 609.799 78.6665L538.15 78.6665Z" fill="white"/>
<path d="M466.935 260.582H395.286C393.649 260.587 392.033 260.219 390.561 259.507C389.088 258.795 387.797 257.757 386.787 256.472C385.759 255.175 385.041 253.662 384.688 252.047C384.334 250.432 384.355 248.757 384.748 247.151C391.335 219.616 391.334 190.921 384.747 163.386C384.355 161.78 384.334 160.106 384.688 158.491C385.041 156.876 385.759 155.363 386.787 154.066C387.797 152.781 389.088 151.743 390.56 151.031C392.033 150.318 393.649 149.951 395.286 149.956H466.935C469.516 149.963 472.01 150.885 473.974 152.557C475.937 154.228 477.242 156.541 477.657 159.083C482.379 189.693 482.379 220.844 477.657 251.454C477.242 253.997 475.937 256.31 473.974 257.981C472.01 259.653 469.516 260.574 466.935 260.582V260.582Z" fill="#F2F2F2"/>
<path d="M594.164 117.988H556.566C555.136 117.986 553.766 117.419 552.755 116.41C551.745 115.402 551.176 114.034 551.175 112.608V110.505C551.176 109.079 551.745 107.711 552.755 106.703C553.766 105.694 555.136 105.127 556.566 105.125H594.164C595.593 105.127 596.964 105.694 597.974 106.703C598.985 107.711 599.553 109.079 599.555 110.505V112.608C599.553 114.034 598.985 115.402 597.974 116.41C596.964 117.419 595.593 117.986 594.164 117.988V117.988Z" fill="#E6E6E6"/>
<path d="M594.164 144.554H556.566C555.136 144.552 553.766 143.985 552.755 142.976C551.745 141.968 551.176 140.6 551.175 139.174V137.071C551.176 135.645 551.745 134.278 552.755 133.269C553.766 132.26 555.136 131.693 556.566 131.691H594.164C595.593 131.693 596.964 132.26 597.974 133.269C598.985 134.278 599.553 135.645 599.555 137.071V139.174C599.553 140.6 598.985 141.968 597.974 142.976C596.964 143.985 595.593 144.552 594.164 144.554V144.554Z" fill="#E6E6E6"/>
<path d="M431.31 225.523C442.723 225.523 451.976 216.289 451.976 204.898C451.976 193.508 442.723 184.274 431.31 184.274C419.896 184.274 410.644 193.508 410.644 204.898C410.644 216.289 419.896 225.523 431.31 225.523Z" fill="white"/>
<path d="M441.195 202.209H434.007V195.035C434.007 194.321 433.723 193.637 433.218 193.133C432.712 192.628 432.027 192.345 431.312 192.345C430.597 192.345 429.911 192.628 429.406 193.133C428.9 193.637 428.616 194.321 428.616 195.035V202.209H421.428C420.713 202.209 420.027 202.492 419.522 202.996C419.016 203.501 418.732 204.185 418.732 204.899C418.732 205.612 419.016 206.296 419.522 206.801C420.027 207.305 420.713 207.589 421.428 207.589H428.616V214.763C428.616 215.476 428.9 216.16 429.406 216.665C429.911 217.169 430.597 217.453 431.312 217.453C432.027 217.453 432.712 217.169 433.218 216.665C433.723 216.16 434.007 215.476 434.007 214.763V207.589H441.195C441.91 207.589 442.596 207.305 443.101 206.801C443.607 206.296 443.891 205.612 443.891 204.899C443.891 204.185 443.607 203.501 443.101 202.996C442.596 202.492 441.91 202.209 441.195 202.209V202.209Z" fill="#E6E6E6"/>
<path d="M457.367 15.2441H419.629C418.557 15.2429 417.53 14.8174 416.772 14.0609C416.014 13.3044 415.587 12.2787 415.586 11.2089V4.0352C415.587 2.96537 416.014 1.9397 416.772 1.18321C417.53 0.426728 418.557 0.00120568 419.629 0H457.367C458.439 0.00120568 459.467 0.426728 460.225 1.18321C460.983 1.9397 461.409 2.96537 461.41 4.0352V11.2089C461.409 12.2787 460.983 13.3044 460.225 14.0609C459.467 14.8174 458.439 15.2429 457.367 15.2441Z" fill="#CCCCCC"/>
<path d="M593.942 84.2907H556.204C555.132 84.2895 554.105 83.864 553.346 83.1075C552.588 82.351 552.162 81.3254 552.161 80.2555V73.0818C552.162 72.012 552.588 70.9863 553.346 70.2299C554.105 69.4734 555.132 69.0478 556.204 69.0466H593.942C595.014 69.0478 596.042 69.4734 596.8 70.2299C597.558 70.9863 597.984 72.012 597.985 73.0818V80.2555C597.984 81.3254 597.558 82.351 596.8 83.1075C596.042 83.864 595.014 84.2895 593.942 84.2907Z" fill="#CCCCCC"/>
<path opacity="0.2" d="M222.036 245.11L222.537 215.582L238.209 184.133L225.63 216.415L222.036 245.11Z" fill="black"/>
<path d="M364.161 319.214L297.995 291.778C296.545 291.182 295.25 290.264 294.209 289.093C293.168 287.922 292.408 286.529 291.988 285.021C291.556 283.496 291.478 281.892 291.76 280.332C292.043 278.771 292.678 277.296 293.618 276.018C310.329 253.056 321.388 226.49 325.902 198.471C326.147 196.904 326.746 195.414 327.654 194.114C328.563 192.813 329.757 191.737 331.145 190.966C332.512 190.199 334.037 189.754 335.603 189.664C337.169 189.574 338.735 189.842 340.182 190.447L406.347 217.882C408.629 218.836 410.497 220.567 411.619 222.767C412.742 224.967 413.045 227.494 412.475 229.896C405.079 259.927 393.121 288.651 377.015 315.071C375.711 317.169 373.704 318.737 371.349 319.496C368.995 320.254 366.448 320.154 364.161 319.214Z" fill="#E6E6E6"/>
<path d="M338.113 195.415C337.419 195.124 336.667 194.995 335.915 195.038C335.163 195.081 334.43 195.295 333.773 195.663C333.098 196.039 332.518 196.563 332.076 197.197C331.635 197.831 331.344 198.556 331.226 199.319C326.577 228.176 315.187 255.535 297.977 279.184C297.519 279.805 297.208 280.523 297.07 281.282C296.932 282.041 296.968 282.822 297.178 283.564L297.178 283.565C297.38 284.289 297.745 284.958 298.245 285.52C298.745 286.082 299.367 286.523 300.064 286.809L366.229 314.245C367.326 314.7 368.549 314.752 369.681 314.391C370.813 314.031 371.78 313.281 372.409 312.275C388.229 286.324 399.975 258.109 407.241 228.61C407.51 227.455 407.361 226.243 406.818 225.188C406.276 224.133 405.376 223.305 404.279 222.85L338.113 195.415Z" fill="white"/>
<path d="M373.344 256.487L338.623 242.09C337.304 241.542 336.257 240.493 335.711 239.175C335.166 237.856 335.167 236.376 335.714 235.058L336.522 233.116C337.072 231.8 338.122 230.754 339.443 230.21C340.764 229.666 342.248 229.666 343.569 230.212L378.289 244.609C379.609 245.158 380.656 246.206 381.201 247.525C381.747 248.843 381.746 250.324 381.199 251.642L380.391 253.583C379.841 254.9 378.79 255.945 377.469 256.489C376.148 257.034 374.665 257.033 373.344 256.487V256.487Z" fill="#FF7987"/>
<path d="M363.13 281.02L328.41 266.623C327.09 266.074 326.043 265.026 325.497 263.707C324.952 262.389 324.953 260.908 325.5 259.59L326.308 257.649C326.858 256.332 327.908 255.287 329.23 254.742C330.551 254.198 332.034 254.199 333.355 254.745L368.076 269.142C369.395 269.69 370.442 270.739 370.988 272.057C371.533 273.376 371.532 274.856 370.985 276.174L370.177 278.116C369.627 279.432 368.577 280.478 367.255 281.022C365.934 281.566 364.451 281.566 363.13 281.02V281.02Z" fill="#FF7987"/>
<path d="M387.256 222.009C386.737 222.009 386.222 221.908 385.74 221.713L350.754 207.596C349.761 207.194 348.968 206.415 348.549 205.43C348.13 204.446 348.12 203.335 348.521 202.343L351.215 195.692C351.617 194.7 352.398 193.908 353.385 193.49C354.372 193.072 355.485 193.063 356.479 193.464L391.466 207.58C392.459 207.983 393.252 208.761 393.671 209.746C394.089 210.731 394.099 211.841 393.699 212.834L391.004 219.485C390.702 220.229 390.184 220.867 389.516 221.317C388.848 221.767 388.062 222.008 387.256 222.009V222.009Z" fill="#CCCCCC"/>
<path d="M305.782 116.142C305.782 127.389 303.12 136.648 298.503 144.579C296.979 147.191 295.249 149.678 293.33 152.014C276.357 172.792 244.801 184.164 216.28 202.585C132.093 256.958 122.974 169.831 126.776 116.142C128.31 94.4785 136.739 74.6346 150.13 59.4408C152.942 56.2452 155.98 53.2559 159.22 50.4958C174.423 37.5374 194.064 29.6958 216.28 29.6958C254.396 29.6958 286.946 52.7057 299.851 85.1306C303.775 94.9978 305.787 105.522 305.782 116.142V116.142Z" fill="#4091C5"/>
<path d="M235.349 49.178L150.129 59.4405C152.942 56.245 155.98 53.2556 159.22 50.4956L235.349 49.178Z" fill="#FF7987"/>
<path d="M298.504 144.579C296.98 147.191 295.25 149.678 293.33 152.014L220.333 143.226L298.504 144.579Z" fill="#FF7987"/>
<path d="M302.83 94.0471L179.115 77.9866L299.852 85.131C301.012 88.0446 302.006 91.0213 302.83 94.0471V94.0471Z" fill="#FF7987"/>
<path d="M135.169 52.7226C135.169 52.9432 135.162 53.1607 135.143 53.375C135.046 54.703 134.655 55.9928 133.997 57.1503C133.339 58.3078 132.432 59.3038 131.341 60.0659C130.25 60.828 129.003 61.337 127.69 61.5557C126.378 61.7744 125.034 61.6974 123.755 61.3303C122.476 60.9632 121.295 60.3151 120.298 59.4335C119.301 58.5518 118.513 57.4586 117.991 56.2336C117.47 55.0085 117.228 53.6825 117.283 52.3521C117.338 51.0216 117.689 49.7202 118.311 48.5427C118.503 48.1737 118.723 47.8199 118.969 47.4842C120.039 45.9989 121.538 44.8778 123.264 44.2721C124.991 43.6663 126.861 43.6051 128.624 44.0966C130.386 44.5881 131.955 45.6087 133.12 47.0208C134.284 48.4328 134.988 50.1684 135.137 51.9934C135.159 52.2333 135.169 52.4763 135.169 52.7226Z" fill="#637AFF"/>
<path d="M135.169 52.7228C135.169 52.9435 135.163 53.161 135.143 53.3752L121.749 51.7634L135.137 51.9937C135.159 52.2335 135.169 52.4766 135.169 52.7228Z" fill="#D0CDE1"/>
<path d="M131.973 57.2349L119.582 58.7283C119.23 58.3359 118.913 57.9132 118.636 57.4651L131.973 57.2349Z" fill="#D0CDE1"/>
<path d="M128.459 47.3213L118.311 48.5429C118.503 48.1739 118.723 47.8201 118.969 47.4844L128.459 47.3213Z" fill="#D0CDE1"/>
<path d="M257.779 213.944C257.676 214.138 257.569 214.328 257.451 214.508C256.744 215.635 255.794 216.591 254.671 217.305C253.548 218.019 252.28 218.473 250.959 218.634C249.638 218.795 248.298 218.66 247.037 218.237C245.775 217.815 244.623 217.116 243.666 216.192C242.708 215.267 241.968 214.141 241.501 212.894C241.033 211.648 240.849 210.312 240.962 208.985C241.075 207.659 241.482 206.374 242.154 205.225C242.826 204.075 243.746 203.09 244.846 202.342C245.189 202.106 245.549 201.897 245.923 201.716C247.564 200.906 249.413 200.619 251.222 200.894C253.031 201.169 254.712 201.992 256.038 203.253C257.365 204.514 258.273 206.152 258.64 207.946C259.008 209.739 258.817 211.603 258.093 213.284C258 213.507 257.895 213.726 257.779 213.944Z" fill="#637AFF"/>
<path d="M257.779 213.943C257.676 214.138 257.568 214.327 257.451 214.508L246.375 206.8L258.093 213.284C258 213.507 257.895 213.726 257.779 213.943Z" fill="#D0CDE1"/>
<path d="M252.843 216.431L241.198 211.936C241.071 211.425 240.989 210.903 240.954 210.377L252.843 216.431Z" fill="#D0CDE1"/>
<path d="M254.382 206.025L244.846 202.342C245.189 202.107 245.549 201.897 245.923 201.716L254.382 206.025Z" fill="#D0CDE1"/>
<path d="M321.145 59.5826C321.299 59.7405 321.446 59.9007 321.581 60.0675C322.439 61.0859 323.058 62.2828 323.395 63.5711C323.731 64.8594 323.776 66.2066 323.527 67.5146C323.278 68.8226 322.74 70.0584 321.953 71.1321C321.166 72.2058 320.15 73.0903 318.978 73.7211C317.806 74.352 316.509 74.7133 315.18 74.7788C313.851 74.8444 312.525 74.6124 311.297 74.0999C310.069 73.5873 308.97 72.8071 308.082 71.816C307.193 70.8249 306.537 69.648 306.16 68.3708C306.04 67.9722 305.951 67.5651 305.893 67.153C305.623 65.3421 305.914 63.4918 306.727 61.8517C307.541 60.2116 308.837 58.8606 310.442 57.9809C312.046 57.1013 313.882 56.7353 315.7 56.9324C317.519 57.1294 319.234 57.88 320.613 59.0829C320.796 59.239 320.973 59.4063 321.145 59.5826Z" fill="#637AFF"/>
<path d="M321.144 59.5827C321.298 59.7407 321.445 59.9008 321.581 60.0676L310.867 68.2739L320.612 59.083C320.796 59.2391 320.972 59.4064 321.144 59.5827Z" fill="#D0CDE1"/>
<path d="M322.004 65.0461L314.175 74.7744C313.65 74.7393 313.128 74.6578 312.617 74.531L322.004 65.0461Z" fill="#D0CDE1"/>
<path d="M312.574 60.4045L306.161 68.3707C306.041 67.9721 305.952 67.565 305.894 67.1529L312.574 60.4045Z" fill="#D0CDE1"/>
<path d="M153.3 224.601C153.3 224.601 172.933 225.42 172.933 230.333C172.933 235.245 150.846 230.333 150.846 230.333L153.3 224.601Z" fill="#C4809A"/>
<path d="M123.851 299.929L87.0384 297.472L85.4022 277.822L77.2218 295.016L41.2275 290.103C42.0456 258.99 55.1344 228.695 55.9524 224.602C56.7705 220.508 58.7257 203.592 58.7257 203.592C62.3005 196.002 81.0338 195.29 95.7179 195.977C101.804 196.256 107.203 196.78 110.533 197.156C112.733 197.402 114.034 197.582 114.034 197.582C119.899 203.633 123.679 211.878 126.002 221.089C134.379 254.274 123.851 299.929 123.851 299.929Z" fill="#333477"/>
<path d="M82.9488 109.974C94.2437 109.974 103.4 100.809 103.4 89.5042C103.4 78.1993 94.2437 69.0349 82.9488 69.0349C71.6539 69.0349 62.4976 78.1993 62.4976 89.5042C62.4976 100.809 71.6539 109.974 82.9488 109.974Z" fill="#C4809A"/>
<path d="M69.0416 94.4165C69.0416 94.4165 63.3152 119.798 54.3167 127.167C45.3181 134.536 89.4929 127.167 89.4929 127.167C89.4929 127.167 79.6763 110.792 87.0387 103.423C94.4012 96.054 69.0416 94.4165 69.0416 94.4165Z" fill="#C4809A"/>
<path d="M110.762 199.219L97.1903 200.726L59.2246 204.951C59.2246 204.951 59.0447 204.468 58.7257 203.592C55.9688 196.067 42.6919 159.452 41.2275 148.455C39.5914 136.174 56.7705 121.436 56.7705 121.436C56.7705 121.436 73.1315 118.161 78.0398 118.161C82.9481 118.161 102.581 125.53 102.581 125.53L109.903 191.449L110.533 197.156L110.762 199.219Z" fill="#FFF2D1"/>
<path opacity="0.15" d="M126.003 221.089L98.4918 204.951C98.4918 204.951 98.009 203.379 97.191 200.726C96.782 199.399 96.2831 197.795 95.7186 195.977C92.5445 185.775 87.219 168.941 82.9488 156.643C76.4044 137.811 108.308 190.213 108.308 190.213L109.904 191.449L110.533 197.156C112.734 197.402 114.035 197.582 114.035 197.582C119.9 203.633 123.68 211.878 126.003 221.089Z" fill="black"/>
<path d="M89.4916 127.168C89.4916 127.168 81.3111 137.812 87.8555 156.643C94.3999 175.475 103.398 204.951 103.398 204.951L150.845 232.789L157.39 224.601L113.215 190.213C113.215 190.213 111.579 127.986 103.398 125.53C95.2179 123.074 89.4916 127.168 89.4916 127.168Z" fill="#FFF2D1"/>
<path d="M48.998 198.81C48.998 198.81 60.4507 222.554 65.359 220.098C70.2673 217.642 53.0883 193.078 53.0883 193.078L48.998 198.81Z" fill="#C4809A"/>
<path d="M47.7718 133.718L4.41518 169.744C4.41518 169.744 -11.9458 181.207 18.322 189.394C48.5899 197.582 51.044 202.495 51.044 202.495C51.044 202.495 54.3163 191.851 58.4065 193.488L23.2303 176.294L51.8621 159.1L47.7718 133.718Z" fill="#FFF2D1"/>
<path d="M30.3462 106.304C32.6217 105.176 37.6466 102.9 41.9268 100.158C41.6266 91.2358 42.7243 83.1368 45.9375 78.8437C47.741 74.745 51.5284 70.6414 54.4947 67.4097C61.7792 59.4737 77.8868 55.0438 80.7436 59.009C102.351 59.4359 104.626 76.3881 104.626 76.3881C104.514 83.4787 97.1508 83.7031 90.7009 83.4447C91.2784 88.2854 89.7392 93.3152 85.2819 95.5458C76.7584 99.8114 74.2013 105.357 78.4631 109.196C82.7249 113.035 90.3961 123.272 80.1678 125.831C69.9395 128.391 68.6609 133.509 71.6442 135.642C74.6275 137.775 64.8253 131.803 64.8253 131.803C64.8253 131.803 63.1206 142.04 54.1709 139.481C53.3688 139.252 52.5672 138.664 51.7791 137.785C49.362 140.443 47.2056 142.015 45.5805 142.024C36.2727 142.073 37.3889 131.755 37.3889 131.755C37.3889 131.755 26.3411 134.86 29.7884 133.611C33.2357 132.363 33.3834 127.089 24.2233 121.864C15.0632 116.639 25.2081 108.851 30.3462 106.304Z" fill="#333477"/>
<path d="M144.548 133.05L144.399 133.03L144.761 134.408C145.103 136.329 145.6 138.22 146.247 140.061L156.863 180.455C157.202 181.744 157.91 182.906 158.899 183.798C159.889 184.691 161.117 185.275 162.433 185.479L184.084 188.831C185.484 189.048 186.916 188.824 188.184 188.191C189.451 187.558 190.491 186.547 191.16 185.297L211.735 146.832C212.378 145.766 212.965 144.668 213.495 143.542L214.194 142.236L214.085 142.221C216.266 137.057 217.226 131.459 216.89 125.862C216.554 120.266 214.932 114.822 212.149 109.957C209.366 105.091 205.498 100.934 200.846 97.8105C196.194 94.6868 190.885 92.6805 185.331 91.948C179.778 91.2156 174.13 91.7767 168.829 93.5877C163.527 95.3987 158.715 98.4107 154.768 102.389C150.821 106.367 147.845 111.204 146.072 116.522C144.299 121.84 143.777 127.497 144.548 133.05H144.548Z" fill="#333477"/>
<path d="M185.411 191.471C185.03 191.471 184.649 191.441 184.272 191.383L161.641 187.878C160.204 187.656 158.863 187.018 157.782 186.044C156.702 185.069 155.929 183.8 155.56 182.392L144.462 140.17C143.784 138.237 143.263 136.252 142.904 134.235L142.623 132.388C141.868 126.487 142.494 120.491 144.451 114.874C146.408 109.256 149.643 104.171 153.9 100.019C158.158 95.8676 163.321 92.7632 168.982 90.9512C174.644 89.1392 180.649 88.6691 186.523 89.5782L186.425 90.2103C180.615 89.3141 174.676 89.7894 169.082 91.5983C163.488 93.4071 158.393 96.4995 154.205 100.629C150.017 104.758 146.851 109.809 144.96 115.38C143.068 120.952 142.504 126.888 143.312 132.716L143.527 134.098C143.884 136.098 144.401 138.066 145.073 139.982L156.178 182.229C156.516 183.517 157.222 184.677 158.21 185.569C159.198 186.46 160.425 187.043 161.739 187.246L184.37 190.751C185.768 190.966 187.198 190.742 188.463 190.11C189.729 189.478 190.767 188.468 191.436 187.221L192 187.523C191.36 188.715 190.41 189.712 189.25 190.407C188.09 191.102 186.763 191.47 185.411 191.471Z" fill="#FFF2D1"/>
<path d="M191.152 142.232L177.382 179.863L178.158 180.148L191.929 142.516L191.152 142.232Z" fill="#FFF2D1"/>
<path d="M168.668 138.75L167.843 138.786L169.6 178.823L170.426 178.787L168.668 138.75Z" fill="#FFF2D1"/>
<path d="M183.498 210.613L154.499 206.122C154.284 206.088 154.09 205.969 153.962 205.792C153.833 205.616 153.78 205.395 153.813 205.179C153.847 204.963 153.964 204.769 154.14 204.639C154.316 204.51 154.536 204.455 154.752 204.487L183.751 208.977C183.859 208.994 183.962 209.031 184.056 209.087C184.149 209.143 184.23 209.217 184.295 209.305C184.359 209.393 184.406 209.493 184.432 209.599C184.458 209.704 184.463 209.814 184.446 209.922C184.429 210.03 184.392 210.133 184.335 210.227C184.278 210.32 184.204 210.401 184.116 210.465C184.027 210.529 183.928 210.575 183.822 210.6C183.716 210.626 183.606 210.63 183.498 210.613V210.613Z" fill="#333477"/>
<path d="M184.242 204.449L155.243 199.958C155.135 199.942 155.031 199.905 154.938 199.849C154.845 199.793 154.763 199.719 154.699 199.631C154.634 199.543 154.587 199.443 154.561 199.337C154.535 199.231 154.531 199.121 154.547 199.014C154.564 198.906 154.602 198.802 154.658 198.709C154.715 198.616 154.79 198.535 154.878 198.471C154.966 198.407 155.066 198.361 155.172 198.335C155.278 198.31 155.388 198.306 155.495 198.323L184.494 202.813C184.602 202.829 184.706 202.867 184.799 202.923C184.892 202.979 184.974 203.053 185.038 203.141C185.103 203.229 185.149 203.329 185.175 203.435C185.201 203.54 185.206 203.65 185.19 203.758C185.173 203.866 185.135 203.969 185.078 204.062C185.022 204.156 184.947 204.237 184.859 204.301C184.771 204.365 184.671 204.411 184.565 204.436C184.459 204.462 184.349 204.466 184.242 204.449V204.449Z" fill="#333477"/>
<path d="M184.986 198.285L155.987 193.795C155.771 193.761 155.578 193.642 155.45 193.465C155.321 193.288 155.268 193.068 155.301 192.852C155.335 192.636 155.452 192.442 155.628 192.312C155.804 192.183 156.024 192.128 156.24 192.16L185.239 196.65C185.454 196.685 185.648 196.804 185.776 196.98C185.904 197.157 185.958 197.378 185.924 197.594C185.891 197.81 185.774 198.004 185.598 198.133C185.422 198.263 185.202 198.318 184.986 198.285H184.986Z" fill="#333477"/>
<path d="M168.098 214.199C173.85 215.09 179.009 212.603 179.621 208.645L158.791 205.42C158.179 209.378 162.346 213.309 168.098 214.199Z" fill="#333477"/>
<path d="M178.521 134.304C177.284 134.112 176.26 133.133 175.699 132.477C175.515 132.262 175.336 132.039 175.156 131.815C174.503 131.001 173.885 130.232 173.026 129.831C171.129 128.945 168.894 130.183 166.959 131.51L166.491 130.828C168.619 129.368 171.1 128.019 173.376 129.081C174.409 129.564 175.117 130.445 175.8 131.297C175.975 131.514 176.148 131.73 176.327 131.939C176.91 132.621 178.074 133.726 179.321 133.472C179.847 133.318 180.335 133.059 180.758 132.71C181.079 132.47 181.419 132.256 181.774 132.069C182.494 131.723 183.3 131.598 184.091 131.71C184.881 131.822 185.621 132.165 186.218 132.697C186.43 132.899 186.631 133.112 186.821 133.335C187.192 133.76 187.543 134.16 188 134.306C188.676 134.522 189.39 134.135 190.147 133.727C190.927 133.305 191.733 132.87 192.648 132.977C192.678 132.981 192.708 132.985 192.738 132.989C194.366 133.241 195.116 135.044 195.541 136.389L194.753 136.638C194.176 134.809 193.473 133.9 192.552 133.799C191.896 133.722 191.237 134.078 190.539 134.455C189.664 134.928 188.759 135.416 187.749 135.094C187.074 134.879 186.629 134.372 186.199 133.881C186.03 133.68 185.85 133.489 185.66 133.308C185.185 132.891 184.599 132.623 183.974 132.534C183.349 132.446 182.712 132.542 182.141 132.81C181.825 132.978 181.522 133.171 181.235 133.386C180.722 133.805 180.126 134.11 179.487 134.282C179.169 134.347 178.842 134.354 178.521 134.304Z" fill="#FFF2D1"/>
</svg>
