<svg width="515" height="375" viewBox="0 0 515 375" fill="none" xmlns="http://www.w3.org/2000/svg">
<path d="M220.714 350.704C317.248 350.704 395.505 272.197 395.505 175.352C395.505 78.5079 317.248 0 220.714 0C124.18 0 45.9233 78.5079 45.9233 175.352C45.9233 272.197 124.18 350.704 220.714 350.704Z" fill="white"/>
<path d="M69.354 375C107.657 375 138.708 370.016 138.708 363.868C138.708 357.719 107.657 352.735 69.354 352.735C31.0508 352.735 0 357.719 0 363.868C0 370.016 31.0508 375 69.354 375Z" fill="white"/>
<path d="M407.689 363.684C466.955 363.684 515 355.972 515 346.459C515 336.946 466.955 329.234 407.689 329.234C348.423 329.234 300.378 336.946 300.378 346.459C300.378 355.972 348.423 363.684 407.689 363.684Z" fill="white"/>
<path d="M383.846 180.892C383.846 180.892 384.76 183.947 379.583 186.697C374.406 189.447 372.883 199.834 378.974 202.889C385.064 205.945 386.892 209.916 383.846 212.666C380.801 215.416 375.319 222.748 382.628 224.581C389.937 226.414 390.851 230.08 388.719 231.608C386.587 233.135 393.591 228.858 393.591 228.858C393.591 228.858 394.81 236.191 401.205 234.358C407.6 232.524 425.568 197.696 416.432 192.807C407.296 187.919 383.846 180.892 383.846 180.892Z" fill="#333477"/>
<path d="M394.884 210.393C394.884 210.393 398.043 221.485 392.515 222.277C389.084 222.814 385.833 224.173 383.038 226.239L393.305 239.707H412.259L424.105 227.823C424.105 227.823 408.31 215.939 411.469 208.808C414.628 201.678 394.884 210.393 394.884 210.393Z" fill="#C4809A"/>
<path opacity="0.1" d="M394.884 210.393C394.884 210.393 398.043 221.485 392.515 222.277C389.084 222.814 385.833 224.173 383.038 226.239L393.305 239.707H412.259L424.105 227.823C424.105 227.823 408.31 215.939 411.469 208.808C414.628 201.678 394.884 210.393 394.884 210.393Z" fill="#41428D"/>
<path d="M399.623 348.25L417.787 354.588L430.422 355.38L429.633 344.288L403.571 336.556L399.623 348.25Z" fill="#C4809A"/>
<path d="M422.92 345.873C422.92 345.873 422.92 356.965 424.499 356.965C426.079 356.965 447.402 354.588 453.72 356.965C460.038 359.341 469.515 350.626 464.776 345.873C460.038 341.119 452.309 333.989 447.486 335.573C442.663 337.158 422.92 341.119 422.92 341.119V345.873Z" fill="#41428D"/>
<path d="M364.874 335.573C364.874 335.573 355.397 354.588 361.715 356.172C368.033 357.757 375.141 355.38 375.93 354.588C376.72 353.796 387.777 350.627 389.356 352.211C390.935 353.796 390.936 345.873 390.936 345.873L364.874 335.573Z" fill="#41428D"/>
<path d="M372.771 309.428C372.771 309.428 357.766 330.027 368.823 335.573C379.879 341.119 432.792 341.119 436.741 335.573C440.689 330.027 442.269 312.597 436.741 311.013C431.212 309.428 372.771 309.428 372.771 309.428Z" fill="#333477"/>
<path opacity="0.2" d="M372.771 309.428C372.771 309.428 357.766 330.027 368.823 335.573C379.879 341.119 432.792 341.119 436.741 335.573C440.689 330.027 442.269 312.597 436.741 311.013C431.212 309.428 372.771 309.428 372.771 309.428Z" fill="#4091C5"/>
<path d="M401.202 215.939C411.234 215.939 419.366 207.781 419.366 197.717C419.366 187.653 411.234 179.494 401.202 179.494C391.17 179.494 383.038 187.653 383.038 197.717C383.038 207.781 391.17 215.939 401.202 215.939Z" fill="#C4809A"/>
<path d="M372.771 226.239L388.566 223.07C388.566 223.07 392.515 235.746 405.151 233.369C417.787 230.992 420.946 223.07 420.946 223.07C420.946 223.07 430.423 227.031 431.212 227.031C432.002 227.031 442.269 230.992 442.269 233.369C442.269 235.746 430.423 259.514 430.423 259.514L432.002 302.297L373.561 300.713L377.51 258.722L372.771 226.239Z" fill="#FFF2D1"/>
<path d="M364.084 246.838C364.084 246.838 359.346 288.829 362.505 291.998C365.664 295.167 378.299 303.882 378.299 303.882V294.375L371.981 282.49L378.299 254.761L364.084 246.838Z" fill="#C4809A"/>
<path d="M445.823 245.649C445.823 245.649 443.058 288.829 443.058 290.413C443.058 291.998 435.951 297.544 433.582 297.544C431.212 297.544 429.633 293.582 429.633 293.582L435.161 287.244L431.212 254.761L445.823 245.649Z" fill="#C4809A"/>
<path d="M438.32 306.259C438.32 306.259 473.858 286.452 474.648 306.259C475.438 326.066 456.484 333.989 456.484 333.989C456.484 333.989 407.52 348.718 405.546 343.334C403.571 337.95 399.623 329.235 402.782 328.443C405.94 327.65 409.889 326.066 411.469 327.65C413.048 329.235 432.792 315.766 432.792 315.766L438.32 306.259Z" fill="#4091C5"/>
<path opacity="0.2" d="M454.905 303.882C454.905 303.882 447.797 307.051 445.428 309.428C443.058 311.805 432.792 315.766 432.792 315.766" stroke="#41428D" stroke-width="2" stroke-miterlimit="10"/>
<path d="M377.51 227.823L372.771 226.239C372.771 226.239 355.397 244.461 360.925 249.215C366.453 253.968 369.612 255.553 371.192 257.138C372.771 258.722 380.669 259.514 380.669 259.514L377.51 227.823Z" fill="#FFF2D1"/>
<path d="M435.161 231.785L442.269 233.369C442.269 233.369 447.797 245.253 449.377 246.838C450.956 248.423 447.007 247.63 444.638 250.799C442.269 253.969 439.9 259.514 435.161 259.514C430.423 259.514 424.105 251.592 424.105 251.592L435.161 231.785Z" fill="#FFF2D1"/>
<path d="M374.351 313.389C374.351 313.389 344.341 291.998 334.074 307.843C323.807 323.689 378.3 345.081 386.197 348.25C394.095 351.419 401.202 354.588 401.202 354.588C401.202 354.588 408.31 337.158 408.31 333.989C408.31 330.82 402.782 330.82 401.202 330.82C399.623 330.82 392.515 329.235 390.936 326.858C389.356 324.481 374.351 313.389 374.351 313.389Z" fill="#4091C5"/>
<path opacity="0.2" d="M357.766 307.844C357.766 307.844 365.664 314.182 372.771 315.766C379.879 317.351 382.248 321.312 382.248 321.312" stroke="#41428D" stroke-width="2" stroke-miterlimit="10"/>
<path d="M368.903 278.054L369.534 311.6C369.555 312.708 370.011 313.762 370.804 314.534C371.597 315.306 372.662 315.732 373.766 315.719L435.993 315.018C437.053 315.006 438.069 314.591 438.836 313.856C439.603 313.122 440.063 312.123 440.125 311.061L442.013 278.217C442.046 277.646 441.962 277.074 441.767 276.537C441.572 276 441.27 275.508 440.878 275.092C440.487 274.676 440.015 274.345 439.492 274.119C438.968 273.892 438.404 273.775 437.834 273.775H373.088C372.532 273.775 371.981 273.887 371.468 274.103C370.955 274.319 370.49 274.635 370.101 275.034C369.711 275.432 369.404 275.904 369.199 276.423C368.993 276.941 368.893 277.496 368.903 278.054V278.054Z" fill="#41428D"/>
<path d="M402.173 174.826C402.173 174.826 403.185 178.21 397.449 181.256C391.714 184.302 390.027 195.81 396.775 199.194C403.522 202.579 405.546 206.978 402.173 210.024C398.799 213.071 392.726 221.193 400.823 223.224C408.92 225.255 409.932 229.316 407.57 231.008C405.209 232.701 412.968 227.962 412.968 227.962C412.968 227.962 414.318 236.085 421.402 234.054C428.487 232.024 435.556 195.11 427.658 185.603C420.315 176.763 402.173 174.826 402.173 174.826Z" fill="#333477"/>
<path d="M400.018 171.342C400.019 166.383 414.806 169.946 421.146 176.869C425.536 181.664 432.205 188.876 426.617 193.961C421.029 199.045 436.195 205.71 440.262 207.73C444.33 209.751 452.36 215.931 445.109 220.076C437.858 224.222 437.975 228.406 440.704 229.397C443.433 230.388 434.687 227.924 434.687 227.924C434.687 227.924 435.571 236.111 428.203 236.072C420.835 236.033 399.696 195.41 404.746 184.118C409.441 173.619 400.018 171.342 400.018 171.342Z" fill="#333477"/>
<path d="M403.221 170.255C383.446 169.061 381.462 183.993 381.462 183.993C381.598 192.635 395.278 188.424 399.077 189.713C403.66 186.405 412.496 180.146 418.814 175.679C414.227 172.438 408.823 170.559 403.221 170.255Z" fill="#333477"/>
<path d="M397.587 265.543C397.587 265.543 379.849 182.145 268.826 121.646" stroke="#333477" stroke-width="2" stroke-miterlimit="10"/>
<path d="M273.4 119.828L273.623 120.742L269.132 121.835L270.547 126.248L269.653 126.536L267.931 121.159L273.4 119.828Z" fill="#333477"/>
<path d="M32.0872 350.757C32.0872 361.319 25.8283 365.008 18.1069 365.008C17.928 365.008 17.7494 365.006 17.5711 365.002C17.2133 364.994 16.859 364.977 16.5089 364.953C9.54043 364.458 4.12646 360.58 4.12646 350.757C4.12646 340.59 17.0762 327.762 18.0489 326.813L18.0506 326.811C18.0881 326.775 18.1069 326.757 18.1069 326.757C18.1069 326.757 32.0872 340.194 32.0872 350.757Z" fill="#FFF2D1"/>
<path d="M17.5973 363.392L22.7106 356.224L17.5845 364.179L17.5709 365.002C17.2131 364.994 16.8588 364.977 16.5087 364.953L17.0598 354.385L17.0555 354.303L17.0649 354.288L17.1169 353.29L11.978 345.315L17.133 352.541L17.145 352.753L17.5615 344.768L13.162 336.528L17.6152 343.367L18.0487 326.813L18.0504 326.757V326.811L17.978 339.865L22.3579 334.69L17.9601 340.99L17.8443 348.139L21.9337 341.278L17.8273 349.19L17.7625 353.165L23.6995 343.616L17.7404 354.552L17.5973 363.392Z" fill="#333477"/>
<path d="M98.7698 348.02L101.76 345.792C101.76 345.792 103.74 356.885 101.531 358.547C99.322 360.209 91.0385 362.979 91.0385 366.303C91.0385 369.627 72.2624 374.059 71.7102 369.073C71.158 364.087 73.3669 361.317 73.3669 361.317C73.3669 361.317 82.2027 352.452 83.3072 350.79C84.4116 349.128 87.1728 345.804 87.1728 345.804L98.7698 348.02Z" fill="#333477"/>
<path d="M54.5913 210.072C54.5913 210.072 54.6742 210.559 54.8177 211.451C54.9503 212.243 55.1325 213.362 55.3534 214.742C57.6728 228.941 64.4377 270.741 63.9793 272.121C63.4271 273.783 59.5614 279.877 63.9793 281.539C64.4046 281.7 64.8629 282.22 65.3544 283.04C66.303 284.806 67.0851 286.657 67.6903 288.569C70.3245 296.237 73.141 308.508 74.77 317.007C75.4824 320.741 75.9683 323.744 76.1119 325.317C76.1618 325.68 76.1674 326.049 76.1285 326.414C75.5763 328.63 79.4419 336.386 81.0986 338.602C82.7553 340.818 85.5165 343.034 84.9643 345.25C84.412 347.466 98.7702 353.56 100.427 349.682C102.084 345.804 102.084 343.588 102.636 342.48C103.188 341.372 103.74 333.616 100.979 332.508C98.218 331.4 99.8747 312.01 97.1135 308.132C96.1913 306.841 94.7831 302.469 93.3086 297.212C92.7288 295.151 92.1434 292.957 91.569 290.758C89.2386 281.744 87.1732 272.675 87.1732 272.675L87.7255 207.856L57.3525 203.978L56.5739 205.701L55.0221 209.119L54.5913 210.072Z" fill="#41428D"/>
<path d="M52.9344 316.442C52.9344 316.442 48.5165 312.01 46.3076 316.442C44.0986 320.874 41.8897 338.048 38.024 341.926C34.1584 345.804 29.1883 365.195 34.7106 366.303C40.233 367.411 46.3076 364.641 46.8598 361.316C47.4121 357.992 59.009 340.818 59.009 339.156C59.009 337.494 51.2777 331.4 51.2777 331.4L52.9344 316.442Z" fill="#333477"/>
<path d="M120.86 179.601C120.86 179.601 113.681 244.42 112.024 250.514C110.367 256.609 101.531 279.877 98.7702 283.755C96.009 287.633 78.3375 319.212 76.1285 320.874C73.9196 322.536 69.5017 326.968 69.5017 326.968C69.5017 326.968 61.2182 335.278 60.1137 336.94C59.0092 338.602 49.6212 333.616 49.069 330.292C48.5167 326.968 49.6212 321.428 50.1734 319.212C50.7257 316.996 49.069 313.672 50.7257 312.01C52.3824 310.348 60.6659 302.037 60.6659 298.159C60.6659 294.281 75.0241 271.567 80.5464 266.581C86.0688 261.595 84.9643 253.285 84.9643 253.285V219.49L54.5913 210.072C54.5913 210.072 56.248 183.479 60.1137 183.479C63.9793 183.479 114.785 174.615 120.86 179.601Z" fill="#41428D"/>
<path d="M76.1281 87.0815C86.1928 87.0815 94.3519 78.8962 94.3519 68.7992C94.3519 58.7021 86.1928 50.5168 76.1281 50.5168C66.0634 50.5168 57.9043 58.7021 57.9043 68.7992C57.9043 78.8962 66.0634 87.0815 76.1281 87.0815Z" fill="#C4809A"/>
<path d="M82.2027 83.2035C82.2027 83.2035 84.4116 91.5137 87.1728 93.7297C89.934 95.9458 79.9938 105.364 79.9938 105.364L61.2177 106.472L57.9043 95.9458C57.9043 95.9458 63.9789 83.7576 62.3222 76.0014C60.6655 68.2453 82.2027 83.2035 82.2027 83.2035Z" fill="#C4809A"/>
<path d="M89.9344 92.6216C89.9344 92.6216 84.9643 93.1756 83.8598 94.8376C82.7554 96.4997 75.024 101.486 68.9494 100.378C62.8748 99.2697 59.0092 97.6077 57.9047 98.1617C56.8003 98.7157 54.5913 110.35 54.5913 110.35L60.6659 128.078L59.5614 176.831L57.9047 190.127C57.9047 190.127 54.5913 185.695 67.845 188.465C81.0986 191.235 98.218 186.249 103.74 185.695C109.263 185.141 118.651 183.479 119.203 180.155C119.755 176.831 117.546 164.643 117.546 164.643L108.71 127.524L103.188 107.58L89.9344 92.6216Z" fill="#FFF2D1"/>
<path d="M84.7104 90.1213C84.7104 90.1213 89.3818 87.6357 91.0385 89.8517C92.6952 92.0677 113.68 95.3918 113.68 97.0538C113.68 98.7159 118.098 143.591 116.994 147.469C115.889 151.347 119.202 155.779 119.202 155.779L123.068 172.399C123.068 172.399 133.561 203.978 129.143 205.086C124.725 206.194 120.859 205.086 119.202 205.086C117.546 205.086 118.098 184.033 113.68 178.493C109.262 172.953 103.188 159.103 102.083 156.333C100.979 153.563 87.1728 115.336 87.725 110.904C88.2773 106.472 84.7104 90.1213 84.7104 90.1213Z" fill="#FF7987"/>
<path d="M61.7701 92.6216C61.7701 92.6216 57.3522 92.6216 56.8 93.7296C56.2477 94.8376 50.7254 102.04 48.5164 103.702C46.3075 105.364 38.5762 112.566 38.5762 114.228C38.5762 115.89 54.591 128.078 54.591 128.078C54.591 128.078 61.2178 160.765 57.9044 171.845C54.591 182.925 49.6209 209.518 51.8298 211.18C54.0388 212.842 59.0089 213.396 59.0089 211.18C59.0089 208.964 62.3223 185.141 65.0835 180.155C67.8447 175.169 76.1282 143.59 72.8148 134.726C69.5014 125.862 61.7701 92.6216 61.7701 92.6216Z" fill="#FF7987"/>
<path d="M134.665 147.469C134.665 147.469 135.218 164.643 129.143 173.507C123.068 182.371 119.203 192.344 119.203 192.344C119.203 192.344 109.262 189.574 107.606 186.249C105.949 182.925 95.4565 185.695 95.4565 184.587C95.4565 183.479 108.158 177.939 109.262 176.831C110.367 175.723 114.233 175.723 116.442 173.507C118.65 171.291 119.203 166.305 119.203 166.305L121.412 151.901L134.665 147.469Z" fill="#C4809A"/>
<path d="M88.68 57.5268C90.082 57.399 91.5279 57.2584 92.767 56.5881C95.5433 55.086 96.2795 50.8086 94.166 48.4595C93.5833 47.8618 92.9315 47.336 92.2245 46.8934L88.0268 44.027C86.1702 42.7593 84.2698 41.4707 82.1044 40.8731C80.1459 40.3326 78.0774 40.3881 76.05 40.5146C72.1144 40.76 68.1543 41.2669 64.4526 42.6301C60.7509 43.9933 57.2978 46.2739 55.0559 49.5282C51.5017 54.6873 51.4528 61.6453 53.4104 67.6012C55.3679 73.5572 59.0863 78.7436 62.7502 83.8249L64.6514 74.5191C64.8207 73.6902 65.0397 72.7818 65.7268 72.2912C67.4347 71.072 69.5238 73.5753 71.6199 73.5591C72.9667 73.5487 74.0974 72.4373 74.6078 71.1869C75.1182 69.9365 75.1518 68.5518 75.2699 67.2058C75.52 64.355 76.5133 60.3882 79.2044 58.816C81.7122 57.3509 85.8613 57.7836 88.68 57.5268Z" fill="#333477"/>
<path opacity="0.1" d="M87.6577 210.519C87.6577 210.519 85.7926 264.642 84.6881 266.304C83.5837 267.966 84.6881 210.349 84.6881 210.349L87.6577 210.519Z" fill="#41428D"/>
<path d="M109.263 97.0537H113.681C113.681 97.0537 132.457 122.538 130.248 124.2C128.039 125.862 130.248 130.294 130.248 130.294L134.666 138.604C134.666 138.604 140.188 143.591 138.531 144.699C136.875 145.807 134.666 150.239 134.666 150.239C134.666 150.239 123.621 148.577 120.307 155.225L113.145 146.154L109.263 97.0537Z" fill="#FF7987"/>
<path d="M110.824 105.251L95.6646 111.531L107.33 139.872L122.49 133.592L110.824 105.251Z" fill="#333477"/>
<path d="M109.047 121.873C110.722 121.179 111.564 119.366 110.929 117.823C110.294 116.279 108.421 115.591 106.747 116.284C105.072 116.978 104.23 118.792 104.865 120.335C105.5 121.878 107.373 122.567 109.047 121.873Z" fill="#FFF2D1"/>
<path d="M98.2179 141.374C98.2179 141.374 58.4569 174.615 51.8301 164.089C45.2032 153.563 59.0091 144.699 59.0091 144.699C59.0091 144.699 71.1583 145.253 84.9642 136.388L98.7701 130.294C98.7701 130.294 111.374 112.242 115.669 119.116C119.964 125.99 108.337 137.954 98.2179 141.374Z" fill="#C4809A"/>
<path d="M44.6507 112.012L38.5761 114.228V130.848L36.3672 134.172C36.3672 134.172 36.9194 140.82 38.5761 142.483C40.2328 144.145 43.5463 143.591 42.4418 147.469C41.778 149.997 41.5907 152.627 41.8895 155.225C41.8895 155.225 51.8298 167.967 52.382 166.305C52.9343 164.643 60.6656 144.145 61.77 144.145C62.8745 144.145 50.7253 112.012 50.7253 112.012H44.6507Z" fill="#FF7987"/>
<path d="M117.27 195.945C117.27 195.945 122.98 190.404 120.125 190.127C117.27 189.85 107.33 184.31 105.673 187.08C104.016 189.85 117.27 195.945 117.27 195.945Z" fill="#333477"/>
<path d="M225.869 90.2618C230.269 90.2618 233.835 88.3675 233.835 86.0308C233.835 83.6941 230.269 81.7998 225.869 81.7998C221.469 81.7998 217.903 83.6941 217.903 86.0308C217.903 88.3675 221.469 90.2618 225.869 90.2618Z" fill="#4091C5"/>
<path d="M256.328 100.134C238.365 93.3281 220.402 93.3281 202.438 100.134V78.0389C220.01 72.7194 238.756 72.7194 256.328 78.0389V100.134Z" stroke="#333477" stroke-width="2" stroke-miterlimit="10"/>
<path d="M248.831 95.5648C235.866 90.6525 222.901 90.6525 209.937 95.5648V79.6177C222.619 75.7785 236.149 75.7785 248.831 79.6177V95.5648Z" stroke="#333477" stroke-width="2" stroke-miterlimit="10"/>
<path d="M228.681 88.3815C233.08 88.3815 236.647 86.4872 236.647 84.1505C236.647 81.8137 233.08 79.9194 228.681 79.9194C224.281 79.9194 220.714 81.8137 220.714 84.1505C220.714 86.4872 224.281 88.3815 228.681 88.3815Z" stroke="#333477" stroke-width="2" stroke-miterlimit="10"/>
<path d="M231.727 116.759C236.037 115.876 239.154 113.305 238.689 111.015C238.223 108.726 234.351 107.585 230.04 108.468C225.729 109.351 222.612 111.922 223.078 114.212C223.544 116.501 227.416 117.642 231.727 116.759Z" fill="#4091C5"/>
<path d="M263.539 120.321C244.582 117.256 226.981 120.86 210.737 131.133L206.333 109.484C222.49 100.746 240.857 96.9855 259.134 98.6723L263.539 120.321Z" stroke="#333477" stroke-width="2" stroke-miterlimit="10"/>
<path d="M255.282 117.348C241.6 115.136 228.897 117.737 217.173 125.151L213.994 109.526C225.655 103.22 238.911 100.506 252.103 101.723L255.282 117.348Z" stroke="#333477" stroke-width="2" stroke-miterlimit="10"/>
<path d="M234.106 114.353C238.417 113.47 241.534 110.898 241.069 108.609C240.603 106.319 236.731 105.179 232.42 106.061C228.109 106.944 224.992 109.516 225.458 111.805C225.923 114.095 229.796 115.235 234.106 114.353Z" stroke="#333477" stroke-width="2" stroke-miterlimit="10"/>
<path d="M237.178 139.466C237.34 137.135 233.913 134.997 229.524 134.691C225.135 134.384 221.446 136.026 221.284 138.357C221.122 140.688 224.549 142.826 228.938 143.132C233.327 143.439 237.017 141.797 237.178 139.466Z" fill="#4091C5"/>
<path d="M258.641 155.102C241.192 147.061 223.272 145.81 204.881 151.349L206.41 129.307C224.308 125.224 243.009 126.53 260.17 133.06L258.641 155.102Z" stroke="#333477" stroke-width="2" stroke-miterlimit="10"/>
<path d="M251.478 150.022C238.884 144.218 225.951 143.315 212.677 147.313L213.781 131.404C226.698 128.457 240.195 129.4 252.581 134.113L251.478 150.022Z" stroke="#333477" stroke-width="2" stroke-miterlimit="10"/>
<path d="M240.113 137.786C240.275 135.455 236.848 133.317 232.459 133.011C228.07 132.704 224.381 134.346 224.219 136.677C224.057 139.008 227.484 141.146 231.873 141.452C236.262 141.759 239.952 140.117 240.113 137.786Z" stroke="#333477" stroke-width="2" stroke-miterlimit="10"/>
<path d="M194.436 100.647C194.436 100.647 159.995 95.9203 135.399 110.38" stroke="#333477" stroke-width="2" stroke-miterlimit="10"/>
<path d="M136.228 105.521L137.122 105.805L135.724 110.224L140.22 111.3L140.001 112.215L134.526 110.903L136.228 105.521Z" fill="#333477"/>
</svg>
