<svg width="720" height="472" viewBox="0 0 720 472" fill="none" xmlns="http://www.w3.org/2000/svg">
<g filter="url(#filter0_d_11_675)">
<path d="M653.419 462.628L633.083 400.945C633.083 400.945 655.451 423.428 655.451 441.875L651.437 399.216C651.437 399.216 662.907 414.781 661.76 438.416C660.613 462.051 653.419 462.628 653.419 462.628Z" fill="#FFF2D1"/>
<path d="M216.718 406.463L196.871 346.263C196.871 346.263 218.701 368.205 218.701 386.209L214.783 344.576C214.783 344.576 225.978 359.766 224.858 382.833C223.739 405.9 216.718 406.463 216.718 406.463Z" fill="#FFF2D1"/>
<path d="M526.487 434.242C526.521 473.843 448.379 461.662 352.715 461.745C257.05 461.828 180.09 474.143 180.056 434.543C180.022 394.943 258.136 386.262 353.8 386.179C449.464 386.096 526.453 394.642 526.487 434.242Z" fill="#4091C5"/>
<path d="M716 461.722H4V463.534H716V461.722Z" fill="#FFF2D1"/>
<path d="M459.442 380.762H446.935L440.983 332.275H459.442V380.762Z" fill="#C4809A"/>
<path d="M436.613 377.171H462.123V392.435H422.815V391.039C422.815 387.361 424.269 383.833 426.857 381.233C429.444 378.632 432.954 377.171 436.613 377.171V377.171Z" fill="#333477"/>
<path d="M551.371 452.327H538.864L532.912 403.839H551.371V452.327Z" fill="#C4809A"/>
<path d="M528.542 448.735H554.052V464H514.744V462.604C514.744 458.925 516.198 455.398 518.786 452.797C521.373 450.196 524.883 448.735 528.542 448.735V448.735Z" fill="#333477"/>
<path d="M609.06 308.28C609.925 307.226 610.549 305.994 610.889 304.671C611.229 303.348 611.276 301.967 611.027 300.624C610.778 299.28 610.24 298.009 609.449 296.897C608.658 295.786 607.634 294.863 606.45 294.192L577.402 175.257L558.829 183.288L593.38 298.289C592.391 300.364 592.193 302.73 592.825 304.941C593.456 307.152 594.872 309.053 596.805 310.285C598.738 311.516 601.053 311.992 603.312 311.623C605.57 311.253 607.616 310.064 609.06 308.28V308.28Z" fill="#C4809A"/>
<path d="M586.405 67.9082C585.368 66.8189 584.107 65.9714 582.709 65.4252C581.311 64.879 579.811 64.6476 578.315 64.7471C576.818 64.8466 575.362 65.2747 574.048 66.0013C572.734 66.7278 571.594 67.7351 570.709 68.9522L525.749 74.1403L532.589 91.5707L573.477 83.879C575.61 85.2375 578.164 85.7625 580.656 85.3545C583.148 84.9465 585.405 83.6338 586.998 81.6652C588.592 79.6966 589.412 77.2088 589.302 74.6733C589.193 72.1378 588.162 69.7307 586.405 67.9082V67.9082Z" fill="#C4809A"/>
<path d="M512.314 295.945L531.933 443.943L556.351 438.89C556.351 438.89 552.76 331.107 564.969 318.113C577.179 305.12 549.266 282.357 549.266 282.357L512.314 295.945Z" fill="#333477"/>
<path d="M520.426 255.181L511.413 268.769C511.413 268.769 442.015 239.781 442.015 285.981C442.015 332.18 438.044 363.533 436.608 365.698C435.171 367.864 453.225 373.483 461.843 372.04C461.843 372.04 472.475 297.559 471.757 293.228C471.757 293.228 539.833 326.776 552.76 323.888C565.688 321.001 568.742 310.779 570.896 305.004C573.051 299.229 569.995 253.369 569.995 253.369L526.906 240.152L520.426 255.181Z" fill="#333477"/>
<path d="M521.641 173.597L519.072 170.498C519.072 170.498 490.301 105.43 501.604 87.8723C512.907 70.3144 562.23 67.7323 563.771 68.7651C565.313 69.7979 560.09 83.2074 563.686 89.4044C563.686 89.4044 525.478 97.7305 522.909 98.7634C520.34 99.7962 542.706 137.964 542.706 137.964L540.137 161.203L521.641 173.597Z" fill="#FFF2D1"/>
<path d="M571.992 141.579C571.992 141.579 545.275 144.677 544.248 144.677C543.22 144.677 542.706 137.964 542.706 137.964L519.072 170.498C519.072 170.498 507.429 264.883 510.511 263.334C513.594 261.784 570.45 270.682 570.964 266.55C571.478 262.419 570.45 241.763 571.992 240.73C573.533 239.697 598.708 175.662 598.708 175.662C598.708 175.662 596.139 162.235 587.405 157.588C578.671 152.94 571.992 141.579 571.992 141.579Z" fill="#FFF2D1"/>
<path d="M590.488 166.883L598.708 175.662C598.708 175.662 610.922 276.541 604.243 279.639C597.564 282.738 584.415 282.357 584.415 282.357L571.478 234.533L590.488 166.883Z" fill="#FFF2D1"/>
<path d="M546.319 135.191C559.379 135.191 569.967 124.549 569.967 111.421C569.967 98.294 559.379 87.6521 546.319 87.6521C533.258 87.6521 522.67 98.294 522.67 111.421C522.67 124.549 533.258 135.191 546.319 135.191Z" fill="#C4809A"/>
<path d="M540.769 115.13C540.45 110.198 534.26 110.029 529.342 109.983C524.425 109.936 518.547 110.112 515.765 106.037C513.926 103.344 514.277 99.605 515.796 96.7175C517.315 93.83 519.814 91.6092 522.272 89.4728C528.618 83.957 535.158 78.485 542.778 74.9546C550.397 71.4241 559.325 69.9976 567.227 72.8316C576.934 76.313 590.055 94.2339 591.189 104.53C592.322 114.826 588.228 125.322 581.327 133.016C574.426 140.71 558.631 137.606 548.691 140.343C554.734 131.747 550.751 116.126 541.071 112.112L540.769 115.13Z" fill="#333477"/>
<path d="M330.007 422.588C361.361 422.588 386.777 397.041 386.777 365.527C386.777 334.014 361.361 308.467 330.007 308.467C298.654 308.467 273.237 334.014 273.237 365.527C273.237 397.041 298.654 422.588 330.007 422.588Z" fill="#FF7987"/>
<path d="M292.095 304.412C284.227 304.413 276.528 302.121 269.929 297.814C263.33 293.508 258.114 287.371 254.913 280.147L164.83 76.2405C161.846 69.4861 160.268 62.1896 160.192 54.7996C160.117 47.4096 161.546 40.0821 164.392 33.2677C167.237 26.4532 171.44 20.2957 176.74 15.1736C182.04 10.0515 188.327 6.0731 195.213 3.48287C202.1 0.892645 209.44 -0.254662 216.784 0.111482C224.128 0.477627 231.319 2.34948 237.917 5.61199C244.514 8.8745 250.378 13.4587 255.149 19.0829C259.919 24.7071 263.494 31.2524 265.655 38.3164L330.886 251.572C332.753 257.676 333.171 264.135 332.104 270.431C331.037 276.727 328.517 282.683 324.744 287.822C320.972 292.96 316.053 297.138 310.383 300.019C304.713 302.901 298.449 304.405 292.095 304.412H292.095Z" fill="#FF7987"/>
</g>
<defs>
<filter id="filter0_d_11_675" x="0" y="0" width="720" height="472" filterUnits="userSpaceOnUse" color-interpolation-filters="sRGB">
<feFlood flood-opacity="0" result="BackgroundImageFix"/>
<feColorMatrix in="SourceAlpha" type="matrix" values="0 0 0 0 0 0 0 0 0 0 0 0 0 0 0 0 0 0 127 0" result="hardAlpha"/>
<feOffset dy="4"/>
<feGaussianBlur stdDeviation="2"/>
<feComposite in2="hardAlpha" operator="out"/>
<feColorMatrix type="matrix" values="0 0 0 0 0 0 0 0 0 0 0 0 0 0 0 0 0 0 0.25 0"/>
<feBlend mode="normal" in2="BackgroundImageFix" result="effect1_dropShadow_11_675"/>
<feBlend mode="normal" in="SourceGraphic" in2="effect1_dropShadow_11_675" result="shape"/>
</filter>
</defs>
</svg>
