<svg width="225" height="258" viewBox="0 0 225 258" fill="none" xmlns="http://www.w3.org/2000/svg">
<g filter="url(#filter0_d_22_478)">
<path d="M38.8812 233.354C39.0336 239.047 39.9867 244.69 41.7124 250.117C41.7506 250.243 41.7931 250.367 41.8344 250.493H52.3991C52.388 250.38 52.3765 250.254 52.3654 250.117C51.6611 242.013 55.6852 193.282 60.5412 184.848C60.1157 185.532 38.062 207.606 38.8812 233.354Z" fill="#FFF2D1"/>
<path d="M39.6738 250.116C39.7622 250.242 39.854 250.368 39.9482 250.492H47.8741C47.814 250.385 47.7444 250.259 47.6636 250.116C46.3544 247.752 42.4791 240.682 38.8819 233.353C35.0176 225.477 31.4694 217.303 31.7682 214.344C31.6756 215.011 29.0005 235.353 39.6738 250.116Z" fill="#FFF2D1"/>
<path d="M168.141 241.785C168.219 244.677 168.703 247.544 169.58 250.301C169.599 250.365 169.621 250.428 169.642 250.492H175.009C175.003 250.435 174.998 250.371 174.992 250.301C174.634 246.184 176.679 221.426 179.146 217.141C178.93 217.488 167.725 228.703 168.141 241.785Z" fill="#FFF2D1"/>
<path d="M168.545 250.301C168.59 250.365 168.636 250.429 168.684 250.492H172.711C172.68 250.438 172.645 250.374 172.604 250.301C171.939 249.1 169.97 245.508 168.142 241.785C166.179 237.783 164.376 233.63 164.528 232.127C164.481 232.466 163.122 242.801 168.545 250.301Z" fill="#FFF2D1"/>
<path d="M136.365 76.8918L122.702 86.6162L131.203 87.5273L143.045 77.5006L136.365 76.8918Z" fill="#FFF2D1"/>
<path d="M82.9117 242.928L91.1291 242.927L95.0385 211.211L82.9102 211.211L82.9117 242.928Z" fill="#9F616A"/>
<path d="M80.8159 240.243L96.9991 240.242H96.9998C99.735 240.242 102.358 241.33 104.292 243.265C106.226 245.2 107.313 247.825 107.313 250.562V250.897L80.8164 250.898L80.8159 240.243Z" fill="#333477"/>
<path d="M77.7451 129.644C77.7451 129.644 74.1837 133.672 80.0808 149.375L79.0421 235.478L98.1529 235.105L102.354 193.105L110.002 131.814L77.7451 129.644Z" fill="#333477"/>
<path d="M58.6662 116.051C57.5371 116.048 56.4537 115.605 55.6458 114.816C54.8379 114.027 54.3692 112.953 54.3392 111.824L53.4424 78.0041L68.7879 48.8722C69.1363 48.2162 69.6461 47.6599 70.2692 47.256C70.8923 46.852 71.608 46.6137 72.3488 46.5636L84.0434 45.8123L83.0336 113.984L59.0466 116.035C58.9193 116.046 58.7925 116.052 58.6662 116.051Z" fill="#FE7987"/>
<path d="M116.557 141.547L116.348 141.515C91.8996 137.784 73.4508 134.207 73.2673 134.172L73.0381 134.127L79.4469 118.529C79.3963 116.899 78.009 71.1298 80.6647 57.9797C83.2356 45.2497 95.354 43.1635 96.735 42.9672L98.1216 38.3699L115.64 47.4915L118.695 58.0136L119.316 86.8521L116.557 141.547Z" fill="#4091C5"/>
<path d="M92.4832 97.8882C81.1965 97.8882 72.0142 85.6085 72.0142 70.5146C72.0142 55.4208 81.1965 43.1411 92.4832 43.1411C103.77 43.1411 112.952 55.4208 112.952 70.5146C112.952 85.6085 103.77 97.8882 92.4832 97.8882ZM92.4832 45.821C82.6733 45.821 74.6923 56.8985 74.6923 70.5146C74.6923 84.1307 82.6733 95.2082 92.4832 95.2082C102.293 95.2082 110.274 84.1307 110.274 70.5146C110.274 56.8985 102.293 45.821 92.4832 45.821Z" fill="#FE7987"/>
<path d="M127.108 82.1914C126.319 82.1912 125.539 82.3544 124.816 82.6707C124.093 82.987 123.444 83.4496 122.908 84.0293H93.4633L82.6777 86.3267L84.4486 99.9938L122.816 91.737C123.451 92.4549 124.256 93.002 125.157 93.3286C126.058 93.6552 127.026 93.7507 127.973 93.6065C128.921 93.4623 129.817 93.083 130.58 92.5031C131.343 91.9233 131.949 91.1614 132.342 90.287C132.735 89.4126 132.903 88.4536 132.831 87.4975C132.758 86.5414 132.448 85.6187 131.927 84.8137C131.407 84.0086 130.693 83.3469 129.851 82.8888C129.009 82.4308 128.066 82.191 127.108 82.1914Z" fill="#C4809A"/>
<path d="M124.946 36.4334C130.488 30.8879 130.488 21.8968 124.946 16.3513C119.404 10.8058 110.419 10.8058 104.877 16.3513C99.3349 21.8968 99.3349 30.8879 104.877 36.4334C110.419 41.9789 119.404 41.9789 124.946 36.4334Z" fill="#C4809A"/>
<path d="M101.565 15.0399L100.877 13.6543L104.339 11.9333C104.339 11.9333 108.158 5.71567 115.068 7.46296C121.978 9.21025 125.087 10.256 125.087 10.256L128.54 11.9945L126.807 13.7199L129.916 14.7657L127.839 15.7983L130.256 17.1882L128.955 24.3135C128.955 24.3135 126.794 18.9093 122.64 20.9745C118.486 23.0397 110.888 19.9069 110.888 19.9069L104.286 32.6907C104.286 32.6907 102.925 28.2093 100.496 29.4043C100.496 29.4043 94.2933 19.519 101.565 15.0399Z" fill="#FFF2D1"/>
<path d="M59.7703 112.454L58.1929 78.0359L74.3508 46.4304L75.0318 46.7792L58.9669 78.2036L60.5348 112.419L59.7703 112.454Z" fill="#3F3D56"/>
<path d="M194.707 251.258H4.3826C4.28113 251.258 4.18381 251.218 4.11206 251.146C4.04031 251.074 4 250.977 4 250.875C4 250.774 4.04031 250.676 4.11206 250.604C4.18381 250.533 4.28113 250.492 4.3826 250.492H194.707C194.808 250.492 194.906 250.533 194.978 250.604C195.049 250.676 195.09 250.774 195.09 250.875C195.09 250.977 195.049 251.074 194.978 251.146C194.906 251.218 194.808 251.258 194.707 251.258Z" fill="#FFF2D1"/>
<path d="M84.6369 102.556L81.2696 92.5332L80.4551 59.1228L81.8898 54.3824C82.4062 52.6763 83.2616 51.092 84.4045 49.7246C85.5475 48.3572 86.9546 47.2347 88.5415 46.4245C90.1284 45.6143 91.8624 45.1329 93.6396 45.0094C95.4169 44.8858 97.2007 45.1226 98.8844 45.7054C100.568 46.2883 102.117 47.2053 103.438 48.4014C104.759 49.5976 105.825 51.0482 106.572 52.6665C107.319 54.2848 107.732 56.0374 107.786 57.8193C107.84 59.6011 107.534 61.3756 106.887 63.0363L99.1966 82.7551L99.5875 83.5143L116.248 83.3793L122.166 94.0388L84.6369 102.556Z" fill="#3F92C5"/>
<rect x="138" y="14" width="73" height="17" rx="8.5" fill="white"/>
<path d="M137 32L140.143 26L148 29L137 32Z" fill="white"/>
<path d="M149.302 19V20.2363H147.297V25.5967H146.005V20.2363H144V19H149.302Z" fill="#1D2053"/>
<path d="M154.463 20.6319V23.6088C154.463 24.0505 154.37 24.433 154.182 24.756C153.995 25.0725 153.739 25.3165 153.414 25.4879C153.096 25.6593 152.733 25.7451 152.328 25.7451C151.915 25.7451 151.547 25.6593 151.222 25.4879C150.904 25.3165 150.651 25.0725 150.463 24.756C150.282 24.433 150.192 24.0505 150.192 23.6088V20.6319H151.391L151.4 23.3813C151.4 23.7703 151.484 24.0604 151.653 24.2516C151.822 24.4429 152.047 24.5385 152.328 24.5385C152.602 24.5385 152.824 24.4429 152.993 24.2516C153.167 24.0604 153.255 23.7703 153.255 23.3813V20.6319H154.463Z" fill="#1D2053"/>
<path d="M157.536 19.178V20.6319H158.847V21.6802H157.536V23.8363C157.536 24.0604 157.583 24.2385 157.676 24.3703C157.776 24.4956 157.923 24.5582 158.117 24.5582C158.285 24.5582 158.429 24.5385 158.547 24.4989C158.672 24.4593 158.788 24.4033 158.894 24.3308V25.3297C158.775 25.4549 158.626 25.5604 158.444 25.6462C158.27 25.7319 158.048 25.7747 157.779 25.7747C157.355 25.7747 157.008 25.633 156.74 25.3495C156.477 25.0593 156.346 24.6637 156.346 24.1626V21.6802H155.494V21.0374C155.793 20.9253 156.068 20.7143 156.318 20.4044C156.574 20.0945 156.777 19.6857 156.927 19.178H157.536Z" fill="#1D2053"/>
<path d="M164.29 20.6319V23.6088C164.29 24.0505 164.196 24.433 164.009 24.756C163.821 25.0725 163.565 25.3165 163.24 25.4879C162.922 25.6593 162.56 25.7451 162.154 25.7451C161.742 25.7451 161.373 25.6593 161.049 25.4879C160.73 25.3165 160.477 25.0725 160.29 24.756C160.109 24.433 160.018 24.0505 160.018 23.6088V20.6319H161.217L161.227 23.3813C161.227 23.7703 161.311 24.0604 161.479 24.2516C161.648 24.4429 161.873 24.5385 162.154 24.5385C162.429 24.5385 162.65 24.4429 162.819 24.2516C162.994 24.0604 163.081 23.7703 163.081 23.3813V20.6319H164.29Z" fill="#1D2053"/>
<path d="M166.397 20.6319L167.746 23.8165L169.058 20.6319H170.416L166.978 28H165.629L167.053 25.2604L165.011 20.6319H166.397Z" fill="#1D2053"/>
<path d="M173.348 20.5033C173.81 20.5033 174.231 20.622 174.612 20.8593C174.993 21.0901 175.299 21.4066 175.53 21.8088C175.768 22.2044 175.886 22.6495 175.886 23.144C175.886 23.6385 175.768 24.0835 175.53 24.4791C175.299 24.8747 174.993 25.1912 174.612 25.4286C174.231 25.6593 173.81 25.7747 173.348 25.7747C172.892 25.7747 172.47 25.6593 172.083 25.4286C171.702 25.1912 171.396 24.8747 171.165 24.4791C170.934 24.0835 170.819 23.6385 170.819 23.144C170.819 22.6495 170.934 22.2044 171.165 21.8088C171.396 21.4066 171.702 21.0901 172.083 20.8593C172.47 20.622 172.892 20.5033 173.348 20.5033ZM173.348 21.7198C173.123 21.7198 172.914 21.7758 172.72 21.8879C172.527 22 172.37 22.1615 172.252 22.3725C172.139 22.5835 172.083 22.8407 172.083 23.144C172.083 23.4473 172.139 23.7044 172.252 23.9154C172.37 24.1264 172.527 24.2879 172.72 24.4C172.914 24.5055 173.123 24.5582 173.348 24.5582C173.573 24.5582 173.782 24.5055 173.975 24.4C174.169 24.2879 174.325 24.1264 174.444 23.9154C174.562 23.7044 174.622 23.4473 174.622 23.144C174.622 22.8407 174.562 22.5835 174.444 22.3725C174.325 22.1615 174.169 22 173.975 21.8879C173.782 21.7758 173.573 21.7198 173.348 21.7198Z" fill="#1D2053"/>
<path d="M181.188 20.6319V23.6088C181.188 24.0505 181.095 24.433 180.907 24.756C180.72 25.0725 180.464 25.3165 180.139 25.4879C179.821 25.6593 179.458 25.7451 179.053 25.7451C178.64 25.7451 178.272 25.6593 177.947 25.4879C177.629 25.3165 177.376 25.0725 177.188 24.756C177.007 24.433 176.917 24.0505 176.917 23.6088V20.6319H178.116L178.125 23.3813C178.125 23.7703 178.209 24.0604 178.378 24.2516C178.547 24.4429 178.771 24.5385 179.053 24.5385C179.327 24.5385 179.549 24.4429 179.718 24.2516C179.892 24.0604 179.98 23.7703 179.98 23.3813V20.6319H181.188Z" fill="#1D2053"/>
<path d="M184.261 19.178V20.6319H185.572V21.6802H184.261V23.8363C184.261 24.0604 184.308 24.2385 184.401 24.3703C184.501 24.4956 184.648 24.5582 184.842 24.5582C185.01 24.5582 185.154 24.5385 185.272 24.4989C185.397 24.4593 185.513 24.4033 185.619 24.3308V25.3297C185.5 25.4549 185.35 25.5604 185.169 25.6462C184.995 25.7319 184.773 25.7747 184.504 25.7747C184.08 25.7747 183.733 25.633 183.465 25.3495C183.202 25.0593 183.071 24.6637 183.071 24.1626V21.6802H182.219V21.0374C182.518 20.9253 182.793 20.7143 183.043 20.4044C183.299 20.0945 183.502 19.6857 183.652 19.178H184.261Z" fill="#1D2053"/>
<path d="M188.991 20.5033C189.453 20.5033 189.875 20.622 190.256 20.8593C190.637 21.0901 190.943 21.4066 191.174 21.8088C191.411 22.2044 191.53 22.6495 191.53 23.144C191.53 23.6385 191.411 24.0835 191.174 24.4791C190.943 24.8747 190.637 25.1912 190.256 25.4286C189.875 25.6593 189.453 25.7747 188.991 25.7747C188.535 25.7747 188.114 25.6593 187.727 25.4286C187.346 25.1912 187.04 24.8747 186.809 24.4791C186.578 24.0835 186.462 23.6385 186.462 23.144C186.462 22.6495 186.578 22.2044 186.809 21.8088C187.04 21.4066 187.346 21.0901 187.727 20.8593C188.114 20.622 188.535 20.5033 188.991 20.5033ZM188.991 21.7198C188.766 21.7198 188.557 21.7758 188.364 21.8879C188.17 22 188.014 22.1615 187.895 22.3725C187.783 22.5835 187.727 22.8407 187.727 23.144C187.727 23.4473 187.783 23.7044 187.895 23.9154C188.014 24.1264 188.17 24.2879 188.364 24.4C188.557 24.5055 188.766 24.5582 188.991 24.5582C189.216 24.5582 189.425 24.5055 189.619 24.4C189.812 24.2879 189.969 24.1264 190.087 23.9154C190.206 23.7044 190.265 23.4473 190.265 23.144C190.265 22.8407 190.206 22.5835 190.087 22.3725C189.969 22.1615 189.812 22 189.619 21.8879C189.425 21.7758 189.216 21.7198 188.991 21.7198Z" fill="#1D2053"/>
<path d="M194.855 20.5033C195.317 20.5033 195.739 20.622 196.12 20.8593C196.501 21.0901 196.807 21.4066 197.038 21.8088C197.275 22.2044 197.394 22.6495 197.394 23.144C197.394 23.6385 197.275 24.0835 197.038 24.4791C196.807 24.8747 196.501 25.1912 196.12 25.4286C195.739 25.6593 195.317 25.7747 194.855 25.7747C194.399 25.7747 193.978 25.6593 193.591 25.4286C193.21 25.1912 192.904 24.8747 192.673 24.4791C192.442 24.0835 192.326 23.6385 192.326 23.144C192.326 22.6495 192.442 22.2044 192.673 21.8088C192.904 21.4066 193.21 21.0901 193.591 20.8593C193.978 20.622 194.399 20.5033 194.855 20.5033ZM194.855 21.7198C194.63 21.7198 194.421 21.7758 194.228 21.8879C194.034 22 193.878 22.1615 193.759 22.3725C193.647 22.5835 193.591 22.8407 193.591 23.144C193.591 23.4473 193.647 23.7044 193.759 23.9154C193.878 24.1264 194.034 24.2879 194.228 24.4C194.421 24.5055 194.63 24.5582 194.855 24.5582C195.08 24.5582 195.289 24.5055 195.483 24.4C195.676 24.2879 195.833 24.1264 195.951 23.9154C196.07 23.7044 196.129 23.4473 196.129 23.144C196.129 22.8407 196.07 22.5835 195.951 22.3725C195.833 22.1615 195.676 22 195.483 21.8879C195.289 21.7758 195.08 21.7198 194.855 21.7198Z" fill="#1D2053"/>
<path d="M199.08 24.222C199.286 24.222 199.461 24.3011 199.604 24.4593C199.754 24.611 199.829 24.7956 199.829 25.0132C199.829 25.2308 199.754 25.4187 199.604 25.5769C199.461 25.7286 199.286 25.8044 199.08 25.8044C198.874 25.8044 198.696 25.7286 198.546 25.5769C198.402 25.4187 198.33 25.2308 198.33 25.0132C198.33 24.7956 198.402 24.611 198.546 24.4593C198.696 24.3011 198.874 24.222 199.08 24.222Z" fill="#1D2053"/>
<path d="M201.665 24.222C201.871 24.222 202.046 24.3011 202.19 24.4593C202.34 24.611 202.415 24.7956 202.415 25.0132C202.415 25.2308 202.34 25.4187 202.19 25.5769C202.046 25.7286 201.871 25.8044 201.665 25.8044C201.459 25.8044 201.281 25.7286 201.131 25.5769C200.988 25.4187 200.916 25.2308 200.916 25.0132C200.916 24.7956 200.988 24.611 201.131 24.4593C201.281 24.3011 201.459 24.222 201.665 24.222Z" fill="#1D2053"/>
<path d="M204.251 24.222C204.457 24.222 204.632 24.3011 204.775 24.4593C204.925 24.611 205 24.7956 205 25.0132C205 25.2308 204.925 25.4187 204.775 25.5769C204.632 25.7286 204.457 25.8044 204.251 25.8044C204.045 25.8044 203.867 25.7286 203.717 25.5769C203.573 25.4187 203.501 25.2308 203.501 25.0132C203.501 24.7956 203.573 24.611 203.717 24.4593C203.867 24.3011 204.045 24.222 204.251 24.222Z" fill="#1D2053"/>
<g clip-path="url(#clip0_22_478)">
<path d="M220.187 5.02651L213.938 6.68747C213.811 6.72333 213.7 6.79467 213.621 6.89112C213.543 6.98757 213.5 7.1041 213.5 7.22377V11.8189C213.295 11.7742 213.086 11.751 212.875 11.75C211.84 11.75 211 12.2538 211 12.875C211 13.4962 211.84 14 212.875 14C213.91 14 214.75 13.4962 214.75 12.875V8.76731L219.75 7.44895V10.694C219.545 10.6492 219.336 10.626 219.125 10.625C218.09 10.625 217.25 11.1288 217.25 11.75C217.25 12.3712 218.09 12.875 219.125 12.875C220.16 12.875 221 12.3714 221 11.75V5.56247C221 5.47416 220.977 5.38711 220.932 5.30837C220.888 5.22963 220.824 5.16141 220.744 5.10922C220.665 5.05704 220.574 5.02236 220.477 5.00799C220.38 4.99362 220.281 4.99996 220.187 5.02651V5.02651Z" fill="#FFF2D1"/>
</g>
<g clip-path="url(#clip1_22_478)">
<path d="M209.333 1.66675C208.5 1.66675 208.5 2.33805 208.5 2.47102V7.57669C208.295 7.52701 208.086 7.50132 207.875 7.50012C206.84 7.50012 206 8.05989 206 8.75012C206 9.44036 206.84 10.0001 207.875 10.0001C208.91 10.0001 209.75 9.44036 209.75 8.75012V4.18606C209.75 2.47102 209.839 1.66675 209.333 1.66675Z" fill="#FFF2D1"/>
</g>
</g>
<defs>
<filter id="filter0_d_22_478" x="0" y="0" width="225" height="259.258" filterUnits="userSpaceOnUse" color-interpolation-filters="sRGB">
<feFlood flood-opacity="0" result="BackgroundImageFix"/>
<feColorMatrix in="SourceAlpha" type="matrix" values="0 0 0 0 0 0 0 0 0 0 0 0 0 0 0 0 0 0 127 0" result="hardAlpha"/>
<feOffset dy="4"/>
<feGaussianBlur stdDeviation="2"/>
<feComposite in2="hardAlpha" operator="out"/>
<feColorMatrix type="matrix" values="0 0 0 0 0 0 0 0 0 0 0 0 0 0 0 0 0 0 0.25 0"/>
<feBlend mode="normal" in2="BackgroundImageFix" result="effect1_dropShadow_22_478"/>
<feBlend mode="normal" in="SourceGraphic" in2="effect1_dropShadow_22_478" result="shape"/>
</filter>
<clipPath id="clip0_22_478">
<rect width="10" height="9" fill="white" transform="translate(211 5)"/>
</clipPath>
<clipPath id="clip1_22_478">
<rect width="10" height="10" fill="white" transform="translate(206)"/>
</clipPath>
</defs>
</svg>
