<svg width="320" height="448" viewBox="0 0 320 448" fill="none" xmlns="http://www.w3.org/2000/svg">
<path d="M310.706 381.765C309.392 375.135 302.871 370.893 296.282 372.396C285.59 374.835 268.86 377.809 250.856 377.809C194.093 377.809 148.927 343.019 129.395 292.36H243.084C245.809 292.36 248.454 291.432 250.582 289.729C252.71 288.027 254.194 285.65 254.792 282.991L261.165 254.631C262.851 247.129 257.146 240 249.457 240H115.22C114.01 225.672 113.806 211.713 115.357 197.755H261.95C264.687 197.755 267.342 196.82 269.474 195.104C271.606 193.388 273.088 190.995 273.673 188.321L280.185 158.566C281.823 151.082 276.124 144 268.462 144H130.184C150.817 99.009 192.874 68.97 247.803 68.97C262.289 68.97 276.367 71.22 285.654 73.115C291.87 74.383 298.001 70.617 299.656 64.492L311.647 20.124C313.469 13.383 309.182 6.508 302.321 5.207C290.217 2.912 270.71 0 249.635 0C152.451 0 74.03 60.252 45.075 144H12C5.373 144 0 149.373 0 156V185.755C0 192.382 5.373 197.755 12 197.755H33.569C32.56 211.362 32.388 227.042 33.388 240H12C5.373 240 0 245.373 0 252V280.36C0 286.987 5.373 292.36 12 292.36H42.114C67.139 382.692 145.264 448 249.635 448C275.936 448 298.197 443.456 310.736 440.212C316.903 438.617 320.763 432.504 319.524 426.255L310.706 381.765Z" fill="#4490C4"/>
</svg>
