<svg width="640" height="512" viewBox="0 0 640 512" fill="none" xmlns="http://www.w3.org/2000/svg">
<path d="M592 192H473.26C485.95 221.59 480.38 257.2 456.26 281.32L320 417.58V464C320 490.51 341.49 512 368 512H592C618.51 512 640 490.51 640 464V240C640 213.49 618.51 192 592 192ZM480 376C466.75 376 456 365.25 456 352C456 338.74 466.75 328 480 328C493.25 328 504 338.74 504 352C504 365.25 493.25 376 480 376ZM433.63 189.3L258.7 14.37C239.54 -4.79 208.47 -4.79 189.31 14.37L14.37 189.3C-4.79 208.46 -4.79 239.53 14.37 258.69L189.3 433.63C208.46 452.79 239.53 452.79 258.69 433.63L433.63 258.7C452.79 239.53 452.79 208.46 433.63 189.3V189.3ZM96 248C82.75 248 72 237.25 72 224C72 210.74 82.75 200 96 200C109.25 200 120 210.74 120 224C120 237.25 109.25 248 96 248ZM224 376C210.75 376 200 365.25 200 352C200 338.74 210.75 328 224 328C237.25 328 248 338.74 248 352C248 365.25 237.25 376 224 376ZM224 248C210.75 248 200 237.25 200 224C200 210.74 210.75 200 224 200C237.25 200 248 210.74 248 224C248 237.25 237.25 248 224 248ZM224 120C210.75 120 200 109.25 200 96C200 82.74 210.75 72 224 72C237.25 72 248 82.74 248 96C248 109.25 237.25 120 224 120ZM352 248C338.75 248 328 237.25 328 224C328 210.74 338.75 200 352 200C365.25 200 376 210.74 376 224C376 237.25 365.25 248 352 248Z" fill="#4490C4"/>
</svg>
