<svg width="576" height="326" viewBox="0 0 576 326" fill="none" xmlns="http://www.w3.org/2000/svg">
<path d="M420.55 243.052C415.803 243.052 411.163 241.644 407.216 239.007C403.27 236.37 400.193 232.622 398.377 228.236C396.56 223.851 396.085 219.025 397.011 214.37C397.937 209.714 400.223 205.438 403.579 202.081C406.936 198.725 411.212 196.439 415.868 195.513C420.523 194.587 425.349 195.062 429.734 196.879C434.12 198.695 437.868 201.771 440.505 205.718C443.142 209.665 444.55 214.305 444.55 219.052C444.55 225.417 442.021 231.522 437.521 236.023C433.02 240.523 426.915 243.052 420.55 243.052ZM155.45 243.052C150.703 243.052 146.063 241.644 142.116 239.007C138.17 236.37 135.093 232.622 133.277 228.236C131.46 223.851 130.985 219.025 131.911 214.37C132.837 209.714 135.123 205.438 138.479 202.081C141.836 198.725 146.112 196.439 150.768 195.513C155.423 194.587 160.249 195.062 164.634 196.879C169.02 198.695 172.768 201.771 175.405 205.718C178.042 209.665 179.45 214.305 179.45 219.052C179.45 225.417 176.921 231.522 172.421 236.023C167.92 240.523 161.815 243.052 155.45 243.052ZM429.15 98.5719L477.09 15.5719C477.853 14.4352 478.374 13.154 478.621 11.8077C478.869 10.4613 478.837 9.07854 478.529 7.74491C478.22 6.41128 477.641 5.15523 476.827 4.05456C476.013 2.95388 474.982 2.03202 473.797 1.34608C472.612 0.660135 471.3 0.224713 469.94 0.0667791C468.58 -0.0911544 467.202 0.0317639 465.892 0.427924C464.582 0.824084 463.367 1.48505 462.322 2.36988C461.278 3.25471 460.426 4.34455 459.82 5.57193V5.57193L411.28 89.6419C372.507 72.2522 330.494 63.2621 288 63.2621C245.506 63.2621 203.493 72.2522 164.72 89.6419L116.18 5.57193C115.574 4.34455 114.722 3.25471 113.678 2.36988C112.633 1.48505 111.418 0.824084 110.108 0.427924C108.798 0.0317639 107.42 -0.0911544 106.06 0.0667791C104.7 0.224713 103.388 0.660135 102.203 1.34608C101.018 2.03202 99.9871 2.95388 99.1732 4.05456C98.3593 5.15523 97.7801 6.41128 97.4714 7.74491C97.1627 9.07854 97.1311 10.4613 97.3786 11.8077C97.626 13.154 98.1473 14.4352 98.91 15.5719L146.85 98.5719C64.53 143.342 8.24 226.672 0 325.122H576C567.76 226.672 511.46 143.342 429.15 98.5719" fill="url(#paint0_linear_330_475)"/>
<defs>
<linearGradient id="paint0_linear_330_475" x1="490" y1="20" x2="1.2924e-05" y2="325" gradientUnits="userSpaceOnUse">
<stop stop-color="#FC7885"/>
<stop offset="1" stop-color="#4490C4"/>
</linearGradient>
</defs>
</svg>
