<svg width="377" height="448" viewBox="0 0 377 448" fill="none" xmlns="http://www.w3.org/2000/svg">
<path d="M314.7 236.7C314.5 200 331.1 172.3 364.7 151.9C345.9 125 317.5 110.2 280 107.3C244.5 104.5 205.7 128 191.5 128C176.5 128 142.1 108.3 115.1 108.3C59.3 109.2 0 152.8 0 241.5C0 267.7 4.8 294.767 14.4 322.7C27.2 359.4 73.4 449.4 121.6 447.9C146.8 447.3 164.6 430 197.4 430C229.2 430 245.7 447.9 273.8 447.9C322.4 447.2 364.2 365.4 376.4 328.6C311.2 297.9 314.7 238.6 314.7 236.7V236.7ZM258.1 72.5C285.4 40.1 282.9 10.6 282.1 0C258 1.4 230.1 16.4 214.2 34.9C196.7 54.7 186.4 79.2 188.6 106.8C214.7 108.8 238.5 95.4 258.1 72.5V72.5Z" fill="url(#paint0_linear_330_477)"/>
<defs>
<linearGradient id="paint0_linear_330_477" x1="188" y1="36.5" x2="188.2" y2="447.919" gradientUnits="userSpaceOnUse">
<stop stop-color="#FC7885"/>
<stop offset="1" stop-color="#4490C4"/>
</linearGradient>
</defs>
</svg>
