<svg width="739" height="490" viewBox="0 0 739 490" fill="none" xmlns="http://www.w3.org/2000/svg">
<path d="M710.114 327.918C704.777 333.755 698.16 338.1 690.979 341.474H690.97C690.294 341.795 689.618 342.107 688.934 342.402H688.925L688.917 342.41L688.908 342.402H688.9C688.9 342.403 688.899 342.404 688.899 342.405C688.899 342.406 688.898 342.407 688.897 342.408C688.896 342.409 688.895 342.409 688.894 342.41C688.893 342.41 688.892 342.41 688.891 342.41H688.882L688.873 342.402C688.865 342.41 688.865 342.41 688.856 342.402L688.848 342.41L688.839 342.402H688.83C688.821 342.41 688.821 342.41 688.813 342.402H688.804C683.997 344.483 679.061 346.25 674.026 347.692C644.418 356.102 613.298 357.729 582.976 352.453C582.396 352.349 581.824 352.245 581.244 352.141V281.798C581.815 281.555 582.396 281.312 582.976 281.078C586.762 279.508 590.593 278.066 594.471 276.75C600.05 274.842 605.706 273.206 611.441 271.842C630.149 267.308 649.453 265.745 668.647 267.21C672.138 267.471 675.62 267.846 679.094 268.338C686.361 269.353 693.984 271.122 700.689 274.192H700.697C701.677 274.652 702.638 275.129 703.591 275.64C709.55 278.875 714.574 283.324 717.641 289.421C718.743 291.611 719.536 293.943 719.997 296.35V296.368C720.17 297.2 720.292 298.042 720.387 298.874C721.479 309.142 717.225 320.13 710.114 327.918Z" fill="#FFF2D1"/>
<path d="M720.387 298.874C720.302 298.895 720.215 298.907 720.127 298.909C705.289 299.559 690.47 300.525 675.672 301.805H675.646C675.585 301.814 675.533 301.814 675.473 301.823C660.279 303.141 645.117 304.791 629.987 306.775C629.346 306.861 628.713 306.948 628.081 307.026C617.617 308.422 607.173 309.972 596.749 311.675C592.149 312.429 587.558 313.215 582.976 314.034C582.396 314.138 581.824 314.233 581.244 314.346V311.718C581.824 311.605 582.404 311.51 582.976 311.406C598.239 308.7 613.554 306.338 628.921 304.32C632.785 303.8 636.654 303.309 640.529 302.846C651.72 301.493 662.929 300.325 674.156 299.342C674.979 299.273 675.793 299.203 676.616 299.134C690.987 297.911 705.378 296.983 719.789 296.35C719.859 296.347 719.929 296.353 719.997 296.368C721.383 296.489 721.678 298.57 720.387 298.874Z" fill="white"/>
<path d="M689.571 339.846C671.086 339.982 652.875 332.135 639.799 319.145C636.11 315.466 632.859 311.371 630.111 306.943C629.23 305.528 627.168 307.088 628.042 308.491C638.197 324.796 655.111 336.411 673.76 340.682C679.056 341.883 684.474 342.463 689.904 342.411C691.561 342.399 691.218 339.834 689.571 339.846V339.846Z" fill="white"/>
<path d="M611.441 271.842C611.361 272.085 611.22 272.304 611.03 272.476C610.84 272.648 610.608 272.767 610.358 272.822C606.121 273.933 602.029 275.534 598.161 277.592C592.514 280.578 587.386 284.458 582.976 289.083C582.742 289.317 582.517 289.551 582.301 289.794C581.936 290.175 581.59 290.566 581.244 290.965V287.183C581.798 286.594 582.378 286.013 582.976 285.458C586.458 282.12 590.316 279.198 594.471 276.75C600.05 274.842 605.706 273.206 611.441 271.842Z" fill="white"/>
<path d="M702.221 273.508C690.462 278.568 680.623 287.253 674.136 298.299C674.005 298.615 674.003 298.971 674.132 299.288C674.26 299.605 674.508 299.859 674.823 299.994C675.139 300.119 675.491 300.117 675.806 299.989C676.121 299.861 676.375 299.617 676.515 299.306C682.707 288.874 692.048 280.679 703.192 275.905C704.721 275.251 703.753 272.853 702.221 273.508L702.221 273.508Z" fill="white"/>
<path d="M737.668 199.851C735.659 207.5 731.804 214.429 727.014 220.752L727.005 220.76C726.563 221.35 726.104 221.948 725.628 222.521V222.529C722.302 226.631 718.711 230.511 714.878 234.142C701.099 247.288 685.535 258.421 668.647 267.21C642.079 281.104 612.385 289.317 582.976 289.785C582.751 289.794 582.526 289.794 582.301 289.794C581.945 289.802 581.59 289.803 581.244 289.803V250.386C581.807 249.31 582.387 248.235 582.976 247.168C590.619 233.4 599.939 220.635 610.722 209.165C610.982 208.879 611.25 208.593 611.519 208.315C615.572 204.031 619.823 199.952 624.269 196.078C641.376 181.019 661.146 169.297 682.558 161.518C689.463 159.038 697.033 157.052 704.396 156.661C705.479 156.601 706.553 156.574 707.636 156.583C714.419 156.679 720.924 158.283 726.477 162.255C728.465 163.685 730.249 165.38 731.778 167.294C732.315 167.962 732.809 168.647 733.285 169.349V169.358C739.02 177.944 740.354 189.643 737.668 199.851Z" fill="#FFF2D1"/>
<path d="M733.285 169.349V169.358C733.221 169.414 733.151 169.463 733.077 169.505C720.257 176.972 707.598 184.711 695.101 192.722C695.084 192.73 695.076 192.739 695.058 192.748C695.008 192.783 694.956 192.815 694.902 192.843C682.056 201.082 669.392 209.599 656.909 218.393C656.389 218.757 655.861 219.13 655.333 219.503C646.714 225.6 638.184 231.826 629.744 238.183C613.805 250.204 598.216 262.669 582.976 275.58C582.396 276.065 581.824 276.56 581.244 277.054V273.68C581.815 273.186 582.396 272.692 582.976 272.206C588.815 267.271 594.705 262.406 600.647 257.61C602.423 256.179 604.207 254.748 605.992 253.334C621.844 240.698 638.051 228.534 654.614 216.84H654.622C657.88 214.542 661.142 212.264 664.411 210.006C673.697 203.606 683.087 197.359 692.581 191.265C693.265 190.823 693.958 190.38 694.651 189.938C706.805 182.167 719.117 174.651 731.587 167.389C731.648 167.352 731.712 167.32 731.778 167.294C733.077 166.773 734.299 168.491 733.285 169.349Z" fill="white"/>
<path d="M725.011 219.965C708.704 228.683 688.936 230.203 671.33 224.781C666.356 223.239 661.577 221.124 657.089 218.481C655.652 217.637 654.55 219.978 655.975 220.814C672.532 230.531 692.901 232.95 711.397 228.059C716.644 226.659 721.711 224.654 726.495 222.082C727.957 221.301 726.463 219.189 725.011 219.965V219.965Z" fill="white"/>
<path d="M603.004 251.697C602.197 247.157 601.92 242.538 602.179 237.934C602.763 227.434 605.974 217.249 611.518 208.317C615.577 204.034 619.828 199.954 624.272 196.078C624.314 196.331 624.289 196.591 624.2 196.832C624.111 197.073 623.961 197.287 623.764 197.452C620.53 200.407 617.649 203.727 615.178 207.345C606.352 220.242 602.908 236.08 605.579 251.482C605.622 251.657 605.619 251.84 605.572 252.013C605.524 252.187 605.433 252.345 605.307 252.473C605.121 252.635 604.897 252.745 604.656 252.793C604.415 252.841 604.166 252.825 603.933 252.746C603.7 252.668 603.492 252.529 603.329 252.345C603.166 252.161 603.054 251.938 603.004 251.697V251.697Z" fill="white"/>
<path d="M705.434 155.336C697.368 165.286 692.685 177.553 692.065 190.352C692.096 190.693 692.259 191.008 692.52 191.229C692.781 191.45 693.119 191.559 693.459 191.533C693.798 191.497 694.109 191.331 694.328 191.072C694.548 190.812 694.659 190.477 694.639 190.137C695.282 178.019 699.752 166.418 707.405 157.007C708.456 155.717 706.486 154.043 705.434 155.336Z" fill="white"/>
<path d="M615.729 183.832V183.841C615.668 184.587 615.599 185.324 615.52 186.061V186.079C614.918 191.326 613.978 196.529 612.705 201.654C612.099 204.169 611.441 206.667 610.722 209.165C610.635 209.486 610.54 209.807 610.444 210.119V210.128C608.329 217.392 605.801 224.529 602.874 231.505C597.487 244.349 590.821 256.616 582.976 268.121C582.413 268.962 581.833 269.803 581.244 270.636V134.824C581.824 134.789 582.396 134.789 582.976 134.806C583.253 134.806 583.53 134.815 583.808 134.832C586.252 134.961 588.666 135.431 590.98 136.229C591.795 136.498 592.583 136.801 593.363 137.139C602.813 141.285 610.237 150.426 613.459 160.477C615.876 168.005 616.361 175.923 615.729 183.832Z" fill="#FFF2D1"/>
<path d="M593.363 137.139C593.342 137.224 593.31 137.306 593.267 137.382C589.759 144.208 586.329 151.068 582.976 157.962C582.396 159.15 581.816 160.347 581.244 161.535V155.638C581.816 154.458 582.393 153.279 582.976 152.1C585.566 146.844 588.2 141.611 590.876 136.402C590.906 136.341 590.941 136.283 590.98 136.229C591.777 135.084 593.752 135.864 593.363 137.139Z" fill="white"/>
<path d="M616.006 185.229C615.85 185.506 615.694 185.784 615.52 186.061C612.977 190.499 609.95 194.641 606.494 198.411C599.858 205.62 591.866 211.446 582.976 215.557C582.404 215.834 581.824 216.094 581.244 216.337V213.519C581.824 213.258 582.404 212.99 582.976 212.712C595.844 206.567 606.533 196.637 613.615 184.249C613.717 184.072 613.856 183.919 614.022 183.801C614.189 183.682 614.379 183.601 614.579 183.562C614.779 183.523 614.986 183.528 615.184 183.577C615.382 183.625 615.568 183.715 615.729 183.841C615.838 183.914 615.932 184.008 616.005 184.117C616.078 184.226 616.129 184.348 616.155 184.477C616.18 184.606 616.18 184.739 616.155 184.868C616.129 184.997 616.079 185.119 616.006 185.229V185.229Z" fill="white"/>
<path d="M582.976 28.6195V94.531H581.243V93.8285H1.73247V94.531H0V28.6195C0.00743955 21.0314 3.02153 13.7562 8.38078 8.39067C13.74 3.02509 21.0066 0.00744832 28.5857 0H554.39C561.969 0.00744832 569.236 3.02509 574.595 8.39067C579.954 13.7562 582.969 21.0314 582.976 28.6195V28.6195Z" fill="#4091C5"/>
<path d="M554.39 0H28.5857C21.0066 0.00744832 13.74 3.02509 8.38078 8.39067C3.02153 13.7562 0.00743955 21.0314 0 28.6195V405.009C0.00743955 412.597 3.02153 419.872 8.38078 425.238C13.74 430.603 21.0066 433.621 28.5857 433.628H554.39C561.969 433.621 569.236 430.603 574.595 425.238C579.954 419.872 582.969 412.597 582.976 405.009V28.6195C582.969 21.0314 579.954 13.7562 574.595 8.39067C569.236 3.02509 561.969 0.00744832 554.39 0V0ZM581.243 405.009C581.234 412.136 578.402 418.969 573.368 424.009C568.334 429.049 561.509 431.885 554.39 431.894H28.5857C21.4666 431.885 14.6416 429.049 9.60764 424.009C4.57364 418.969 1.74155 412.136 1.73247 405.009V28.6195C1.74155 21.4919 4.57364 14.6589 9.60764 9.61898C14.6416 4.57905 21.4666 1.74361 28.5857 1.73451H554.39C561.509 1.74361 568.334 4.57905 573.368 9.61898C578.402 14.6589 581.234 21.4919 581.243 28.6195V405.009Z" fill="#FFF2D1"/>
<path d="M117.808 64.6107C127.376 64.6107 135.133 56.845 135.133 47.2655C135.133 37.6861 127.376 29.9204 117.808 29.9204C108.24 29.9204 100.483 37.6861 100.483 47.2655C100.483 56.845 108.24 64.6107 117.808 64.6107Z" fill="white"/>
<path d="M465.168 64.6107C474.736 64.6107 482.493 56.845 482.493 47.2655C482.493 37.6861 474.736 29.9204 465.168 29.9204C455.6 29.9204 447.843 37.6861 447.843 47.2655C447.843 56.845 455.6 64.6107 465.168 64.6107Z" fill="white"/>
<path d="M167.863 240.665H64.8019C60.4357 240.66 56.2498 238.922 53.1624 235.831C50.0751 232.74 48.3384 228.549 48.3335 224.178V175.409C48.3384 171.038 50.0751 166.847 53.1624 163.756C56.2498 160.665 60.4357 158.927 64.8019 158.922H167.863C172.229 158.927 176.415 160.665 179.503 163.756C182.59 166.847 184.327 171.038 184.332 175.409V224.178C184.327 228.549 182.59 232.74 179.503 235.831C176.415 238.922 172.229 240.66 167.863 240.665V240.665Z" fill="#FF7987"/>
<path d="M343.188 240.665H240.127C235.76 240.66 231.574 238.922 228.487 235.831C225.4 232.74 223.663 228.549 223.658 224.178V175.409C223.663 171.038 225.4 166.847 228.487 163.756C231.574 160.665 235.76 158.927 240.127 158.922H343.188C347.554 158.927 351.74 160.665 354.827 163.756C357.915 166.847 359.651 171.038 359.656 175.409V224.178C359.651 228.549 357.915 232.74 354.827 235.831C351.74 238.922 347.554 240.66 343.188 240.665V240.665Z" fill="#FF7987"/>
<path d="M343.187 366.67H240.126C235.628 366.665 231.315 364.874 228.134 361.689C224.953 358.505 223.164 354.187 223.159 349.683V300.914C223.164 296.41 224.953 292.093 228.134 288.908C231.315 285.723 235.628 283.932 240.126 283.927H343.187C347.686 283.932 351.999 285.723 355.18 288.908C358.361 292.093 360.15 296.41 360.155 300.914V349.683C360.15 354.187 358.361 358.504 355.18 361.689C351.999 364.874 347.686 366.665 343.187 366.67V366.67Z" fill="#FFF2D1"/>
<path d="M167.525 366.67H64.4635C59.965 366.665 55.6522 364.874 52.4713 361.689C49.2904 358.504 47.5012 354.187 47.4961 349.683V300.914C47.5012 296.41 49.2904 292.093 52.4713 288.908C55.6522 285.723 59.965 283.932 64.4635 283.927H167.525C172.023 283.932 176.336 285.723 179.517 288.908C182.698 292.093 184.487 296.41 184.492 300.914V349.683C184.487 354.187 182.698 358.504 179.517 361.689C176.336 364.874 172.023 366.665 167.525 366.67V366.67Z" fill="#FFF2D1"/>
<path d="M518.512 366.67H415.451C410.952 366.665 406.64 364.874 403.459 361.689C400.278 358.504 398.488 354.187 398.483 349.683V300.914C398.488 296.41 400.278 292.093 403.459 288.908C406.64 285.723 410.952 283.932 415.451 283.927H518.512C523.011 283.932 527.323 285.723 530.504 288.908C533.685 292.093 535.474 296.41 535.48 300.914V349.683C535.474 354.187 533.685 358.504 530.504 361.689C527.323 364.874 523.011 366.665 518.512 366.67V366.67Z" fill="#FFF2D1"/>
<path d="M518.512 240.764H415.451C410.952 240.758 406.64 238.967 403.459 235.782C400.278 232.598 398.488 228.28 398.483 223.776V175.007C398.488 170.504 400.278 166.186 403.459 163.001C406.64 159.816 410.952 158.025 415.451 158.02H518.512C523.011 158.025 527.323 159.816 530.504 163.001C533.685 166.186 535.474 170.504 535.48 175.007V223.776C535.474 228.28 533.685 232.598 530.504 235.782C527.323 238.967 523.011 240.758 518.512 240.764Z" fill="#FFF2D1"/>
<path d="M116.332 227.773C131.766 227.773 144.278 215.246 144.278 199.794C144.278 184.341 131.766 171.814 116.332 171.814C100.898 171.814 88.3857 184.341 88.3857 199.794C88.3857 215.246 100.898 227.773 116.332 227.773Z" fill="#FFF2D1"/>
<path d="M113.562 210.467C112.934 210.468 112.322 210.265 111.818 209.887L111.787 209.864L105.22 204.829C104.915 204.596 104.659 204.305 104.467 203.973C104.275 203.641 104.15 203.274 104.1 202.893C104.049 202.513 104.074 202.126 104.173 201.755C104.272 201.384 104.443 201.037 104.676 200.732C104.909 200.427 105.2 200.172 105.532 199.979C105.864 199.787 106.23 199.663 106.611 199.612C106.991 199.562 107.377 199.588 107.747 199.687C108.118 199.786 108.465 199.958 108.769 200.192L113.023 203.457L123.076 190.332C123.309 190.027 123.6 189.772 123.931 189.58C124.263 189.388 124.63 189.263 125.009 189.213C125.389 189.163 125.775 189.188 126.145 189.287C126.516 189.386 126.863 189.557 127.167 189.791L127.104 189.876L127.168 189.792C127.782 190.264 128.183 190.96 128.284 191.728C128.385 192.496 128.178 193.273 127.708 193.888L115.884 209.327C115.61 209.683 115.259 209.971 114.856 210.168C114.453 210.366 114.011 210.468 113.562 210.467V210.467Z" fill="#FF7987"/>
<path d="M292.156 227.371C307.59 227.371 320.102 214.844 320.102 199.392C320.102 183.939 307.59 171.412 292.156 171.412C276.721 171.412 264.209 183.939 264.209 199.392C264.209 214.844 276.721 227.371 292.156 227.371Z" fill="#FFF2D1"/>
<path d="M289.386 210.065C288.757 210.066 288.145 209.863 287.642 209.485L287.611 209.462L281.043 204.427C280.429 203.956 280.027 203.26 279.925 202.492C279.824 201.724 280.031 200.947 280.502 200.332C280.972 199.717 281.668 199.314 282.435 199.213C283.202 199.111 283.978 199.318 284.592 199.79L288.846 203.055L298.899 189.93C299.132 189.625 299.423 189.37 299.755 189.178C300.087 188.986 300.453 188.861 300.833 188.811C301.213 188.761 301.599 188.786 301.969 188.885C302.339 188.984 302.686 189.156 302.99 189.389L302.928 189.474L302.992 189.39C303.605 189.862 304.006 190.558 304.108 191.326C304.209 192.094 304.002 192.871 303.532 193.486L291.707 208.925C291.434 209.281 291.082 209.569 290.679 209.766C290.277 209.964 289.834 210.066 289.386 210.065V210.065Z" fill="#FF7987"/>
</svg>
