<svg width="835" height="430" viewBox="0 0 835 430" fill="none" xmlns="http://www.w3.org/2000/svg">
<path d="M221.765 140.126C219.687 140.118 217.666 139.448 215.994 138.214L202.086 128.108C200.932 127.265 199.54 126.811 198.111 126.811C196.682 126.811 195.29 127.265 194.136 128.108L180.228 138.214C178.551 139.433 176.531 140.09 174.457 140.09C172.384 140.09 170.364 139.434 168.687 138.215C167.009 136.996 165.761 135.277 165.12 133.305C164.479 131.333 164.479 129.209 165.119 127.236L170.432 110.883C170.876 109.525 170.877 108.06 170.436 106.701C169.994 105.342 169.133 104.158 167.975 103.319L154.067 93.2127C152.39 91.9936 151.141 90.2748 150.501 88.3025C149.86 86.3302 149.86 84.2057 150.501 82.2334C151.142 80.2612 152.39 78.5425 154.068 77.3236C155.745 76.1046 157.765 75.4481 159.838 75.448H177.029C178.458 75.4506 179.851 74.9995 181.007 74.1595C182.163 73.3196 183.022 72.1343 183.461 70.7745L188.774 54.4215C189.414 52.4489 190.663 50.7298 192.34 49.5107C194.018 48.2915 196.038 47.6349 198.111 47.6349C200.185 47.6349 202.205 48.2915 203.883 49.5107C205.56 50.7298 206.809 52.4489 207.449 54.4215L212.761 70.7745C213.2 72.1344 214.06 73.3196 215.216 74.1596C216.372 74.9995 217.764 75.4507 219.193 75.448H236.384C238.458 75.4481 240.478 76.1046 242.155 77.3236C243.832 78.5425 245.081 80.2612 245.722 82.2335C246.362 84.2057 246.362 86.3302 245.722 88.3025C245.081 90.2748 243.833 91.9936 242.156 93.2127L228.247 103.319C227.09 104.157 226.228 105.341 225.786 106.701C225.345 108.06 225.346 109.525 225.79 110.883L231.103 127.236C231.767 129.207 231.779 131.338 231.136 133.316C230.494 135.293 229.231 137.011 227.536 138.214C225.864 139.448 223.843 140.118 221.765 140.126V140.126Z" fill="#FF7987"/>
<path d="M362.702 140.126C360.625 140.118 358.604 139.448 356.932 138.214L343.024 128.108C341.869 127.267 340.477 126.814 339.048 126.814C337.62 126.814 336.228 127.267 335.073 128.108L321.165 138.214C319.488 139.433 317.468 140.09 315.395 140.09C313.321 140.09 311.301 139.434 309.624 138.215C307.946 136.996 306.698 135.277 306.057 133.305C305.416 131.333 305.416 129.209 306.057 127.236L311.369 110.883C311.813 109.525 311.814 108.06 311.373 106.701C310.931 105.342 310.07 104.158 308.912 103.319L295.004 93.2127C293.327 91.9936 292.079 90.2748 291.438 88.3025C290.797 86.3302 290.797 84.2057 291.438 82.2335C292.079 80.2612 293.327 78.5425 295.005 77.3236C296.682 76.1046 298.702 75.4481 300.775 75.448H317.967C319.395 75.4507 320.788 74.9995 321.944 74.1596C323.1 73.3196 323.959 72.1343 324.398 70.7745L329.711 54.4215C330.351 52.4489 331.6 50.7298 333.277 49.5107C334.955 48.2915 336.975 47.6349 339.048 47.6349C341.122 47.6349 343.142 48.2915 344.82 49.5107C346.497 50.7298 347.746 52.4489 348.386 54.4215L353.699 70.7745C354.138 72.1343 354.997 73.3196 356.153 74.1595C357.309 74.9995 358.702 75.4506 360.13 75.448H377.321C379.395 75.4481 381.415 76.1046 383.092 77.3236C384.769 78.5425 386.018 80.2612 386.659 82.2335C387.299 84.2057 387.299 86.3302 386.659 88.3025C386.018 90.2748 384.77 91.9936 383.093 93.2127L369.184 103.319C368.027 104.158 367.165 105.342 366.724 106.701C366.282 108.06 366.284 109.525 366.728 110.883L372.04 127.236C372.704 129.207 372.716 131.338 372.073 133.316C371.431 135.293 370.169 137.011 368.474 138.214C366.801 139.448 364.78 140.118 362.702 140.126V140.126Z" fill="#FF7987"/>
<path d="M455.106 140.694C452.824 140.685 450.605 139.951 448.768 138.597C446.905 137.275 445.518 135.387 444.813 133.215C444.107 131.042 444.119 128.7 444.849 126.536L450.162 110.183C450.542 109.019 450.543 107.764 450.165 106.599C449.787 105.434 449.048 104.42 448.056 103.702L434.148 93.594C432.305 92.255 430.934 90.367 430.23 88.2005C429.526 86.034 429.526 83.7002 430.23 81.5338C430.934 79.3673 432.305 77.4793 434.148 76.1404C435.991 74.8014 438.21 74.0804 440.487 74.0805H457.678C458.903 74.0827 460.097 73.6959 461.087 72.9759C462.078 72.2559 462.814 71.2398 463.19 70.0742L468.504 53.7216C469.207 51.5552 470.579 49.6672 472.421 48.3283C474.264 46.9893 476.483 46.2682 478.76 46.2682C481.038 46.2682 483.257 46.9893 485.099 48.3283C486.942 49.6672 488.313 51.5552 489.017 53.7216L494.329 70.0742C494.705 71.2398 495.442 72.2559 496.433 72.9759C497.423 73.6959 498.617 74.0826 499.842 74.0805H517.033C519.31 74.0805 521.529 74.8017 523.372 76.1406C525.214 77.4796 526.586 79.3675 527.289 81.5339C527.993 83.7003 527.993 86.034 527.29 88.2004C526.586 90.3669 525.215 92.2549 523.372 93.594L509.464 103.702C508.472 104.419 507.733 105.434 507.355 106.599C506.976 107.764 506.977 109.019 507.358 110.183L512.671 126.536C513.374 128.702 513.374 131.036 512.67 133.202C511.966 135.369 510.595 137.257 508.752 138.596C506.91 139.935 504.691 140.656 502.413 140.656C500.136 140.656 497.917 139.935 496.074 138.596L482.167 128.489C481.177 127.767 479.984 127.378 478.76 127.378C477.535 127.378 476.342 127.767 475.353 128.489L461.444 138.596C459.608 139.95 457.388 140.686 455.106 140.694V140.694ZM478.76 122.387C481.038 122.387 483.257 123.11 485.098 124.453L499.006 134.559C499.996 135.279 501.189 135.667 502.413 135.667C503.638 135.667 504.83 135.28 505.821 134.56C506.811 133.84 507.548 132.826 507.927 131.661C508.305 130.496 508.305 129.242 507.926 128.078L502.614 111.725C501.906 109.559 501.904 107.224 502.608 105.056C503.312 102.889 504.686 101.001 506.532 99.6649L520.44 89.5573C521.43 88.8377 522.167 87.823 522.545 86.6586C522.924 85.4942 522.924 84.24 522.545 83.0757C522.167 81.9113 521.43 80.8966 520.44 80.177C519.45 79.4573 518.257 79.0697 517.033 79.0697H499.842C497.563 79.0739 495.342 78.3544 493.499 77.0149C491.656 75.6753 490.285 73.785 489.585 71.6163L484.273 55.2637C483.894 54.0992 483.157 53.0844 482.167 52.3647C481.177 51.6451 479.984 51.2574 478.76 51.2574C477.536 51.2574 476.343 51.6451 475.353 52.3647C474.362 53.0844 473.625 54.0992 473.247 55.2637L467.934 71.6163C467.234 73.785 465.864 75.6754 464.021 77.015C462.178 78.3545 459.957 79.074 457.678 79.0697H440.487C439.263 79.0696 438.07 79.4571 437.08 80.1767C436.09 80.8963 435.353 81.911 434.974 83.0754C434.596 84.2397 434.596 85.494 434.974 86.6585C435.352 87.8229 436.089 88.8376 437.08 89.5573L450.988 99.6649C452.834 101.001 454.208 102.889 454.912 105.056C455.616 107.224 455.614 109.559 454.906 111.725L449.593 128.078C449.215 129.242 449.215 130.496 449.593 131.661C449.971 132.825 450.708 133.84 451.699 134.559C452.689 135.279 453.882 135.667 455.106 135.666C456.33 135.666 457.522 135.279 458.513 134.559L472.421 124.453C474.262 123.111 476.482 122.387 478.76 122.387Z" fill="#4091C5"/>
<path d="M716.777 165.773L682.609 195.152L629.059 241.179L621.821 247.403C621.158 247.968 620.614 248.658 620.221 249.434C619.827 250.21 619.592 251.057 619.529 251.925C619.435 253.185 619.701 254.446 620.298 255.56C620.525 255.98 620.797 256.374 621.109 256.735L624.991 261.257L630.901 268.134C631.01 268.256 631.113 268.369 631.23 268.484C632.411 269.667 633.994 270.359 635.663 270.424C637.333 270.488 638.965 269.919 640.233 268.832L700.956 216.645L735.196 187.209C736.523 186.063 737.342 184.436 737.473 182.687C737.603 180.937 737.035 179.207 735.893 177.876L733.827 175.473L726.106 166.485C725.541 165.824 724.851 165.282 724.076 164.889C723.301 164.495 722.456 164.259 721.589 164.193C720.722 164.127 719.851 164.232 719.025 164.503C718.2 164.775 717.435 165.206 716.777 165.773V165.773Z" fill="#C4809A"/>
<path d="M742.816 141.055C772.901 141.055 797.289 116.662 797.289 86.5704C797.289 56.4793 772.901 32.0856 742.816 32.0856C712.731 32.0856 688.342 56.4793 688.342 86.5704C688.342 116.662 712.731 141.055 742.816 141.055Z" fill="#C4809A"/>
<path d="M746.819 298.153V423.383C746.821 425.137 747.518 426.819 748.758 428.06C749.999 429.301 751.681 429.998 753.435 430H768.458C770.212 429.998 771.894 429.301 773.134 428.06C774.374 426.819 775.072 425.137 775.074 423.383V298.153C775.072 296.399 774.374 294.716 773.134 293.476C771.894 292.235 770.212 291.537 768.458 291.536H753.435C751.681 291.537 749.999 292.235 748.758 293.476C747.518 294.716 746.821 296.399 746.819 298.153Z" fill="#333477"/>
<path d="M715.073 298.153V423.383C715.073 424.252 715.244 425.112 715.576 425.915C715.909 426.718 716.396 427.447 717.01 428.062C717.625 428.676 718.354 429.164 719.157 429.496C719.959 429.829 720.82 430 721.689 430H736.712C738.466 429.998 740.147 429.301 741.388 428.06C742.628 426.819 743.326 425.137 743.327 423.383V298.153C743.326 296.399 742.628 294.716 741.388 293.476C740.147 292.235 738.466 291.537 736.712 291.536H721.689C720.82 291.536 719.959 291.707 719.157 292.039C718.354 292.372 717.625 292.859 717.01 293.474C716.396 294.088 715.909 294.818 715.576 295.621C715.244 296.424 715.073 297.284 715.073 298.153V298.153Z" fill="#333477"/>
<path d="M721.171 315.308C715.519 315.303 709.94 314.025 704.848 311.568C699.757 309.112 695.284 305.54 691.761 301.118C688.239 296.696 685.757 291.537 684.5 286.025C683.243 280.512 683.243 274.787 684.5 269.275L701.494 194.764C701.505 187.057 703.64 179.503 707.664 172.93C711.688 166.358 717.445 161.022 724.303 157.508C731.161 153.995 738.855 152.44 746.538 153.014C754.222 153.588 761.599 156.269 767.859 160.763C773.27 164.649 777.68 169.765 780.725 175.69C783.771 181.615 785.364 188.179 785.374 194.842C785.398 195.515 787.767 264.809 788.761 296.83C788.828 299.021 788.463 301.203 787.684 303.252C786.906 305.301 785.731 307.176 784.226 308.77C782.721 310.363 780.916 311.643 778.915 312.536C776.914 313.43 774.756 313.919 772.565 313.975L722.384 315.29C721.979 315.302 721.574 315.308 721.171 315.308Z" fill="#333477"/>
<path d="M696.814 110.656L696.871 108.62C693.084 108.514 689.745 108.277 687.236 106.443C686.525 105.894 685.941 105.198 685.522 104.403C685.104 103.607 684.862 102.731 684.813 101.833C684.769 101.285 684.851 100.734 685.055 100.223C685.259 99.7117 685.577 99.2545 685.986 98.8866C687.651 97.4798 690.331 97.9351 692.284 98.8309L693.969 99.6034L690.739 75.9945L688.722 76.2709L691.469 96.3534C688.815 95.573 686.356 95.909 684.672 97.3317C684.025 97.8964 683.518 98.603 683.189 99.3963C682.861 100.19 682.72 101.048 682.778 101.905C682.838 103.111 683.16 104.289 683.723 105.357C684.286 106.425 685.075 107.357 686.036 108.088C689.259 110.444 693.448 110.561 696.814 110.656Z" fill="#333477"/>
<path d="M713.354 78.0027H702.391V80.0388H713.354V78.0027Z" fill="#333477"/>
<path d="M757.048 175.947L758.92 220.975L761.842 291.536L762.239 301.075C762.271 301.945 762.475 302.799 762.84 303.589C763.206 304.379 763.724 305.089 764.366 305.676C765.296 306.531 766.451 307.103 767.694 307.326C768.165 307.408 768.642 307.439 769.119 307.417L775.074 307.173L784.132 306.796C784.295 306.786 784.448 306.776 784.611 306.755C786.27 306.562 787.795 305.748 788.88 304.478C789.965 303.207 790.531 301.574 790.463 299.904L787.155 219.896L785.283 174.776C785.206 173.023 784.437 171.373 783.146 170.186C781.854 168.999 780.144 168.372 778.392 168.444L775.226 168.576L763.389 169.065C762.52 169.099 761.667 169.305 760.878 169.669C760.089 170.034 759.38 170.551 758.791 171.19C758.202 171.829 757.745 172.579 757.446 173.395C757.146 174.211 757.011 175.078 757.048 175.947V175.947Z" fill="#C4809A"/>
<path d="M752.478 179.755V214.368C752.479 216.092 753.153 217.747 754.356 218.982C755.56 220.216 757.198 220.931 758.921 220.975C758.978 220.984 759.036 220.987 759.094 220.985H783.522C783.915 220.984 784.306 220.947 784.692 220.873C785.572 220.72 786.41 220.387 787.155 219.896C788.07 219.292 788.82 218.471 789.341 217.507C789.861 216.542 790.135 215.464 790.138 214.368V179.755C790.132 174.761 788.146 169.974 784.616 166.444C781.086 162.913 776.3 160.927 771.308 160.921C770.015 160.918 768.725 161.051 767.46 161.318C763.228 162.207 759.43 164.524 756.703 167.881C753.975 171.237 752.483 175.429 752.478 179.755V179.755Z" fill="#333477"/>
<path d="M681.108 194.201C681.36 195.023 681.771 195.787 682.319 196.45L697.79 215.355C698.066 215.705 698.384 216.019 698.736 216.292C699.918 217.256 701.397 217.781 702.921 217.779C704.446 217.777 705.923 217.248 707.103 216.282L733.882 194.363C735.796 192.796 737.382 190.868 738.55 188.688C739.718 186.508 740.446 184.119 740.691 181.658C740.936 179.197 740.694 176.711 739.979 174.344C739.264 171.976 738.09 169.772 736.523 167.858C734.957 165.945 733.029 164.358 730.849 163.19C728.67 162.021 726.281 161.293 723.821 161.048C721.36 160.803 718.875 161.045 716.508 161.76C714.14 162.475 711.937 163.65 710.024 165.217L683.245 187.135C682.231 187.97 681.487 189.087 681.107 190.344C680.727 191.602 680.727 192.943 681.108 194.201V194.201Z" fill="#333477"/>
<path d="M734.474 54.5337C725.399 58.3127 715.627 62.4934 705.57 61.335C697.331 60.386 689.413 55.5679 687.516 47.0537C685.702 38.9179 689.451 30.4307 695.426 24.9809C702.184 18.8163 711.514 15.8338 720.419 14.5758C725.799 13.8158 731.776 13.7666 736.737 16.2854C740.707 18.3016 744.277 21.947 744.891 26.5296L748.706 25.496C746.009 20.9241 747.3 15.3829 750.283 11.276C753.871 6.33809 759.893 4.28168 765.807 4.1099C777.835 3.76055 790.143 9.34352 799.829 16.101C809.368 22.7802 817.22 31.5906 822.763 41.8333C828.979 53.3389 832.402 67.0971 830.311 80.1527C828.183 93.4405 819.589 106.05 806.287 110.049C803.77 110.806 804.842 114.76 807.375 113.999C820.074 110.181 829.455 99.1818 833.058 86.639C837.198 72.2256 834.35 56.4402 827.999 43.113C822.368 31.4631 813.964 21.3743 803.524 13.7325C793.088 6.0382 779.562 -0.151038 766.379 0.00268056C758.805 0.0909836 751.469 2.79121 746.884 9.02388C742.969 14.3452 741.713 21.7022 745.17 27.5631C746.119 29.172 749.269 28.6444 748.985 26.5295C747.549 15.8062 737.173 10.2934 727.182 10.0555C721.543 10.0339 715.933 10.8636 710.541 12.5166C705.553 13.8833 700.818 16.0479 696.52 18.9265C688.452 24.5131 682.776 33.4343 683.004 43.4807C683.23 53.5032 689.98 61.2018 699.337 64.1659C711.684 68.0777 724.205 63.2126 735.563 58.483C736.076 58.3231 736.51 57.9738 736.776 57.506C737.041 57.0382 737.119 56.4869 736.993 55.9639C736.846 55.4418 736.499 54.9987 736.028 54.7309C735.556 54.4631 734.998 54.3922 734.474 54.5336L734.474 54.5337Z" fill="#FFF2D1"/>
<path d="M568.255 255.293C565.973 255.284 563.753 254.55 561.917 253.196C560.054 251.874 558.667 249.986 557.961 247.814C557.256 245.641 557.268 243.299 557.998 241.135L563.311 224.782C563.691 223.618 563.692 222.363 563.314 221.198C562.935 220.033 562.197 219.019 561.205 218.301L547.297 208.193C545.454 206.854 544.083 204.966 543.379 202.799C542.675 200.633 542.675 198.299 543.379 196.133C544.083 193.966 545.454 192.078 547.297 190.739C549.139 189.4 551.358 188.679 553.636 188.679H570.827C572.052 188.682 573.246 188.295 574.236 187.575C575.227 186.855 575.963 185.839 576.339 184.673L581.652 168.321C582.356 166.154 583.728 164.266 585.57 162.927C587.413 161.588 589.632 160.867 591.909 160.867C594.187 160.867 596.406 161.588 598.248 162.927C600.091 164.266 601.462 166.154 602.166 168.321L607.478 184.673C607.854 185.839 608.591 186.855 609.582 187.575C610.572 188.295 611.766 188.682 612.991 188.679H630.182C632.459 188.68 634.678 189.401 636.521 190.74C638.363 192.079 639.735 193.967 640.438 196.133C641.142 198.299 641.142 200.633 640.439 202.799C639.735 204.966 638.364 206.854 636.521 208.193L622.613 218.301C621.621 219.018 620.882 220.033 620.504 221.198C620.125 222.363 620.126 223.618 620.507 224.782L625.82 241.135C626.523 243.301 626.523 245.635 625.819 247.801C625.116 249.968 623.744 251.856 621.902 253.195C620.059 254.534 617.84 255.255 615.562 255.255C613.285 255.255 611.066 254.534 609.223 253.195L595.316 243.088C594.326 242.366 593.133 241.977 591.909 241.977C590.684 241.977 589.491 242.366 588.502 243.088L574.593 253.195C572.757 254.55 570.537 255.285 568.255 255.293V255.293ZM591.909 236.986C594.187 236.986 596.406 237.709 598.247 239.052L612.155 249.158C613.145 249.878 614.338 250.266 615.562 250.266C616.786 250.266 617.979 249.879 618.97 249.159C619.96 248.439 620.697 247.425 621.076 246.26C621.454 245.095 621.454 243.841 621.075 242.677L615.763 226.324C615.055 224.158 615.053 221.823 615.757 219.655C616.461 217.488 617.835 215.6 619.681 214.264L633.589 204.156C634.579 203.437 635.316 202.422 635.694 201.258C636.073 200.093 636.073 198.839 635.694 197.675C635.316 196.51 634.579 195.496 633.589 194.776C632.599 194.056 631.406 193.669 630.182 193.669H612.991C610.712 193.673 608.491 192.953 606.648 191.614C604.805 190.274 603.434 188.384 602.734 186.215L597.421 169.863C597.043 168.698 596.306 167.683 595.316 166.964C594.326 166.244 593.133 165.856 591.909 165.856C590.685 165.856 589.492 166.244 588.502 166.964C587.511 167.683 586.774 168.698 586.396 169.863L581.083 186.215C580.383 188.384 579.013 190.274 577.17 191.614C575.327 192.954 573.106 193.673 570.827 193.669H553.636C552.412 193.669 551.219 194.056 550.229 194.776C549.239 195.495 548.502 196.51 548.123 197.674C547.745 198.839 547.745 200.093 548.123 201.257C548.501 202.422 549.238 203.437 550.229 204.156L564.137 214.264C565.983 215.6 567.357 217.488 568.061 219.655C568.765 221.823 568.763 224.158 568.055 226.324L562.742 242.677C562.363 243.841 562.363 245.095 562.742 246.26C563.12 247.424 563.857 248.439 564.848 249.158C565.838 249.878 567.031 250.266 568.255 250.266C569.479 250.265 570.671 249.878 571.662 249.158L585.57 239.052C587.411 237.71 589.631 236.986 591.909 236.986V236.986Z" fill="#4091C5"/>
<path d="M72.2901 139.23C70.2123 139.222 68.1909 138.552 66.5188 137.319L52.6106 127.212C51.4567 126.369 50.0648 125.915 48.6359 125.915C47.207 125.915 45.8151 126.369 44.6611 127.212L30.753 137.319C29.0757 138.538 27.0556 139.194 24.9824 139.194C22.9091 139.194 20.889 138.538 19.2116 137.319C17.5342 136.1 16.2855 134.382 15.6447 132.41C15.0038 130.437 15.0035 128.313 15.6439 126.341L20.9565 109.988C21.4007 108.629 21.4021 107.165 20.9606 105.805C20.5192 104.446 19.6576 103.262 18.5001 102.424L4.59202 92.3169C2.91476 91.0979 1.66638 89.379 1.02579 87.4067C0.385195 85.4345 0.385292 83.3099 1.02603 81.3377C1.66678 79.3655 2.91529 77.6467 4.59264 76.4278C6.26999 75.2089 8.29008 74.5524 10.3634 74.5523H27.5544C28.9831 74.5549 30.3757 74.1037 31.5316 73.2638C32.6875 72.4239 33.5468 71.2386 33.9859 69.8787L39.2985 53.5257C39.939 51.5532 41.1875 49.8341 42.865 48.6149C44.5424 47.3958 46.5627 46.7391 48.6363 46.7391C50.7098 46.7391 52.7301 47.3958 54.4076 48.6149C56.085 49.8341 57.3335 51.5532 57.974 53.5257L63.2859 69.8787C63.7251 71.2386 64.5846 72.4239 65.7406 73.2638C66.8966 74.1037 68.2893 74.5549 69.7181 74.5523H86.9091C88.9825 74.5524 91.0025 75.2089 92.6799 76.4278C94.3573 77.6467 95.6058 79.3655 96.2465 81.3377C96.8872 83.31 96.8873 85.4345 96.2468 87.4067C95.6062 89.379 94.3578 91.0979 92.6805 92.3169L78.7724 102.424C77.6147 103.262 76.7529 104.446 76.3113 105.805C75.8697 107.164 75.8711 108.629 76.3153 109.988L81.6279 126.341C82.292 128.311 82.3036 130.443 81.6611 132.42C81.0186 134.398 79.7561 136.115 78.0608 137.319C76.3888 138.552 74.3678 139.222 72.2901 139.23V139.23Z" fill="#FF7987"/>
</svg>
