<svg width="511" height="432" viewBox="0 0 511 432" fill="none" xmlns="http://www.w3.org/2000/svg">
<g clip-path="url(#clip0_11_645)">
<path d="M272.273 128.593C271.854 129.015 271.469 129.47 271.122 129.952L217.916 128.07L211.83 116.64L193.406 123.583L202.215 144.871C202.927 146.59 204.176 148.032 205.776 148.98C207.375 149.928 209.238 150.33 211.086 150.127L271.295 143.507C272.694 145.321 274.611 146.667 276.792 147.363C278.974 148.06 281.315 148.075 283.505 147.406C285.694 146.737 287.629 145.417 289.051 143.62C290.473 141.823 291.315 139.635 291.465 137.348C291.615 135.06 291.066 132.78 289.891 130.813C288.716 128.845 286.971 127.282 284.887 126.332C282.803 125.383 280.48 125.091 278.227 125.495C275.974 125.9 273.897 126.983 272.273 128.599V128.593Z" fill="#C4809A"/>
<path d="M170.379 73.0507C187.538 73.0507 201.447 59.1202 201.447 41.936C201.447 24.7518 187.538 10.8213 170.379 10.8213C153.221 10.8213 139.312 24.7518 139.312 41.936C139.312 59.1202 153.221 73.0507 170.379 73.0507Z" fill="#41428D"/>
<path d="M146.13 25.1597C151.15 20.1316 152.168 12.9986 148.402 9.22759C144.637 5.45658 137.515 6.4756 132.494 11.5036C127.474 16.5316 126.456 23.6647 130.222 27.4357C133.987 31.2067 141.109 30.1877 146.13 25.1597Z" fill="#41428D"/>
<path d="M202.761 15.2787C204.852 10.3744 201.255 4.13429 194.726 1.34103C188.197 -1.45224 181.208 0.259064 179.116 5.16338C177.024 10.0677 180.622 16.3079 187.151 19.1011C193.68 21.8944 200.669 20.183 202.761 15.2787Z" fill="#41428D"/>
<path d="M215.582 125.95L191.74 136.627C191.062 136.93 190.326 137.084 189.583 137.078C188.84 137.071 188.107 136.904 187.435 136.588C186.762 136.272 186.165 135.815 185.684 135.247C185.204 134.679 184.852 134.014 184.651 133.298L177.62 108.19C176.092 104.705 176.004 100.757 177.377 97.2084C178.75 93.6599 181.471 90.801 184.944 89.2577C188.418 87.7145 192.36 87.6127 195.908 88.9747C199.456 90.3367 202.321 93.0514 203.874 96.5243L217.831 118.438C218.231 119.066 218.491 119.772 218.593 120.509C218.695 121.246 218.638 121.997 218.424 122.71C218.211 123.423 217.846 124.081 217.356 124.64C216.865 125.199 216.26 125.646 215.582 125.95H215.582Z" fill="#FFF2D1"/>
<path d="M105.472 231.003C107.115 230.621 108.653 229.883 109.98 228.841C111.307 227.799 112.389 226.479 113.151 224.972C113.913 223.466 114.336 221.811 114.39 220.123C114.444 218.436 114.128 216.757 113.464 215.205L155.979 119.009L131.658 112.874L97.5155 209.36C94.9859 210.65 93.0166 212.824 91.9807 215.471C90.9449 218.118 90.9145 221.053 91.8953 223.721C92.8761 226.389 94.7999 228.604 97.3022 229.946C99.8045 231.288 102.712 231.664 105.472 231.003V231.003Z" fill="#C4809A"/>
<path d="M93.8833 405.366L106.25 409.876L129.504 364.248L111.251 357.593L93.8833 405.366Z" fill="#C4809A"/>
<path d="M125.92 430.074L87.0522 415.901L92.5199 400.861L116.371 409.558C120.353 411.01 123.597 413.988 125.388 417.835C127.179 421.683 127.37 426.085 125.92 430.074V430.074L125.92 430.074Z" fill="#41428D"/>
<path d="M123.135 379.109C122.377 379.109 121.627 378.941 120.941 378.616L106.729 371.873C105.563 371.326 104.645 370.361 104.155 369.169C103.664 367.977 103.637 366.645 104.079 365.434L144.19 254.19C144.522 253.269 145.108 252.461 145.88 251.86C146.653 251.259 147.58 250.89 148.553 250.795C149.526 250.7 150.507 250.884 151.38 251.325C152.254 251.765 152.984 252.445 153.487 253.285L174.703 288.698C175.175 289.487 175.429 290.387 175.439 291.307C175.448 292.227 175.214 293.133 174.759 293.932L127.644 376.505C127.188 377.298 126.531 377.956 125.739 378.413C124.947 378.87 124.049 379.11 123.135 379.109V379.109Z" fill="#333477"/>
<path d="M171.365 75.7705C185.927 75.7705 197.732 63.9478 197.732 49.3638C197.732 34.7797 185.927 22.957 171.365 22.957C156.803 22.957 144.998 34.7797 144.998 49.3638C144.998 63.9478 156.803 75.7705 171.365 75.7705Z" fill="#C4809A"/>
<path d="M208.667 169.425L161.981 156.567L137.151 106.832C135.958 104.443 135.395 101.788 135.515 99.119C135.635 96.4503 136.434 93.8567 137.836 91.5844C139.238 89.312 141.197 87.4364 143.527 86.1356C145.857 84.8348 148.48 84.152 151.147 84.1521H188.291C192.146 84.1496 195.866 85.5746 198.736 88.1531C208.7 97.0924 229.633 122.864 208.869 168.976L208.667 169.425Z" fill="#FFF2D1"/>
<path d="M150.224 136.213L126.57 125.124C125.897 124.809 125.3 124.351 124.819 123.784C124.338 123.216 123.985 122.552 123.784 121.835C123.583 121.119 123.539 120.368 123.654 119.632C123.769 118.897 124.04 118.195 124.451 117.575L138.826 95.8324C140.458 92.3952 143.385 89.7464 146.964 88.4663C150.543 87.1861 154.483 87.3791 157.92 89.0028C161.358 90.6265 164.012 93.5486 165.302 97.1289C166.592 100.709 166.413 104.656 164.803 108.103L157.37 133.007C157.157 133.72 156.793 134.379 156.303 134.938C155.813 135.497 155.208 135.944 154.53 136.249C153.851 136.553 153.116 136.707 152.373 136.701C151.63 136.695 150.897 136.528 150.224 136.213H150.224Z" fill="#FFF2D1"/>
<path d="M178.841 417.834H192.002L198.264 366.992L178.838 366.993L178.841 417.834Z" fill="#C4809A"/>
<path d="M217.385 430.072L176.021 430.074L176.02 414.068L201.403 414.067C205.641 414.067 209.706 415.753 212.703 418.754C215.701 421.756 217.385 425.827 217.385 430.072V430.072V430.072Z" fill="#41428D"/>
<path d="M183.81 398.46C182.627 398.462 181.479 398.055 180.561 397.308C179.642 396.561 179.009 395.519 178.767 394.359C174.984 376.507 155.336 285.069 140.001 237.969C124.398 190.049 150.97 168.222 156.456 164.334C157.04 163.921 157.504 163.359 157.801 162.708L161.786 153.928C162.199 153.021 162.864 152.253 163.701 151.714C164.537 151.176 165.511 150.889 166.506 150.889H166.539C196.413 151.068 206.457 160.499 209.388 164.546C209.82 165.149 210.116 165.839 210.256 166.568C210.396 167.297 210.376 168.047 210.197 168.768L191.294 246.871C191.177 247.356 191.151 247.858 191.216 248.352L210.023 390.163C210.113 390.845 210.067 391.538 209.887 392.202C209.707 392.865 209.397 393.486 208.975 394.029C208.553 394.571 208.028 395.024 207.429 395.361C206.831 395.698 206.171 395.912 205.489 395.991L184.417 398.425C184.216 398.448 184.013 398.46 183.81 398.46Z" fill="#333477"/>
<path d="M143.659 32.754C149.684 36.9131 156.836 39.1265 164.154 39.0972C161.543 40.9099 158.572 42.1342 155.443 42.686C165.173 44.7762 175.228 44.8328 184.98 42.8522C187.148 42.5041 189.24 41.7846 191.164 40.7253C192.122 40.1891 192.958 39.4569 193.615 38.5761C194.273 37.6954 194.738 36.6859 194.98 35.6133C195.628 31.9057 192.744 28.5372 189.746 26.267C185.156 22.8442 179.864 20.486 174.252 19.363C168.641 18.2399 162.85 18.3801 157.299 19.7734C153.674 20.7117 150.044 22.2971 147.689 25.2123C145.335 28.1274 144.638 32.6216 146.881 35.6235L143.659 32.754Z" fill="#41428D"/>
<path d="M453.154 330.195V430.971L427.052 430.215H293.514V348.002L332.479 330.195H453.154Z" fill="#FFF2D1"/>
<path opacity="0.1" d="M453.154 330.195V330.509L443.783 336.79L427.052 348.002H293.514L332.479 330.195H453.154Z" fill="#333477"/>
<path opacity="0.1" d="M453.154 330.195V430.971L427.052 430.215L427.241 347.811L443.783 336.79L453.003 330.195H453.154Z" fill="#333477"/>
<path d="M417.972 340.992H336.639L342.692 337.583H420.621L417.972 340.992Z" fill="#FFF2D1"/>
<path d="M509.926 432H1.07353C0.788812 432 0.515771 431.887 0.314445 431.685C0.113119 431.483 0 431.21 0 430.925C0 430.64 0.113119 430.366 0.314445 430.165C0.515771 429.963 0.788812 429.85 1.07353 429.85H509.926C510.211 429.85 510.484 429.963 510.686 430.165C510.887 430.366 511 430.64 511 430.925C511 431.21 510.887 431.483 510.686 431.685C510.484 431.887 510.211 432 509.926 432Z" fill="#FFF2D1"/>
<path d="M374.725 146.899H286.696C284.134 146.896 281.679 145.876 279.867 144.062C278.056 142.248 277.037 139.788 277.034 137.223V41.5345C277.037 38.9691 278.056 36.5095 279.867 34.6955C281.679 32.8815 284.134 31.8611 286.696 31.8582H374.725C377.287 31.8611 379.743 32.8815 381.554 34.6955C383.365 36.5095 384.384 38.9691 384.387 41.5345V137.223C384.384 139.788 383.365 142.248 381.554 144.062C379.743 145.876 377.287 146.896 374.725 146.899V146.899ZM286.696 34.0085C284.704 34.0107 282.794 34.8043 281.385 36.2152C279.976 37.6262 279.183 39.5391 279.181 41.5345V137.223C279.183 139.218 279.976 141.131 281.385 142.542C282.794 143.953 284.704 144.747 286.696 144.749H374.725C376.718 144.747 378.628 143.953 380.037 142.542C381.445 141.131 382.238 139.218 382.24 137.223V41.5345C382.238 39.5391 381.445 37.6262 380.037 36.2152C378.628 34.8043 376.718 34.0107 374.725 34.0085H286.696Z" fill="#FFF2D1"/>
<path d="M304.425 71.6386H295.837C294.556 71.6372 293.328 71.127 292.423 70.22C291.517 69.3129 291.008 68.0832 291.006 66.8004V58.1993C291.008 56.9165 291.517 55.6867 292.423 54.7797C293.328 53.8727 294.556 53.3625 295.837 53.3611H304.425C305.706 53.3625 306.934 53.8727 307.84 54.7797C308.745 55.6867 309.255 56.9165 309.256 58.1993V66.8004C309.255 68.0832 308.745 69.3129 307.84 70.22C306.934 71.127 305.706 71.6372 304.425 71.6386V71.6386Z" fill="#4091C5"/>
<path d="M304.425 98.5173H295.837C294.556 98.5158 293.328 98.0056 292.423 97.0986C291.517 96.1916 291.008 94.9618 291.006 93.6791V85.0779C291.008 83.7952 291.517 82.5654 292.423 81.6584C293.328 80.7513 294.556 80.2412 295.837 80.2397H304.425C305.706 80.2412 306.934 80.7513 307.84 81.6584C308.745 82.5654 309.255 83.7952 309.256 85.0779V93.6791C309.255 94.9618 308.745 96.1916 307.84 97.0986C306.934 98.0056 305.706 98.5158 304.425 98.5173V98.5173Z" fill="#FF7987"/>
<path d="M367.195 66.4101H327.099C326.245 66.4092 325.427 66.0691 324.823 65.4644C324.219 64.8597 323.879 64.0399 323.878 63.1847V61.815C323.879 60.9599 324.219 60.14 324.823 59.5353C325.427 58.9307 326.245 58.5905 327.099 58.5896H367.195C368.049 58.5905 368.867 58.9307 369.471 59.5353C370.075 60.14 370.414 60.9599 370.415 61.815V63.1847C370.414 64.0399 370.075 64.8597 369.471 65.4644C368.867 66.0691 368.049 66.4092 367.195 66.4101V66.4101Z" fill="#4091C5"/>
<path d="M367.195 93.2888H327.099C326.245 93.2879 325.427 92.9477 324.823 92.3431C324.219 91.7384 323.879 90.9185 323.878 90.0634V88.6937C323.879 87.8385 324.219 87.0187 324.823 86.414C325.427 85.8093 326.245 85.4692 327.099 85.4683H367.195C368.049 85.4692 368.867 85.8093 369.471 86.414C370.075 87.0187 370.414 87.8385 370.415 88.6937V90.0634C370.414 90.9185 370.075 91.7384 369.471 92.3431C368.867 92.9477 368.049 93.2879 367.195 93.2888V93.2888Z" fill="#FF7987"/>
<path d="M304.425 125.396H295.837C294.556 125.395 293.328 124.884 292.423 123.977C291.517 123.07 291.008 121.84 291.006 120.558V111.957C291.008 110.674 291.517 109.444 292.423 108.537C293.328 107.63 294.556 107.12 295.837 107.118H304.425C305.706 107.12 306.934 107.63 307.84 108.537C308.745 109.444 309.255 110.674 309.256 111.957V120.558C309.255 121.84 308.745 123.07 307.84 123.977C306.934 124.884 305.706 125.395 304.425 125.396V125.396Z" fill="#FF7987"/>
<path d="M367.195 120.167H327.099C326.245 120.167 325.427 119.826 324.823 119.222C324.219 118.617 323.879 117.797 323.878 116.942V115.572C323.879 114.717 324.219 113.897 324.823 113.293C325.427 112.688 326.245 112.348 327.099 112.347H367.195C368.049 112.348 368.867 112.688 369.471 113.293C370.075 113.897 370.414 114.717 370.415 115.572V116.942C370.414 117.797 370.075 118.617 369.471 119.222C368.867 119.826 368.049 120.167 367.195 120.167Z" fill="#FF7987"/>
</g>
<defs>
<clipPath id="clip0_11_645">
<rect width="511" height="432" fill="white"/>
</clipPath>
</defs>
</svg>
