<svg width="1022" height="118" viewBox="0 0 1022 118" fill="none" xmlns="http://www.w3.org/2000/svg">
<path d="M6.08528 33.3157C2.33702 30.4493 0.462891 25.9845 0.462891 19.9211C0.462891 13.7475 2.44726 9.0622 6.41601 5.86515C10.495 2.6681 16.0072 1.06958 22.9525 1.06958C27.3622 1.06958 34.8036 1.84128 45.2767 3.38468L56.5214 5.03832C60.2697 5.4793 64.0731 5.69978 67.9316 5.69978C71.9003 5.69978 75.2076 4.87296 77.8535 3.21932C81.8222 6.7471 83.8066 11.0466 83.8066 16.1177C83.8066 21.1889 81.5466 25.5435 77.0266 29.1815C72.3964 33.04 67.1048 34.9693 61.1516 34.9693C58.2853 34.9693 54.5371 34.5834 49.9069 33.8117C44.505 50.7892 41.804 65.1759 41.804 76.9719C41.804 88.7679 44.7806 97.7527 50.7337 103.926C47.9776 108.887 44.5601 112.305 40.4811 114.179C36.4021 116.163 31.2758 117.155 25.1022 117.155C19.0388 117.155 14.0779 115.502 10.2194 112.194C6.47113 108.777 4.597 103.596 4.597 96.6502C4.597 88.6025 6.80186 77.9641 11.2116 64.7349C15.6213 51.616 21.1334 40.0405 27.748 30.0084C24.551 29.6776 21.2988 29.5123 17.9915 29.5123C11.1565 29.5123 7.18771 30.7801 6.08528 33.3157Z" fill="#FF7987"/>
<path d="M81.3384 89.3736C81.3384 85.0742 81.8896 80.1683 82.992 74.6562L96.3865 4.70703H132.932L119.703 75.1523C118.711 80.3337 118.215 84.8537 118.215 88.7122C118.215 92.4604 118.986 95.3268 120.53 97.3111C122.183 99.2955 124.499 100.288 127.475 100.288C130.452 100.288 132.877 99.9018 134.751 99.1301C136.625 98.3584 138.334 97.0355 139.877 95.1614C142.854 91.4131 145.279 84.7434 147.153 75.1523L160.548 4.70703H185.518L172.289 74.9869C169.202 90.6414 163.414 101.611 154.926 107.894C146.657 114.068 134.365 117.155 118.049 117.155C105.812 117.155 96.4417 114.509 89.9373 109.217C84.2047 104.587 81.3384 97.9726 81.3384 89.3736Z" fill="#FF7987"/>
<path d="M202.419 33.3889C198.671 30.5226 196.796 26.0577 196.796 19.9944C196.796 13.8208 198.781 9.13544 202.75 5.93839C206.828 2.74134 212.341 1.14282 219.286 1.14282C223.696 1.14282 231.137 1.91452 241.61 3.45792L252.855 5.11157C256.603 5.55254 260.407 5.77303 264.265 5.77303C268.234 5.77303 271.541 4.9462 274.187 3.29256C278.156 6.82034 280.14 11.1198 280.14 16.191C280.14 21.2622 277.88 25.6168 273.36 29.2548C268.73 33.1133 263.438 35.0425 257.485 35.0425C254.619 35.0425 250.871 34.6567 246.24 33.885C240.838 50.8624 238.138 65.2491 238.138 77.0451C238.138 88.8411 241.114 97.8259 247.067 104C244.311 108.96 240.894 112.378 236.815 114.252C232.736 116.236 227.609 117.229 221.436 117.229C215.372 117.229 210.411 115.575 206.553 112.268C202.805 108.85 200.93 103.669 200.93 96.7235C200.93 88.6757 203.135 78.0373 207.545 64.8081C211.955 51.6892 217.467 40.1137 224.082 30.0816C220.884 29.7509 217.632 29.5855 214.325 29.5855C207.49 29.5855 203.521 30.8533 202.419 33.3889Z" fill="#FF92A5"/>
<path d="M722.425 33.0906C718.677 30.2242 716.803 25.7594 716.803 19.696C716.803 13.5224 718.787 8.8371 722.756 5.64005C726.835 2.443 732.347 0.844482 739.292 0.844482C743.702 0.844482 751.143 1.61618 761.617 3.15958L772.861 4.81323C776.61 5.2542 780.413 5.47469 784.271 5.47469C788.24 5.47469 791.547 4.64786 794.193 2.99422C798.162 6.522 800.146 10.8215 800.146 15.8926C800.146 20.9638 797.886 25.3184 793.366 28.9564C788.736 32.8149 783.445 34.7442 777.491 34.7442C774.625 34.7442 770.877 34.3583 766.247 33.5866C760.845 50.5641 758.144 64.9508 758.144 76.7468C758.144 88.5428 761.12 97.5276 767.074 103.701C764.317 108.662 760.9 112.08 756.821 113.954C752.742 115.938 747.616 116.93 741.442 116.93C735.379 116.93 730.418 115.277 726.559 111.969C722.811 108.552 720.937 103.37 720.937 96.4251C720.937 88.3774 723.142 77.739 727.551 64.5098C731.961 51.3909 737.473 39.8154 744.088 29.7833C740.891 29.4525 737.639 29.2872 734.331 29.2872C727.496 29.2872 723.528 30.555 722.425 33.0906Z" fill="#A9C9FF"/>
<path d="M277.117 89.3736C277.117 85.0742 277.668 80.1683 278.77 74.6562L292.165 4.70703H328.71L315.481 75.1523C314.489 80.3337 313.993 84.8537 313.993 88.7122C313.993 92.4604 314.765 95.3268 316.308 97.3111C317.962 99.2955 320.277 100.288 323.253 100.288C326.23 100.288 328.655 99.9018 330.529 99.1301C332.404 98.3584 334.112 97.0355 335.656 95.1614C338.632 91.4131 341.058 84.7434 342.932 75.1523L356.326 4.70703H381.296L368.067 74.9869C364.98 90.6414 359.193 101.611 350.704 107.894C342.436 114.068 330.144 117.155 313.828 117.155C301.591 117.155 292.22 114.509 285.716 109.217C279.983 104.587 277.117 97.9726 277.117 89.3736Z" fill="#FF92A5"/>
<path d="M601.655 89.3311C601.655 85.0317 602.206 80.1259 603.309 74.6137L616.703 4.66455H653.249L640.02 75.1098C639.027 80.2912 638.531 84.8112 638.531 88.6697C638.531 92.4179 639.303 95.2843 640.846 97.2686C642.5 99.253 644.815 100.245 647.792 100.245C650.768 100.245 653.194 99.8593 655.068 99.0876C656.942 98.3159 658.651 96.993 660.194 95.1189C663.171 91.3706 665.596 84.7009 667.47 75.1098L680.865 4.66455H705.835L692.605 74.9444C689.519 90.5989 683.731 101.568 675.242 107.852C666.974 114.026 654.682 117.112 638.366 117.112C626.129 117.112 616.758 114.467 610.254 109.175C604.521 104.545 601.655 97.9301 601.655 89.3311Z" fill="#A9C9FF"/>
<path d="M410.591 65.1608C407.394 35.285 400.173 17.15 388.928 10.7559C391.243 7.88961 394.275 5.68475 398.023 4.14135C401.772 2.48771 405.906 1.66089 410.426 1.66089C414.946 1.66089 418.914 2.48771 422.332 4.14135C425.749 5.68475 428.561 8.16522 430.765 11.5828C434.955 18.0871 437.049 29.1114 437.049 44.6556V56.5619C443.664 37.1591 450.278 23.2685 456.893 14.89C463.618 6.29109 471.169 1.99161 479.548 1.99161C482.855 1.99161 485.611 2.87356 487.816 4.63745C490.021 6.29109 491.675 8.38571 492.777 10.9213C484.288 14.6696 475.965 21.9456 467.807 32.7494C459.649 43.5532 452.924 56.5068 447.633 71.61L437.876 113.778H401L410.591 65.1608Z" fill="#FFA4C5"/>
<path d="M483.572 73.8902C483.572 53.0543 488.974 36.0769 499.778 22.958C511.243 8.73665 526.953 1.62598 546.907 1.62598C561.349 1.62598 572.208 5.15375 579.484 12.2093C586.76 19.1546 590.398 30.0135 590.398 44.7861C590.398 67.2757 584.665 85.0799 573.2 98.1988C561.845 111.097 546.631 117.546 527.559 117.546C512.676 117.546 501.597 113.853 494.321 106.467C487.155 98.9705 483.572 88.1116 483.572 73.8902ZM527.063 39.6598C522.102 59.5035 519.622 77.2527 519.622 92.9072C519.622 96.6554 520.228 99.7422 521.441 102.168C522.764 104.593 525.079 105.806 528.386 105.806C531.804 105.806 534.56 105.034 536.654 103.49C538.749 101.837 540.623 99.191 542.277 95.553C544.922 89.5999 547.458 80.3395 549.883 67.7718C552.419 55.0938 553.797 46.1641 554.018 40.9827C554.238 35.6911 554.348 31.0609 554.348 27.0921C554.348 23.1234 553.742 19.8712 552.529 17.3356C551.317 14.8 549.057 13.5322 545.749 13.5322C542.552 13.5322 539.851 14.5244 537.646 16.5088C533.567 20.257 530.04 27.974 527.063 39.6598Z" fill="#EFCEFF"/>
<path d="M797.165 73.8092C797.165 52.9733 802.567 35.9958 813.371 22.8769C824.836 8.65559 840.546 1.54492 860.5 1.54492C874.942 1.54492 885.801 5.0727 893.077 12.1282C900.353 19.0736 903.991 29.9325 903.991 44.705C903.991 67.1946 898.258 84.9988 886.793 98.1178C875.438 111.016 860.224 117.465 841.152 117.465C826.269 117.465 815.19 113.772 807.914 106.386C800.748 98.8895 797.165 88.0305 797.165 73.8092ZM840.656 39.5787C835.695 59.4225 833.215 77.1716 833.215 92.8261C833.215 96.5744 833.821 99.6612 835.034 102.087C836.357 104.512 838.672 105.725 841.979 105.725C845.397 105.725 848.153 104.953 850.247 103.409C852.342 101.756 854.216 99.1099 855.87 95.4719C858.515 89.5188 861.051 80.2584 863.476 67.6907C866.012 55.0128 867.39 46.0831 867.611 40.9017C867.831 35.61 867.941 30.9798 867.941 27.0111C867.941 23.0423 867.335 19.7901 866.122 17.2545C864.91 14.719 862.65 13.4512 859.342 13.4512C856.145 13.4512 853.444 14.4434 851.239 16.4277C847.16 20.176 843.633 27.893 840.656 39.5787Z" fill="#55BEFF"/>
<path d="M914.715 73.2604C914.715 52.4244 920.117 35.447 930.921 22.3281C942.386 8.10676 958.096 0.996094 978.05 0.996094C992.491 0.996094 1003.35 4.52387 1010.63 11.5794C1017.9 18.5247 1021.54 29.3837 1021.54 44.1562C1021.54 66.6458 1015.81 84.45 1004.34 97.5689C992.988 110.467 977.774 116.917 958.702 116.917C943.819 116.917 932.74 113.223 925.464 105.837C918.298 98.3406 914.715 87.4817 914.715 73.2604ZM958.206 39.0299C953.245 58.8736 950.765 76.6228 950.765 92.2773C950.765 96.0255 951.371 99.1123 952.584 101.538C953.906 103.963 956.222 105.176 959.529 105.176C962.946 105.176 965.702 104.404 967.797 102.861C969.892 101.207 971.766 98.5611 973.419 94.9231C976.065 88.97 978.601 79.7096 981.026 67.1419C983.562 54.4639 984.94 45.5343 985.16 40.3528C985.381 35.0612 985.491 30.431 985.491 26.4622C985.491 22.4935 984.885 19.2413 983.672 16.7057C982.459 14.1701 980.199 12.9023 976.892 12.9023C973.695 12.9023 970.994 13.8945 968.789 15.8789C964.71 19.6272 961.182 27.3442 958.206 39.0299Z" fill="#55BEFF"/>
</svg>
